<?xml version="1.0" standalone="no"?><!-- Generator: Gravit.io --><svg xmlns="http://www.w3.org/2000/svg" xmlns:xlink="http://www.w3.org/1999/xlink" style="isolation:isolate" viewBox="0 0 145 200" width="145" height="200"><defs><clipPath id="_clipPath_1xYoWgvAfJOfk9ec0t0a8mLQuu0MlAkb"><rect width="145" height="200"/></clipPath></defs><g clip-path="url(#_clipPath_1xYoWgvAfJOfk9ec0t0a8mLQuu0MlAkb)"><rect x="0" y="0" width="145" height="200.5" transform="matrix(1,0,0,1,0,0)" fill="rgb(227,24,54)"/><g><g><g><g><path d=" M 58.423 83.959 C 62.147 85.429 65.827 87.009 69.462 88.69 C 57.887 93.391 46.707 98.955 36.042 105.328 C 32.432 103.436 28.769 101.648 25.055 99.97 C 35.705 93.768 46.858 88.405 58.423 83.959 Z " fill-rule="evenodd" fill="rgb(255,255,255)"/><path d=" M 44.641 79.092 C 32.62 82.898 21.053 87.877 10.091 93.917 C 13.587 95.182 17.051 96.528 20.465 97.969 C 31.088 91.718 42.315 86.458 53.997 82.278 C 50.907 81.142 47.783 80.081 44.641 79.092 Z " fill-rule="evenodd" fill="rgb(255,255,255)"/><path d=" M 83.511 83.49 C 74.069 78.923 64.267 75.077 54.188 72.007 C 50.642 73.029 47.128 74.142 43.644 75.355 C 54.024 78.427 64.113 82.317 73.831 86.972 C 77.025 85.747 80.255 84.581 83.511 83.49 Z " fill-rule="evenodd" fill="rgb(255,255,255)"/><path d=" M 98.917 78.898 C 89.256 74.683 79.264 71.157 69.055 68.35 C 65.802 69.022 62.571 69.773 59.363 70.596 C 69.502 73.555 79.36 77.306 88.869 81.772 C 92.195 80.743 95.545 79.783 98.917 78.898 Z " fill-rule="evenodd" fill="rgb(255,255,255)"/><path d=" M 123.653 87.207 C 99.415 95.377 76.707 107.014 56.164 121.582 C 61.302 124.736 66.303 128.083 71.193 131.609 C 90.556 116.251 112.051 103.456 135.186 93.736 C 131.412 91.447 127.553 89.273 123.653 87.207 Z " fill-rule="evenodd" fill="rgb(255,255,255)"/><path d=" M 106.985 79.287 C 81.785 85.953 58.093 96.706 36.734 110.87 C 41.547 113.238 46.273 115.765 50.902 118.455 C 71.835 103.964 95.063 92.682 119.839 85.241 C 115.614 83.123 111.327 81.13 106.985 79.287 Z " fill-rule="evenodd" fill="rgb(255,255,255)"/></g></g></g></g></g></svg>