<?xml version="1.0" standalone="no"?><!-- Generator: Gravit.io --><svg xmlns="http://www.w3.org/2000/svg" xmlns:xlink="http://www.w3.org/1999/xlink" style="isolation:isolate" viewBox="0 0 35 35" width="35" height="35"><defs><clipPath id="_clipPath_oZNyZOfIdqdiLykmAeHWPcr3i526Xi1C"><rect width="35" height="35"/></clipPath></defs><g clip-path="url(#_clipPath_oZNyZOfIdqdiLykmAeHWPcr3i526Xi1C)"><g id="Icons"><g id="Group"><path d=" M 2.156 17.5 C 2.156 9.032 9.032 2.156 17.5 2.156 C 25.968 2.156 32.844 9.032 32.844 17.5 C 32.844 25.968 25.968 32.844 17.5 32.844 C 9.032 32.844 2.156 25.968 2.156 17.5 Z " fill="rgb(209,209,209)" vector-effect="non-scaling-stroke" stroke-width="2" stroke="rgb(255,255,255)" stroke-linejoin="round" stroke-linecap="round" stroke-miterlimit="10"/><g id="Group"><path d=" M 13.034 14.518 C 13.034 12.053 15.035 10.052 17.5 10.052 C 19.965 10.052 21.966 12.053 21.966 14.518 C 21.966 16.983 19.965 18.984 17.5 18.984 C 15.035 18.984 13.034 16.983 13.034 14.518 Z " fill="none" vector-effect="non-scaling-stroke" stroke-width="2" stroke="rgb(255,255,255)" stroke-linejoin="round" stroke-linecap="round" stroke-miterlimit="10"/><path d=" M 9.84 24.948 C 9.84 22.556 11.797 20.599 14.188 20.599 L 20.812 20.599 C 23.203 20.599 25.16 22.556 25.16 24.948" fill="none" vector-effect="non-scaling-stroke" stroke-width="2" stroke="rgb(255,255,255)" stroke-linejoin="round" stroke-linecap="round" stroke-miterlimit="10"/></g></g></g></g></svg>