<?xml version="1.0" standalone="no"?><!-- Generator: Gravit.io --><svg xmlns="http://www.w3.org/2000/svg" xmlns:xlink="http://www.w3.org/1999/xlink" style="isolation:isolate" viewBox="0 0 145 200" width="145" height="200"><defs><clipPath id="_clipPath_djuq5B5KjmXgqN320SEcpfdnM2bGvh57"><rect width="145" height="200"/></clipPath></defs><g clip-path="url(#_clipPath_djuq5B5KjmXgqN320SEcpfdnM2bGvh57)"><rect width="145" height="200" style="fill:rgb(0,150,94)"/><path d=" M 103.463 130.463 C 105.492 128.434 105.533 125.102 103.463 123.046 L 91.344 110.927 L 99.761 111.009 C 103.052 111.091 104.957 108.788 104.957 105.895 C 104.957 102.934 102.64 100.617 99.761 100.617 L 89.287 100.617 C 86.984 100.617 85.12 102.043 84.407 103.908 C 83.091 107.335 80.39 110.049 76.908 111.407 C 75.029 112.147 73.617 113.984 73.617 116.287 L 73.617 126.761 C 73.617 129.64 75.921 131.957 78.895 131.957 C 81.774 131.957 84.091 130.052 84.009 126.761 L 83.927 118.344 L 96.046 130.463 C 98.102 132.519 101.434 132.478 103.463 130.463 Z " fill="rgb(255,255,255)"/><path d=" M 103.463 68.537 C 101.447 66.508 98.102 66.467 96.046 68.537 L 83.927 80.656 L 84.009 72.239 C 84.091 68.948 81.774 67.043 78.895 67.043 C 75.934 67.043 73.617 69.36 73.617 72.239 L 73.617 82.713 C 73.617 85.016 75.043 86.88 76.908 87.593 C 80.335 88.909 83.036 91.61 84.407 95.092 C 85.147 96.971 86.984 98.383 89.287 98.383 L 99.761 98.383 C 102.64 98.383 104.957 96.079 104.957 93.105 C 104.957 90.226 103.052 87.909 99.761 87.991 L 91.344 88.073 L 103.463 75.954 C 105.519 73.898 105.478 70.552 103.463 68.537 Z " fill="rgb(255,255,255)"/><path d=" M 41.537 68.537 C 39.508 70.566 39.481 73.898 41.537 75.954 L 53.656 88.073 L 45.239 87.991 C 41.948 87.909 40.043 90.212 40.043 93.105 C 40.043 96.066 42.36 98.383 45.239 98.383 L 55.713 98.383 C 58.016 98.383 59.88 96.957 60.593 95.092 C 61.909 91.665 64.61 88.951 68.092 87.593 C 69.971 86.853 71.383 85.016 71.383 82.713 L 71.383 72.239 C 71.383 69.36 69.079 67.043 66.105 67.043 C 63.226 67.043 60.909 68.948 60.991 72.239 L 61.073 80.656 L 48.954 68.537 C 46.898 66.467 43.552 66.508 41.537 68.537 Z " fill="rgb(255,255,255)"/><path d=" M 41.537 130.463 C 43.552 132.492 46.898 132.533 48.954 130.463 L 61.073 118.344 L 60.991 126.761 C 60.909 130.052 63.212 131.957 66.105 131.957 C 69.066 131.957 71.383 129.64 71.383 126.761 L 71.383 116.287 C 71.383 113.984 69.957 112.12 68.092 111.407 C 64.665 110.091 61.964 107.39 60.593 103.908 C 59.853 102.029 58.016 100.617 55.713 100.617 L 45.239 100.617 C 42.36 100.617 40.043 102.921 40.043 105.895 C 40.043 108.774 41.948 111.091 45.239 111.009 L 53.656 110.927 L 41.537 123.046 C 39.467 125.102 39.508 128.434 41.537 130.463 Z " fill="rgb(255,255,255)"/></g></svg>