<?xml version="1.0" standalone="no"?><!-- Generator: Gravit.io --><svg xmlns="http://www.w3.org/2000/svg" xmlns:xlink="http://www.w3.org/1999/xlink" style="isolation:isolate" viewBox="0 0 145 200" width="145" height="200"><defs><clipPath id="_clipPath_GcyGIig9DUgfQkM2L6NIUnJuj7ytiF7C"><rect width="145" height="200"/></clipPath></defs><g clip-path="url(#_clipPath_GcyGIig9DUgfQkM2L6NIUnJuj7ytiF7C)"><rect width="145" height="200" style="fill:rgb(0,176,155)"/><g><g><path d=" M 42.723 132.601 C 43.695 132.601 44.485 131.818 44.485 130.852 L 44.485 100.68 C 44.485 99.718 43.695 98.931 42.723 98.931 L 36.005 98.931 C 35.027 98.931 34.244 99.718 34.244 100.68 L 34.244 130.852 C 34.244 131.818 35.027 132.601 36.005 132.601 L 42.723 132.601 Z " fill="rgb(255,255,255)"/><path d=" M 114.182 135.539 L 29.814 135.539 C 28.854 135.539 28.059 136.323 28.059 137.291 L 28.059 141.839 C 28.059 142.81 28.854 143.592 29.814 143.592 L 114.182 143.592 C 115.153 143.592 115.932 142.811 115.932 141.839 L 115.932 137.291 C 115.932 136.322 115.154 135.539 114.182 135.539 Z " fill="rgb(255,255,255)"/><path d=" M 64.491 132.601 C 65.452 132.601 66.241 131.818 66.241 130.852 L 66.241 100.68 C 66.241 99.718 65.452 98.931 64.491 98.931 L 57.755 98.931 C 56.794 98.931 56.012 99.718 56.012 100.68 L 56.012 130.852 C 56.012 131.818 56.794 132.601 57.755 132.601 L 64.491 132.601 Z " fill="rgb(255,255,255)"/><path d=" M 108.003 132.601 C 108.964 132.601 109.757 131.818 109.757 130.852 L 109.757 100.68 C 109.757 99.718 108.964 98.931 108.003 98.931 L 101.266 98.931 C 100.301 98.931 99.518 99.718 99.518 100.68 L 99.518 130.852 C 99.518 131.818 100.301 132.601 101.266 132.601 L 108.003 132.601 Z " fill="rgb(255,255,255)"/><path d=" M 114.712 89.067 L 78.75 59.301 C 75.033 56.233 68.963 56.233 65.246 59.301 L 29.291 89.067 C 25.569 92.15 26.482 94.657 31.305 94.657 L 112.701 94.657 C 117.52 94.657 118.427 92.15 114.712 89.067 Z  M 71.998 87.416 C 68.227 87.416 65.17 84.352 65.17 80.582 C 65.17 76.812 68.227 73.76 71.998 73.76 C 75.779 73.76 78.827 76.812 78.827 80.582 C 78.827 84.352 75.779 87.416 71.998 87.416 Z " fill="rgb(255,255,255)"/><path d=" M 86.242 132.601 C 87.213 132.601 87.996 131.818 87.996 130.852 L 87.996 100.68 C 87.996 99.718 87.213 98.931 86.242 98.931 L 79.517 98.931 C 78.544 98.931 77.76 99.718 77.76 100.68 L 77.76 130.852 C 77.76 131.818 78.544 132.601 79.517 132.601 L 86.242 132.601 Z " fill="rgb(255,255,255)"/></g></g></g></svg>