<?xml version="1.0" standalone="no"?><!-- Generator: Gravit.io --><svg xmlns="http://www.w3.org/2000/svg" xmlns:xlink="http://www.w3.org/1999/xlink" style="isolation:isolate" viewBox="0 0 145 200" width="145" height="200"><defs><clipPath id="_clipPath_HgeE9wOTvPa6Qe0eDhrdoe8wu0AWmHWD"><rect width="145" height="200"/></clipPath></defs><g clip-path="url(#_clipPath_HgeE9wOTvPa6Qe0eDhrdoe8wu0AWmHWD)"><rect width="145" height="200" style="fill:rgb(102,189,41)"/><path d=" M 70.929 85.709 L 70.929 63 L 62.709 67.765 L 62.709 90.474 L 70.929 85.709 Z  M 74.011 113.556 L 74.011 136.265 L 82.291 131.499 L 82.291 108.79 L 74.011 113.556 Z  M 62.709 106.974 L 62.709 131.499 L 70.929 136.265 L 70.929 111.918 L 85.359 103.578 L 85.359 129.668 L 93.638 124.962 L 93.638 74.288 L 85.359 69.582 L 85.359 93.869 L 62.709 106.974 Z  M 59.567 69.582 L 51.347 74.347 L 51.347 124.962 L 59.567 129.668 L 59.567 105.395 L 82.276 92.291 L 82.276 67.765 L 73.997 63 L 73.997 87.347 L 59.567 95.686 L 59.567 69.582 Z  M 48.279 76.104 L 41.266 80.155 C 40.596 80.572 40 81.42 40 82.15 L 40 117.129 C 40 117.8 40.551 118.693 41.266 119.125 L 48.279 123.175 L 48.279 76.104 Z  M 96.721 123.16 L 103.734 119.11 C 104.404 118.693 105 117.844 105 117.115 L 105 82.15 C 105 81.48 104.449 80.586 103.734 80.155 L 96.721 76.104 L 96.721 123.16 Z " fill="rgb(255,255,255)"/></g></svg>