<?xml version="1.0" standalone="no"?><!-- Generator: Gravit.io --><svg xmlns="http://www.w3.org/2000/svg" xmlns:xlink="http://www.w3.org/1999/xlink" style="isolation:isolate" viewBox="0 0 145 200" width="145" height="200"><defs><clipPath id="_clipPath_mQwYLdamZCFa6gLkU0AMZrjIBv2LXvyS"><rect width="145" height="200"/></clipPath></defs><g clip-path="url(#_clipPath_mQwYLdamZCFa6gLkU0AMZrjIBv2LXvyS)"><rect width="145" height="200" style="fill:rgb(118,169,35)"/><clipPath id="_clipPath_OV1xAwrVbrH3ZTOgww0zQL1yfnX95eVG"><rect x="0" y="58" width="145" height="84" transform="matrix(1,0,0,1,0,0)" fill="rgb(255,255,255)"/></clipPath><g clip-path="url(#_clipPath_OV1xAwrVbrH3ZTOgww0zQL1yfnX95eVG)"><g><rect x="0" y="58" width="145" height="84" transform="matrix(1,0,0,1,0,0)" fill="rgb(118,169,35)"/><g><g><clipPath id="_clipPath_FW3jjd9jy70bBP3Q9OXoON41YVbnWztW"><path d=" M -183.805 -224.63 L 5462.857 -224.63 L 5462.857 7082.815 L -183.805 7082.815 L -183.805 -224.63 Z " fill="rgb(255,255,255)"/></clipPath><g clip-path="url(#_clipPath_FW3jjd9jy70bBP3Q9OXoON41YVbnWztW)"><g><g><g><clipPath id="_clipPath_rR5FTDXJ1VL9djFjEB8fcY2o6oRH8FFn"><path d=" M -17.727 325.504 L 1027.902 325.504 L 1027.902 38.438 L -17.727 38.438 L -17.727 325.504 Z " fill="rgb(255,255,255)"/></clipPath><g clip-path="url(#_clipPath_rR5FTDXJ1VL9djFjEB8fcY2o6oRH8FFn)"><g><g><g><path d=" M 72.285 129.68 C 88.256 129.68 101.196 116.735 101.196 100.767 C 101.196 84.801 88.256 71.859 72.285 71.859 C 56.319 71.859 43.377 84.801 43.377 100.767 C 43.377 116.735 56.319 129.68 72.285 129.68 Z " fill="rgb(118,169,35)"/></g><path d=" M 67.841 105.587 L 78.482 105.587 L 81.59 107.602 L 67.372 107.602 L 60.991 127.326 C 53.941 124.592 47.417 118.259 44.68 111.14 C 41.763 104.242 41.763 95.575 44.744 88.648 C 47.539 81.527 54.252 75.095 61.397 72.454 C 67.019 70.125 74.543 69.879 80.505 71.711 C 87.348 73.671 93.808 78.575 97.564 84.977 C 101.765 91.997 102.945 100.919 100.391 108.931 C 98.778 114.249 95.455 119.341 90.88 122.982 L 83.027 109.897 L 93.959 115.994 C 94.02 115.994 94.052 115.925 94.02 115.861 L 79.702 103.5 L 98.221 106.324 C 98.285 106.324 98.312 106.295 98.312 106.263 L 98.19 106.17 L 80.728 100.047 L 98.874 95.665 C 98.935 95.665 98.935 95.607 98.903 95.575 L 80.288 96.787 L 94.864 85.752 C 94.896 85.691 94.768 85.661 94.739 85.725 L 78.365 94.026 L 87.403 78.079 C 87.403 78.055 87.403 77.989 87.348 78.021 L 75.538 91.881 L 77.805 73.671 C 77.805 73.637 77.739 73.605 77.678 73.637 L 72.246 91.318 L 67.491 73.106 C 67.459 73.077 67.396 73.045 67.361 73.106 L 68.671 91.997 L 57.455 77.4 C 57.421 77.366 57.392 77.4 57.36 77.429 L 65.844 93.583 L 49.807 84.821 C 49.778 84.821 49.714 84.855 49.714 84.884 L 63.977 96.596 L 45.77 94.673 C 45.706 94.708 45.706 94.764 45.77 94.793 L 63.423 99.956 L 45.866 105.115 C 45.831 105.141 45.831 105.205 45.866 105.234 L 63.977 103.123 L 49.746 115.211 C 49.714 115.211 49.685 115.272 49.746 115.307 L 49.937 115.246 L 61.333 109.279 L 64.009 105.022 L 67.051 105.022 L 64.942 103.531 L 71.992 92.215 L 67.833 105.579 L 67.841 105.587 Z " fill="rgb(255,255,255)"/></g></g></g></g></g></g></g></g></g></g></g></g></svg>