<?xml version="1.0" standalone="no"?><!-- Generator: Gravit.io --><svg xmlns="http://www.w3.org/2000/svg" xmlns:xlink="http://www.w3.org/1999/xlink" style="isolation:isolate" viewBox="0 0 145 200" width="145" height="200"><defs><clipPath id="_clipPath_XIo86VM9mrdjjbsDVq4Dq6tHeO3WM6aE"><rect width="145" height="200"/></clipPath></defs><g clip-path="url(#_clipPath_XIo86VM9mrdjjbsDVq4Dq6tHeO3WM6aE)"><rect width="145" height="200" style="fill:rgb(245,128,37)"/><g><path d=" M 72 37.806 C 37.863 37.806 9.806 65.863 9.806 100 C 9.806 134.137 37.396 162.194 72 162.194 C 106.137 162.194 134.194 134.604 134.194 100 C 134.194 65.863 106.137 37.806 72 37.806 Z " fill="rgb(255,255,255)"/></g><path d=" M 104.266 109.353 L 90.705 109.353 C 91.173 107.482 91.173 105.612 89.77 103.273 L 67.791 64.928 C 64.518 59.317 61.245 55.108 58.439 51.835 C 58.439 51.835 58.439 51.835 58.439 51.835 C 67.324 56.511 84.626 66.331 118.295 85.971 L 120.165 86.906 C 126.245 90.647 129.986 96.259 129.05 100 C 127.647 106.079 118.763 109.353 104.266 109.353 Z  M 60.309 146.763 L 58.439 148.165 C 52.36 151.906 45.345 151.906 42.54 149.101 C 38.799 145.36 40.669 136.007 47.683 123.381 L 54.23 111.691 C 55.633 113.094 57.504 114.029 59.842 114.029 L 103.799 114.029 C 110.345 114.029 115.489 113.561 120.165 112.158 C 120.165 112.158 120.165 112.158 120.165 112.158 C 111.748 117.77 94.446 127.59 60.309 146.763 Z  M 36.928 66.331 L 36.928 63.993 C 36.928 56.978 39.734 50.899 43.942 49.964 C 49.086 48.561 56.568 55.108 63.583 67.266 L 70.129 78.957 C 68.259 79.424 66.388 80.827 65.453 82.698 L 43.475 120.576 C 40.201 126.187 37.863 130.863 36.928 135.54 C 36.928 135.54 36.928 135.54 36.928 135.54 C 36.928 125.719 36.928 105.612 36.928 66.331 Z  M 72 35 C 35.993 35 7 63.993 7 100 C 7 136.007 35.993 165 72 165 C 108.007 165 137 136.007 137 100 C 137 63.993 108.007 35 72 35 Z " fill="rgb(245,128,37)"/></g></svg>