<?xml version="1.0" standalone="no"?><!-- Generator: Gravit.io --><svg xmlns="http://www.w3.org/2000/svg" xmlns:xlink="http://www.w3.org/1999/xlink" style="isolation:isolate" viewBox="0 0 145 200" width="145" height="200"><defs><clipPath id="_clipPath_9p1l82RaQrekmkOIJL4dMkpC2wOUHPJO"><rect width="145" height="200"/></clipPath></defs><g clip-path="url(#_clipPath_9p1l82RaQrekmkOIJL4dMkpC2wOUHPJO)"><rect width="145" height="200" style="fill:rgb(13,151,255)"/><path d=" M 93.014 56.181 C 93.686 56.081 94.352 55.948 95.01 55.781 C 94.381 55.911 93.693 56.051 93.014 56.181 Z " fill="rgb(255,255,255)"/><g opacity="0.48"><path d=" M 120.777 86.469 C 118.876 79.855 114.786 74.083 109.176 70.097 C 107.729 69.066 106.192 68.167 104.584 67.412 C 104.316 67.277 104.101 67.055 103.975 66.783 C 103.176 65.2 102.252 63.685 101.21 62.25 C 97.129 56.708 91.291 52.711 84.648 50.91 C 82.212 50.283 79.705 49.978 77.191 50.001 C 72.874 50.04 68.613 50.982 64.682 52.767 C 63.044 53.523 61.475 54.418 59.99 55.442 C 59.778 55.578 59.533 55.651 59.281 55.652 L 59.281 55.652 C 58.502 55.592 57.724 55.572 56.995 55.572 C 55.967 55.579 54.941 55.642 53.92 55.761 C 50.497 56.135 47.162 57.087 44.057 58.577 C 40.996 60.04 38.207 62.015 35.811 64.417 C 29.745 70.688 26.678 79.271 27.395 87.967 C 27.414 88.263 27.337 88.557 27.176 88.805 C 26.196 90.288 25.338 91.847 24.61 93.467 C 18.767 106.431 22.997 121.719 34.673 129.836 C 36.123 130.871 37.663 131.773 39.275 132.531 C 39.539 132.667 39.752 132.884 39.884 133.15 C 40.67 134.737 41.592 136.254 42.639 137.682 C 44.673 140.453 47.165 142.857 50.007 144.79 C 52.809 146.714 55.918 148.145 59.201 149.023 C 61.643 149.653 64.157 149.962 66.679 149.941 C 70.99 149.901 75.245 148.955 79.167 147.166 C 80.805 146.414 82.375 145.522 83.859 144.501 C 84.072 144.37 84.318 144.3 84.568 144.301 C 85.277 144.301 86.036 144.371 86.894 144.371 C 102.274 144.377 115.103 132.619 116.434 117.297 C 116.579 115.526 116.579 113.747 116.434 111.976 C 116.407 111.676 116.485 111.377 116.654 111.127 C 117.635 109.652 118.49 108.095 119.209 106.475 C 120.95 102.525 121.841 98.253 121.825 93.937 C 121.81 91.412 121.458 88.9 120.777 86.469 L 120.777 86.469 Z  M 69.614 55.662 C 72.072 54.902 74.628 54.505 77.201 54.484 C 79.335 54.462 81.463 54.72 83.53 55.252 C 88.105 56.482 92.251 58.952 95.509 62.39 C 95.831 62.73 95.921 63.227 95.739 63.658 C 95.553 64.085 95.136 64.365 94.671 64.377 C 94.612 64.388 94.551 64.388 94.491 64.377 C 93.383 64.214 92.266 64.108 91.147 64.057 C 90.458 64.057 89.709 63.997 88.841 64.057 C 86.404 64.084 83.973 64.311 81.573 64.736 L 81.413 64.736 C 81.146 64.729 80.888 64.638 80.675 64.477 C 78.201 62.403 75.494 60.624 72.608 59.176 C 71.61 58.678 70.587 58.232 69.544 57.838 C 69.075 57.667 68.775 57.208 68.805 56.71 C 68.823 56.223 69.148 55.802 69.614 55.662 Z  M 54.16 67.781 C 55.904 65.08 58.059 62.668 60.549 60.633 C 60.763 60.458 61.031 60.363 61.308 60.364 L 61.487 60.364 C 64.664 60.841 67.748 61.804 70.632 63.219 C 71.46 63.618 72.329 64.097 73.307 64.676 C 73.699 64.919 73.914 65.367 73.856 65.824 C 73.817 66.295 73.491 66.692 73.038 66.823 C 71.88 67.182 70.782 67.541 69.703 67.901 L 69.264 68.051 C 66.948 68.799 65.271 69.328 63.584 69.808 C 61.897 70.287 60.249 70.656 58.472 71.055 L 57.834 71.155 C 56.556 71.435 55.278 71.724 53.94 72.054 C 53.851 72.067 53.76 72.067 53.671 72.054 C 53.261 72.054 52.881 71.838 52.672 71.485 C 52.473 71.128 52.473 70.693 52.672 70.337 C 53.092 69.518 53.611 68.63 54.16 67.781 Z  M 36.739 110.279 C 36.234 113.41 36.08 116.587 36.28 119.753 C 36.35 120.751 36.48 121.899 36.66 123.067 C 36.735 123.421 36.643 123.789 36.41 124.065 C 36.183 124.318 35.861 124.466 35.521 124.475 C 35.225 124.482 34.937 124.37 34.723 124.165 C 27.505 117.693 24.718 107.61 27.585 98.349 C 27.729 97.872 28.157 97.538 28.654 97.513 C 29.152 97.488 29.611 97.779 29.801 98.239 C 30.211 99.238 30.68 100.306 31.179 101.294 C 32.633 104.117 34.397 106.769 36.44 109.201 C 36.694 109.498 36.803 109.893 36.739 110.279 L 36.739 110.279 Z  M 39.964 97.8 C 39.575 99.038 39.185 100.296 38.786 101.614 C 38.648 102.112 38.195 102.459 37.678 102.462 C 37.271 102.471 36.89 102.261 36.68 101.913 C 36.131 101.062 35.628 100.182 35.172 99.277 C 33.657 96.317 32.629 93.131 32.127 89.844 C 31.765 87.606 31.685 85.332 31.888 83.075 C 31.888 82.616 31.978 82.197 32.047 81.767 C 33.414 71.472 41.038 63.111 51.165 60.803 C 51.258 60.792 51.352 60.792 51.444 60.803 C 51.874 60.809 52.262 61.062 52.443 61.452 C 52.651 61.857 52.6 62.346 52.313 62.7 C 51.654 63.538 51.005 64.447 50.316 65.405 C 48.524 68.185 47.066 71.168 45.974 74.29 C 45.928 74.429 45.821 74.539 45.684 74.589 C 42.866 75.635 40.166 76.973 37.628 78.583 L 37.278 78.822 L 36.969 79.002 L 36.769 79.142 L 36.68 79.202 L 36.53 79.301 L 36.45 79.361 L 36.26 79.481 C 36.181 79.539 36.128 79.625 36.11 79.721 C 36.105 79.83 36.105 79.94 36.11 80.05 L 36.11 80.39 Q 36.11 80.729 36.041 81.068 Q 35.981 81.757 35.941 82.456 Q 35.901 83.155 35.941 83.884 C 35.941 84.013 35.941 84.143 35.941 84.263 C 35.94 84.45 36.044 84.622 36.21 84.709 C 36.376 84.795 36.577 84.781 36.729 84.672 C 37.328 84.253 37.937 83.844 38.556 83.424 L 38.816 83.135 C 39.026 82.975 39.235 82.825 39.455 82.686 L 39.804 82.456 C 40.473 82.007 41.222 81.558 42.05 81.098 C 42.556 80.847 43.168 80.97 43.538 81.398 C 43.756 81.681 43.84 82.046 43.767 82.396 C 43.488 83.554 43.258 84.672 43.029 85.75 L 42.909 86.3 C 42.54 88.176 42.12 90.173 41.621 92.09 C 41.122 94.006 40.623 95.624 40.054 97.441 L 39.964 97.8 Z  M 44.406 129.806 L 43.208 129.366 L 43.059 129.276 L 42.959 129.057 C 41.72 125.975 40.975 122.717 40.753 119.403 C 40.677 118.407 40.653 117.407 40.683 116.408 C 40.694 115.773 41.215 115.265 41.851 115.27 C 42.142 115.266 42.424 115.373 42.639 115.57 C 43.638 116.508 44.636 117.397 45.634 118.245 L 45.864 118.455 C 47.222 119.663 48.649 120.961 49.997 122.268 C 51.345 123.576 52.632 124.994 54.08 126.571 C 54.459 126.98 54.849 127.39 55.228 127.809 L 55.338 127.929 C 55.376 127.945 55.419 127.945 55.458 127.929 C 56.999 127.898 58.537 127.761 60.06 127.519 C 60.247 127.492 60.403 127.361 60.462 127.182 C 60.521 127.002 60.474 126.804 60.339 126.671 C 59.341 125.673 58.423 124.674 57.344 123.496 L 56.875 123.067 C 55.697 121.789 54.419 120.422 53.112 119.134 C 51.804 117.846 50.546 116.708 49.268 115.56 L 48.559 114.921 C 47.032 113.553 45.564 112.275 44.107 110.838 C 43.438 110.219 42.779 109.56 42.11 108.901 C 41.797 108.567 41.67 108.1 41.771 107.653 C 41.98 106.755 42.2 105.866 42.44 105.008 C 42.959 103.071 43.528 101.264 44.017 99.717 L 44.336 98.659 C 44.906 96.812 45.455 95.065 45.904 93.268 C 46.353 91.471 46.812 89.414 47.262 87.278 L 47.441 86.399 C 47.771 84.872 48.14 83.135 48.589 81.338 C 48.779 80.549 49.009 79.661 49.288 78.712 C 49.423 78.265 49.77 77.913 50.216 77.774 C 50.995 77.534 51.724 77.335 52.393 77.145 L 52.822 77.025 C 54.938 76.476 56.925 76.027 58.752 75.618 L 59.491 75.448 C 61.308 75.029 63.015 74.629 64.722 74.16 C 66.429 73.691 68.316 73.072 70.043 72.523 L 70.602 72.343 C 72.409 71.744 74.345 71.105 76.402 70.496 C 77.61 70.157 78.588 69.897 79.497 69.688 C 81.744 69.148 84.031 68.787 86.335 68.61 C 87.174 68.54 88.012 68.5 88.831 68.5 C 89.5 68.5 90.169 68.5 90.827 68.5 C 94.135 68.673 97.393 69.37 100.481 70.566 C 100.617 70.611 100.726 70.713 100.781 70.846 C 102.033 73.924 102.784 77.183 103.007 80.499 C 103.067 81.438 103.087 82.426 103.067 83.494 C 103.073 83.97 102.79 84.402 102.351 84.587 C 101.912 84.771 101.405 84.671 101.07 84.333 C 100.072 83.394 99.073 82.506 98.075 81.657 L 97.576 81.208 C 96.218 79.99 94.93 78.822 93.713 77.644 C 92.495 76.466 91.257 75.099 89.979 73.731 L 89.6 73.322 L 88.781 72.423 L 88.442 72.054 C 88.361 71.978 88.253 71.939 88.142 71.944 C 86.637 71.979 85.136 72.116 83.65 72.353 C 83.465 72.384 83.312 72.514 83.251 72.691 C 83.191 72.868 83.233 73.065 83.36 73.202 C 84.229 74.11 85.067 75.019 86.006 76.007 L 86.774 76.856 C 87.992 78.163 89.25 79.521 90.568 80.849 C 91.886 82.177 93.483 83.604 94.94 84.912 L 95.629 85.511 L 96.168 86.01 C 97.276 87.008 98.425 88.007 99.593 89.165 C 100.261 89.804 101.02 90.562 101.819 91.411 C 101.93 91.536 101.978 91.705 101.949 91.87 C 101.719 92.938 101.459 93.977 101.18 94.975 C 100.631 97.021 100.062 98.858 99.513 100.635 L 99.383 101.054 C 98.784 102.981 98.215 104.808 97.716 106.715 C 97.217 108.622 96.837 110.458 96.368 112.705 L 96.128 113.853 C 95.799 115.39 95.45 116.987 95.04 118.665 Q 94.711 120.042 94.202 121.749 C 94.147 121.906 94.021 122.028 93.862 122.079 C 92.754 122.428 91.716 122.728 90.867 122.967 C 88.751 123.526 86.754 123.966 84.957 124.385 L 84.668 124.445 C 82.801 124.874 80.864 125.313 78.958 125.832 C 77.051 126.351 75.134 126.99 73.247 127.569 L 73.187 127.569 L 72.249 127.879 C 70.662 128.398 69.025 128.937 67.258 129.446 L 67.138 129.446 C 66.439 129.656 65.371 129.955 64.143 130.235 C 61.897 130.767 59.615 131.128 57.314 131.313 C 56.486 131.383 55.637 131.423 54.819 131.423 C 54.15 131.423 53.461 131.423 52.822 131.423 L 51.554 131.333 L 50.436 131.203 L 50.097 131.203 L 49.328 131.053 C 49.265 131.059 49.201 131.059 49.138 131.053 C 48.839 131.053 48.539 130.944 48.26 130.874 C 47.701 130.774 47.142 130.644 46.603 130.504 C 46.064 130.365 45.195 130.055 44.396 129.806 L 44.406 129.806 Z  M 74.246 144.271 C 71.788 145.035 69.232 145.435 66.659 145.459 C 64.521 145.478 62.39 145.219 60.319 144.69 C 55.744 143.457 51.598 140.984 48.34 137.542 C 48.018 137.207 47.927 136.712 48.11 136.285 C 48.295 135.858 48.714 135.581 49.178 135.576 L 49.368 135.576 C 50.456 135.736 51.584 135.855 52.692 135.915 C 53.461 135.915 54.25 135.975 55.038 135.915 C 57.456 135.883 59.866 135.653 62.246 135.226 L 62.446 135.226 C 62.705 135.226 62.957 135.31 63.164 135.466 C 65.649 137.503 68.355 139.254 71.231 140.687 C 72.229 141.146 73.227 141.596 74.296 142.005 C 74.763 142.186 75.067 142.641 75.054 143.143 C 75.06 143.658 74.728 144.117 74.236 144.271 L 74.246 144.271 Z  M 89.689 132.162 C 87.951 134.861 85.798 137.27 83.31 139.299 C 83.106 139.479 82.844 139.579 82.571 139.579 L 82.382 139.579 C 79.2 139.118 76.11 138.158 73.227 136.734 C 72.289 136.275 71.391 135.736 70.552 135.276 C 70.161 135.03 69.948 134.58 70.006 134.122 C 70.064 133.664 70.382 133.281 70.821 133.14 C 71.82 132.83 72.818 132.521 73.816 132.142 L 74.645 131.882 C 76.642 131.233 78.449 130.634 80.305 130.105 C 81.943 129.656 83.62 129.267 85.387 128.877 L 86.096 128.707 C 87.353 128.428 88.631 128.138 89.959 127.819 C 90.052 127.809 90.146 127.809 90.238 127.819 C 90.65 127.814 91.031 128.032 91.237 128.388 C 91.432 128.742 91.432 129.172 91.237 129.526 C 90.748 130.445 90.218 131.333 89.679 132.162 L 89.689 132.162 Z  M 111.962 116.878 C 111.962 117.327 111.872 117.766 111.792 118.195 C 110.432 128.491 102.81 136.853 92.684 139.16 C 92.595 139.17 92.504 139.17 92.415 139.16 C 91.965 139.157 91.556 138.898 91.361 138.493 C 91.165 138.088 91.218 137.606 91.496 137.253 C 92.175 136.404 92.824 135.496 93.443 134.548 C 95.157 131.869 96.57 129.01 97.656 126.022 C 97.798 125.655 98.088 125.365 98.454 125.223 C 101.187 124.189 103.804 122.871 106.261 121.29 L 106.611 121.06 L 106.98 120.821 L 107.18 120.681 L 107.27 120.621 L 107.499 120.461 L 107.719 120.312 C 107.747 120.294 107.771 120.27 107.789 120.242 C 107.813 120.16 107.833 120.077 107.849 119.992 C 108.041 118.536 108.131 117.068 108.118 115.6 C 108.119 115.412 108.015 115.24 107.849 115.154 C 107.683 115.068 107.482 115.082 107.329 115.19 C 106.331 115.859 105.413 116.498 104.334 117.187 C 103.566 117.706 102.687 118.245 101.729 118.774 C 101.562 118.871 101.373 118.923 101.18 118.924 C 100.816 118.932 100.469 118.77 100.241 118.485 C 100.023 118.201 99.939 117.837 100.012 117.487 C 100.261 116.488 100.461 115.49 100.661 114.492 L 100.87 113.573 C 101.21 111.836 101.639 109.78 102.158 107.763 C 102.627 105.976 103.156 104.169 103.736 102.422 L 103.835 102.103 C 104.225 100.865 104.604 99.597 104.993 98.269 C 105.14 97.769 105.6 97.427 106.121 97.431 C 106.522 97.437 106.895 97.638 107.12 97.97 C 107.719 98.968 108.208 99.797 108.617 100.615 C 110.153 103.587 111.201 106.785 111.722 110.089 C 112.09 112.333 112.171 114.614 111.962 116.878 L 111.962 116.878 Z  M 116.274 101.624 C 116.131 102.101 115.701 102.434 115.203 102.455 C 114.705 102.475 114.25 102.177 114.068 101.713 C 113.659 100.715 113.189 99.657 112.69 98.718 C 111.226 95.894 109.455 93.239 107.409 90.802 C 107.161 90.501 107.056 90.108 107.12 89.724 C 107.627 86.593 107.785 83.415 107.589 80.25 C 107.489 79.072 107.369 77.944 107.2 76.925 C 107.144 76.594 107.235 76.256 107.449 75.997 C 107.677 75.733 108.008 75.58 108.358 75.578 C 108.649 75.572 108.932 75.679 109.146 75.877 C 116.317 82.349 119.096 92.385 116.274 101.624 Z " fill="rgb(255,255,255)"/></g><path d=" M 120.826 86.529 C 118.913 79.908 114.805 74.134 109.176 70.157 C 107.729 69.126 106.192 68.227 104.584 67.472 C 104.316 67.337 104.101 67.115 103.975 66.843 C 103.176 65.26 102.252 63.744 101.21 62.31 C 97.129 56.768 91.291 52.771 84.648 50.97 C 82.212 50.343 79.705 50.038 77.191 50.061 C 72.874 50.1 68.613 51.042 64.682 52.826 C 63.044 53.583 61.475 54.478 59.99 55.502 C 59.778 55.638 59.533 55.711 59.281 55.712 L 59.281 55.712 C 58.502 55.652 57.724 55.632 56.995 55.632 C 55.967 55.639 54.941 55.702 53.92 55.821 C 50.5 56.196 47.169 57.148 44.067 58.637 C 41.006 60.1 38.217 62.075 35.821 64.477 C 29.751 70.746 26.68 79.329 27.395 88.027 C 27.414 88.322 27.337 88.617 27.176 88.865 C 26.196 90.347 25.338 91.907 24.61 93.527 C 18.767 106.491 22.997 121.779 34.673 129.895 C 36.123 130.931 37.663 131.833 39.275 132.591 C 39.539 132.727 39.752 132.944 39.884 133.21 C 40.67 134.797 41.592 136.314 42.639 137.742 C 44.673 140.513 47.165 142.917 50.007 144.85 C 52.809 146.774 55.918 148.205 59.201 149.083 C 61.643 149.713 64.157 150.021 66.679 150.001 C 70.99 149.961 75.245 149.015 79.167 147.226 C 80.805 146.474 82.375 145.582 83.859 144.561 C 84.072 144.429 84.318 144.36 84.568 144.361 C 85.277 144.361 86.036 144.431 86.894 144.431 C 102.274 144.437 115.103 132.678 116.434 117.357 C 116.579 115.586 116.579 113.806 116.434 112.036 C 116.407 111.736 116.485 111.436 116.654 111.187 C 117.635 109.712 118.49 108.155 119.209 106.535 C 120.95 102.585 121.841 98.313 121.825 93.996 C 121.826 91.474 121.491 88.963 120.826 86.529 L 120.826 86.529 Z  M 69.614 55.722 C 72.072 54.962 74.628 54.565 77.201 54.544 C 79.335 54.522 81.463 54.78 83.53 55.312 C 88.105 56.542 92.251 59.012 95.509 62.45 C 95.831 62.79 95.921 63.287 95.739 63.718 C 95.553 64.145 95.136 64.425 94.671 64.437 C 94.612 64.448 94.551 64.448 94.491 64.437 C 93.383 64.274 92.266 64.168 91.147 64.117 C 90.458 64.117 89.709 64.057 88.841 64.117 C 86.404 64.144 83.973 64.371 81.573 64.796 L 81.413 64.796 C 81.146 64.789 80.888 64.698 80.675 64.537 C 78.199 62.498 75.495 60.753 72.618 59.335 C 71.62 58.838 70.597 58.392 69.554 57.998 C 69.085 57.826 68.785 57.368 68.815 56.87 C 68.787 56.349 69.116 55.876 69.614 55.722 Z  M 54.16 67.841 C 55.904 65.14 58.059 62.728 60.549 60.693 C 60.763 60.518 61.031 60.423 61.308 60.424 L 61.487 60.424 C 64.664 60.901 67.748 61.864 70.632 63.279 C 71.46 63.678 72.329 64.157 73.307 64.736 C 73.699 64.979 73.914 65.427 73.856 65.884 C 73.817 66.355 73.491 66.752 73.038 66.883 C 71.88 67.242 70.782 67.601 69.703 67.961 L 69.264 68.11 C 66.948 68.859 65.271 69.388 63.584 69.867 C 61.897 70.347 60.249 70.716 58.472 71.115 L 57.834 71.265 C 56.556 71.545 55.278 71.834 53.94 72.164 C 53.851 72.177 53.76 72.177 53.671 72.164 C 53.261 72.164 52.881 71.948 52.672 71.595 C 52.473 71.238 52.473 70.803 52.672 70.447 C 53.092 69.578 53.611 68.689 54.16 67.841 Z  M 36.739 110.339 C 36.234 113.47 36.08 116.647 36.28 119.813 C 36.35 120.811 36.48 121.959 36.66 123.127 C 36.735 123.48 36.643 123.849 36.41 124.125 C 36.183 124.378 35.861 124.526 35.521 124.535 C 35.225 124.541 34.937 124.43 34.723 124.225 C 27.505 117.752 24.718 107.67 27.585 98.409 C 27.729 97.932 28.157 97.598 28.654 97.573 C 29.152 97.548 29.611 97.839 29.801 98.299 C 30.211 99.297 30.68 100.366 31.179 101.354 C 32.633 104.177 34.397 106.829 36.44 109.261 C 36.694 109.558 36.803 109.953 36.739 110.339 L 36.739 110.339 Z  M 39.964 97.86 C 39.575 99.098 39.185 100.356 38.786 101.673 C 38.648 102.172 38.195 102.518 37.678 102.522 C 37.271 102.531 36.89 102.321 36.68 101.973 C 36.131 101.121 35.628 100.242 35.172 99.337 C 33.674 96.374 32.663 93.188 32.177 89.903 C 31.795 87.669 31.695 85.395 31.878 83.135 C 31.878 82.676 31.968 82.256 32.037 81.827 C 33.404 71.531 41.028 63.171 51.155 60.863 C 51.248 60.852 51.342 60.852 51.434 60.863 C 51.864 60.869 52.252 61.121 52.433 61.512 C 52.641 61.917 52.59 62.406 52.303 62.76 C 51.644 63.598 50.995 64.507 50.306 65.465 C 48.514 68.245 47.056 71.228 45.964 74.35 C 45.918 74.489 45.811 74.599 45.674 74.649 C 42.856 75.695 40.156 77.033 37.618 78.643 C 37.169 78.932 36.739 79.232 36.3 79.531 C 36.055 79.687 35.923 79.972 35.961 80.26 C 35.961 80.569 35.911 80.879 35.881 81.188 C 35.851 81.498 35.811 82.117 35.791 82.576 C 35.771 83.035 35.791 83.574 35.791 83.993 L 35.791 84.383 C 35.79 84.57 35.894 84.742 36.06 84.829 C 36.226 84.915 36.427 84.901 36.58 84.792 C 37.179 84.373 37.788 83.964 38.407 83.544 L 38.766 83.295 C 38.976 83.135 39.185 82.985 39.405 82.845 L 39.754 82.616 C 40.423 82.167 41.172 81.717 42 81.258 C 42.507 81.007 43.119 81.13 43.488 81.558 C 43.706 81.841 43.79 82.206 43.718 82.556 C 43.438 83.714 43.208 84.832 42.979 85.91 L 42.959 86.389 C 42.589 88.266 42.17 90.263 41.671 92.18 C 41.172 94.096 40.673 95.714 40.104 97.53 L 39.964 97.86 Z  M 44.406 129.865 L 43.208 129.426 L 43.059 129.336 L 42.959 129.167 C 41.72 126.085 40.975 122.827 40.753 119.513 C 40.677 118.517 40.653 117.517 40.683 116.518 C 40.694 115.883 41.215 115.375 41.851 115.38 C 42.142 115.376 42.424 115.483 42.639 115.68 C 43.638 116.618 44.636 117.506 45.634 118.355 L 45.864 118.565 C 47.222 119.773 48.649 121.07 49.997 122.378 C 51.345 123.686 52.632 125.104 54.08 126.681 C 54.459 127.09 54.849 127.5 55.228 127.919 L 55.338 128.039 C 55.375 128.06 55.421 128.06 55.458 128.039 C 56.999 128.007 58.537 127.871 60.06 127.629 C 60.247 127.602 60.403 127.471 60.462 127.291 C 60.521 127.112 60.474 126.914 60.339 126.781 C 59.341 125.782 58.423 124.784 57.344 123.606 L 56.875 123.067 C 55.697 121.789 54.419 120.422 53.112 119.134 C 51.804 117.846 50.546 116.708 49.268 115.56 L 48.559 114.921 C 47.032 113.553 45.564 112.275 44.107 110.838 C 43.438 110.219 42.779 109.56 42.11 108.901 C 41.797 108.567 41.67 108.1 41.771 107.653 C 41.98 106.755 42.2 105.866 42.44 105.008 C 42.959 103.071 43.528 101.264 44.017 99.717 L 44.336 98.659 C 44.955 96.832 45.505 95.115 45.954 93.288 C 46.403 91.461 46.862 89.434 47.311 87.298 L 47.491 86.419 C 47.821 84.892 48.19 83.155 48.639 81.358 C 48.829 80.569 49.058 79.681 49.338 78.732 C 49.473 78.285 49.82 77.933 50.266 77.794 C 51.045 77.544 51.774 77.345 52.443 77.145 L 52.872 77.025 C 54.988 76.476 56.975 76.027 58.802 75.618 L 59.541 75.448 C 61.358 75.029 63.065 74.629 64.772 74.16 C 66.479 73.691 68.366 73.072 70.093 72.523 L 70.652 72.343 C 72.459 71.744 74.395 71.105 76.452 70.496 C 77.66 70.157 78.638 69.897 79.547 69.688 C 81.794 69.148 84.081 68.787 86.385 68.61 C 87.224 68.54 88.062 68.5 88.881 68.5 C 89.55 68.5 90.218 68.5 90.877 68.5 C 94.184 68.673 97.443 69.37 100.531 70.566 C 100.667 70.611 100.776 70.713 100.83 70.846 C 102.083 73.924 102.835 77.183 103.057 80.499 C 103.117 81.438 103.137 82.426 103.117 83.494 C 103.123 83.97 102.84 84.402 102.401 84.587 C 101.962 84.771 101.455 84.671 101.12 84.333 C 100.122 83.394 99.123 82.506 98.125 81.657 L 97.626 81.208 C 96.268 79.99 94.98 78.822 93.762 77.644 C 92.545 76.466 91.307 75.099 90.029 73.731 L 89.649 73.322 L 88.831 72.423 L 88.611 72.154 C 88.53 72.078 88.422 72.038 88.312 72.044 C 86.807 72.079 85.306 72.216 83.819 72.453 C 83.635 72.484 83.482 72.614 83.421 72.791 C 83.361 72.968 83.402 73.164 83.53 73.302 C 84.398 74.21 85.237 75.119 86.175 76.107 L 86.944 76.955 C 88.162 78.263 89.42 79.621 90.738 80.949 C 92.055 82.276 93.653 83.704 95.11 85.012 L 95.799 85.611 L 96.338 86.11 C 97.446 87.108 98.594 88.106 99.762 89.265 C 100.431 89.903 101.19 90.662 101.988 91.511 C 102.099 91.636 102.147 91.805 102.118 91.97 C 101.889 93.038 101.629 94.076 101.35 95.075 C 100.801 97.071 100.231 98.958 99.682 100.735 L 99.553 101.154 C 98.954 103.081 98.385 104.908 97.885 106.815 C 97.386 108.721 97.007 110.558 96.538 112.804 L 96.298 113.953 C 95.969 115.49 95.619 117.087 95.21 118.764 Q 94.881 120.142 94.371 121.849 C 94.316 122.006 94.191 122.128 94.032 122.179 C 92.924 122.528 91.886 122.827 91.037 123.067 C 88.921 123.626 86.924 124.065 85.127 124.485 L 84.838 124.545 C 82.971 124.974 81.034 125.413 79.127 125.932 C 77.221 126.451 75.304 127.09 73.417 127.669 L 73.357 127.719 L 72.419 128.029 C 70.831 128.548 69.194 129.087 67.427 129.596 L 67.307 129.596 C 66.609 129.806 65.54 130.105 64.313 130.385 C 62.067 130.917 59.784 131.278 57.484 131.463 C 56.656 131.533 55.807 131.573 54.988 131.573 C 54.17 131.573 53.631 131.573 52.992 131.573 L 51.724 131.483 L 50.606 131.353 L 50.266 131.303 L 49.328 131.053 C 49.265 131.059 49.201 131.059 49.138 131.053 C 48.839 131.053 48.539 130.944 48.26 130.874 C 47.701 130.774 47.142 130.644 46.603 130.504 C 45.954 130.355 45.195 130.135 44.396 129.865 L 44.406 129.865 Z  M 74.246 144.331 C 71.788 145.095 69.232 145.495 66.659 145.519 C 64.521 145.538 62.39 145.279 60.319 144.75 C 55.744 143.517 51.598 141.044 48.34 137.602 C 48.018 137.267 47.927 136.772 48.11 136.344 C 48.295 135.918 48.714 135.641 49.178 135.636 L 49.368 135.636 C 50.456 135.795 51.584 135.915 52.692 135.975 C 53.461 135.975 54.25 136.035 55.038 136.025 C 57.456 135.993 59.866 135.763 62.246 135.336 L 62.446 135.336 C 62.705 135.336 62.957 135.42 63.164 135.576 C 65.649 137.613 68.355 139.364 71.231 140.797 C 72.229 141.256 73.227 141.705 74.296 142.115 C 74.763 142.296 75.067 142.751 75.054 143.253 C 75.039 143.75 74.71 144.182 74.236 144.331 L 74.246 144.331 Z  M 89.689 132.221 C 87.951 134.921 85.798 137.33 83.31 139.359 C 83.106 139.539 82.844 139.639 82.571 139.639 L 82.382 139.639 C 79.2 139.178 76.11 138.218 73.227 136.794 C 72.289 136.334 71.391 135.795 70.552 135.336 C 70.161 135.09 69.948 134.64 70.006 134.182 C 70.064 133.724 70.382 133.341 70.821 133.2 C 71.82 132.89 72.818 132.581 73.816 132.251 L 74.645 131.992 C 76.642 131.343 78.449 130.744 80.305 130.215 C 81.943 129.766 83.62 129.376 85.387 128.987 L 86.096 128.817 C 87.353 128.538 88.631 128.248 89.959 127.929 C 90.052 127.919 90.146 127.919 90.238 127.929 C 90.65 127.924 91.031 128.142 91.237 128.498 C 91.432 128.852 91.432 129.282 91.237 129.636 C 90.748 130.504 90.218 131.393 89.679 132.221 L 89.689 132.221 Z  M 107.849 120.312 C 107.857 120.232 107.857 120.152 107.849 120.072 C 108.041 118.616 108.131 117.148 108.118 115.68 C 108.119 115.492 108.015 115.32 107.849 115.234 C 107.683 115.148 107.482 115.162 107.329 115.27 C 106.331 115.939 105.413 116.578 104.334 117.267 C 103.566 117.786 102.687 118.325 101.729 118.854 C 101.562 118.951 101.373 119.003 101.18 119.004 C 100.816 119.012 100.469 118.849 100.241 118.565 C 100.023 118.281 99.939 117.917 100.012 117.566 C 100.261 116.568 100.461 115.57 100.661 114.571 L 100.87 113.653 C 101.21 111.916 101.639 109.859 102.158 107.843 C 102.627 106.056 103.156 104.249 103.736 102.502 L 103.835 102.183 C 104.225 100.945 104.604 99.677 104.993 98.349 C 105.14 97.849 105.6 97.507 106.121 97.51 C 106.522 97.516 106.895 97.718 107.12 98.05 C 107.719 99.048 108.208 99.876 108.617 100.695 C 110.111 103.661 111.122 106.845 111.612 110.129 C 111.979 112.366 112.059 114.64 111.852 116.898 C 111.852 117.347 111.762 117.786 111.682 118.215 C 110.322 128.511 102.7 136.873 92.574 139.18 C 92.485 139.19 92.394 139.19 92.305 139.18 C 91.874 139.169 91.486 138.913 91.307 138.521 C 91.096 138.116 91.147 137.625 91.436 137.273 C 92.115 136.424 92.764 135.516 93.433 134.567 C 95.147 131.889 96.56 129.03 97.646 126.042 C 97.788 125.675 98.078 125.385 98.445 125.243 C 101.177 124.209 103.794 122.891 106.251 121.31 L 107.439 120.521 C 107.564 120.464 107.675 120.382 107.769 120.282 L 107.849 120.312 Z  M 116.314 101.683 C 116.171 102.16 115.741 102.494 115.243 102.514 C 114.745 102.535 114.29 102.237 114.108 101.773 C 113.699 100.775 113.229 99.717 112.73 98.778 C 111.266 95.954 109.495 93.299 107.449 90.862 C 107.201 90.561 107.096 90.168 107.16 89.784 C 107.667 86.653 107.825 83.475 107.629 80.31 C 107.529 79.132 107.409 78.004 107.24 76.985 C 107.184 76.654 107.275 76.316 107.489 76.057 C 107.717 75.792 108.048 75.64 108.398 75.638 C 108.689 75.632 108.972 75.739 109.186 75.937 C 116.343 82.418 119.106 92.453 116.274 101.683 L 116.314 101.683 Z " fill="rgb(255,255,255)"/><path d=" M 39.804 82.496 L 39.575 82.656 L 38.816 83.135 C 39.026 82.975 39.235 82.825 39.455 82.686 L 39.804 82.496 Z " fill="rgb(255,255,255)"/></g></svg>