<?xml version="1.0" standalone="no"?><!-- Generator: Gravit.io --><svg xmlns="http://www.w3.org/2000/svg" xmlns:xlink="http://www.w3.org/1999/xlink" style="isolation:isolate" viewBox="0 0 145 200" width="145" height="200"><defs><clipPath id="_clipPath_yh4nUZ5MswEdPxiEqgoJxStbqqlE0AQe"><rect width="145" height="200"/></clipPath></defs><g clip-path="url(#_clipPath_yh4nUZ5MswEdPxiEqgoJxStbqqlE0AQe)"><rect width="145" height="200" style="fill:rgb(2,120,86)"/><path d=" M 97.473 88.513 L 100.315 88.513 C 100.315 88.513 100.294 78.373 109.559 78.373 C 109.559 78.373 111.902 78.373 112.38 78.373 C 112.38 78.852 112.38 120.045 112.38 120.045 L 107.946 120.045 C 105.114 119.764 102.751 117.942 100.471 115.777 L 97.14 112.56 C 97.869 111.581 98.837 110.082 99.514 108.521 C 100.284 106.751 100.846 103.43 101.19 102.618 C 101.304 102.348 101.429 102.098 101.585 101.848 C 102.022 101.151 102.762 100.568 103.511 100.245 C 104.084 99.995 104.781 99.828 105.416 99.828 L 105.843 99.828 L 105.843 97.424 L 91.946 97.424 L 91.946 99.828 L 92.882 99.828 C 95.412 99.839 97.473 101.89 97.473 104.461 C 97.473 107.771 94.996 110.488 94.996 110.488 L 82.295 98.152 C 87.969 96.091 92.737 93.26 92.737 87.93 C 92.737 82.319 88.458 78.373 80.734 78.373 C 72.895 78.373 67.68 82.704 67.68 89.71 C 67.68 94.322 69.793 97.32 71.844 99.381 C 65.4 101.879 61.569 105.158 61.569 111.165 C 61.569 119.607 69.179 123.001 77.632 123.001 C 83.191 123.001 87.854 121.336 91.467 118.671 C 91.519 118.629 93.871 122.449 100.804 122.449 C 101.304 122.449 127.173 122.429 127.173 122.429 L 127.173 120.045 L 122.093 120.045 C 122.093 120.045 122.093 78.8 122.093 78.373 C 122.572 78.373 124.914 78.373 124.914 78.373 C 134.148 78.373 134.158 88.513 134.158 88.513 L 137 88.513 L 137 76.01 L 97.473 76.01 L 97.473 88.513 Z " fill="rgb(255,255,255)"/><path d=" M 80.463 80.737 C 83.524 80.737 85.408 83.193 85.408 86.691 C 85.408 90.584 83.68 93.926 79.964 95.925 C 77.569 93.593 75.519 90.407 75.519 86.577 C 75.508 83.141 77.403 80.737 80.463 80.737 Z " fill="rgb(2,120,86)"/><path d=" M 80.182 118.952 C 74.686 118.952 70.574 114.881 70.574 109.437 C 70.574 105.606 71.459 103.274 74.02 101.609 L 89.353 116.661 C 86.845 118.379 83.628 118.952 80.182 118.952 Z " fill="rgb(2,120,86)"/><path d=" M 56.864 78.373 L 62.36 78.373 L 62.36 76 L 47.547 76 C 47.547 76 35.294 106.605 34.899 107.594 C 34.503 106.595 22.188 76 22.188 76 L 7 76 L 7 78.384 L 12.496 78.384 L 12.486 120.034 L 7.937 120.034 L 7.937 122.408 L 21.345 122.408 L 21.345 120.034 L 15.401 120.034 C 15.401 120.034 15.401 85.275 15.401 83.683 C 16.098 85.442 30.339 121.346 30.339 121.346 L 32.744 121.346 C 32.744 121.346 46.787 85.452 47.484 83.683 C 47.484 85.629 47.464 120.045 47.464 120.045 L 42.79 120.045 L 42.79 122.408 L 61.559 122.408 L 61.559 120.045 L 56.864 120.045 L 56.864 78.373 L 56.864 78.373 Z " fill="rgb(255,255,255)"/></g></svg>