<?xml version="1.0" standalone="no"?><!-- Generator: Gravit.io --><svg xmlns="http://www.w3.org/2000/svg" xmlns:xlink="http://www.w3.org/1999/xlink" style="isolation:isolate" viewBox="0 0 145 200" width="145" height="200"><defs><clipPath id="_clipPath_sFFZN9TX3pV18cPkRkvlE9CC5yh5iJhu"><rect width="145" height="200"/></clipPath></defs><g clip-path="url(#_clipPath_sFFZN9TX3pV18cPkRkvlE9CC5yh5iJhu)"><rect width="145" height="200" style="fill:rgb(1,111,208)"/><path d=" M 0 27 L 145.637 27 L 145.637 105.619 L 138.429 116.883 L 145.637 126.908 L 145.637 172.637 L 0 172.637 L 0 98.523 L 4.505 93.342 L 0 88.386 L 0 27 Z " fill="rgb(1,111,208)"/><path d=" M 28.271 128.484 L 28.271 105.619 L 52.481 105.619 L 55.079 109.006 L 57.762 105.619 L 145.637 105.619 L 145.637 126.908 C 145.637 126.908 143.339 128.462 140.681 128.484 L 92.023 128.484 L 89.095 124.88 L 89.095 128.484 L 79.498 128.484 L 79.498 122.332 C 79.498 122.332 78.187 123.191 75.353 123.191 L 72.087 123.191 L 72.087 128.484 L 57.557 128.484 L 54.963 125.026 L 52.329 128.484 L 28.271 128.484 Z " fill="rgb(255,255,255)"/><path d=" M 0 88.386 L 5.459 75.658 L 14.901 75.658 L 17.999 82.788 L 17.999 75.658 L 29.736 75.658 L 31.58 80.812 L 33.368 75.658 L 86.053 75.658 L 86.053 78.249 C 86.053 78.249 88.823 75.658 93.375 75.658 L 110.469 75.718 L 113.514 82.754 L 113.514 75.658 L 123.336 75.658 L 126.039 79.7 L 126.039 75.658 L 135.951 75.658 L 135.951 98.523 L 126.039 98.523 L 123.448 94.469 L 123.448 98.523 L 109.018 98.523 L 107.567 94.919 L 103.687 94.919 L 102.26 98.523 L 92.474 98.523 C 88.557 98.523 86.053 95.986 86.053 95.986 L 86.053 98.523 L 71.298 98.523 L 68.37 94.919 L 68.37 98.523 L 13.502 98.523 L 12.052 94.919 L 8.185 94.919 L 6.745 98.523 L 0 98.523 L 0 88.386 Z " fill="rgb(255,255,255)"/><path d=" M 7.392 78.477 L 0.028 95.598 L 4.822 95.598 L 6.181 92.169 L 14.079 92.169 L 15.431 95.598 L 20.331 95.598 L 12.974 78.477 L 7.392 78.477 Z  M 10.116 82.462 L 12.524 88.452 L 7.701 88.452 L 10.116 82.462 L 10.116 82.462 Z " fill="rgb(1,111,208)"/><path d=" M 20.838 95.595 L 20.838 78.474 L 27.65 78.5 L 31.613 89.538 L 35.48 78.474 L 42.238 78.474 L 42.238 95.595 L 37.958 95.595 L 37.958 82.98 L 33.421 95.595 L 29.667 95.595 L 25.118 82.98 L 25.118 95.595 L 20.838 95.595 Z " fill="rgb(1,111,208)"/><path d=" M 45.167 95.595 L 45.167 78.474 L 59.134 78.474 L 59.134 82.304 L 49.492 82.304 L 49.492 85.232 L 58.908 85.232 L 58.908 88.837 L 49.492 88.837 L 49.492 91.878 L 59.134 91.878 L 59.134 95.595 L 45.167 95.595 Z " fill="rgb(1,111,208)"/><path d=" M 61.612 78.477 L 61.612 95.598 L 65.892 95.598 L 65.892 89.515 L 67.694 89.515 L 72.826 95.598 L 78.056 95.598 L 72.425 89.29 C 74.736 89.095 77.12 87.111 77.12 84.032 C 77.12 80.429 74.292 78.477 71.136 78.477 L 61.612 78.477 L 61.612 78.477 Z  M 65.892 82.307 L 70.784 82.307 C 71.958 82.307 72.812 83.225 72.812 84.109 C 72.812 85.246 71.705 85.911 70.848 85.911 L 65.892 85.911 L 65.892 82.307 L 65.892 82.307 Z " fill="rgb(1,111,208)"/><path d=" M 83.237 95.595 L 78.867 95.595 L 78.867 78.474 L 83.237 78.474 L 83.237 95.595 Z " fill="rgb(1,111,208)"/><path d=" M 93.6 95.595 L 92.657 95.595 C 88.092 95.595 85.321 91.999 85.321 87.105 C 85.321 82.09 88.061 78.474 93.825 78.474 L 98.556 78.474 L 98.556 82.529 L 93.652 82.529 C 91.312 82.529 89.658 84.355 89.658 87.147 C 89.658 90.463 91.55 91.855 94.276 91.855 L 95.402 91.855 L 93.6 95.595 Z " fill="rgb(1,111,208)"/><path d=" M 102.913 78.477 L 95.55 95.598 L 100.344 95.598 L 101.703 92.169 L 109.601 92.169 L 110.953 95.598 L 115.852 95.598 L 108.496 78.477 L 102.913 78.477 Z  M 105.638 82.462 L 108.045 88.452 L 103.223 88.452 L 105.638 82.462 Z " fill="rgb(1,111,208)"/><path d=" M 116.352 95.595 L 116.352 78.474 L 121.794 78.474 L 128.742 89.231 L 128.742 78.474 L 133.022 78.474 L 133.022 95.595 L 127.757 95.595 L 120.632 84.557 L 120.632 95.595 L 116.352 95.595 Z " fill="rgb(1,111,208)"/><path d=" M 31.2 125.556 L 31.2 108.435 L 45.167 108.435 L 45.167 112.265 L 35.525 112.265 L 35.525 115.193 L 44.941 115.193 L 44.941 118.798 L 35.525 118.798 L 35.525 121.839 L 45.167 121.839 L 45.167 125.556 L 31.2 125.556 Z " fill="rgb(1,111,208)"/><path d=" M 99.637 125.556 L 99.637 108.435 L 113.604 108.435 L 113.604 112.265 L 103.962 112.265 L 103.962 115.193 L 113.334 115.193 L 113.334 118.798 L 103.962 118.798 L 103.962 121.839 L 113.604 121.839 L 113.604 125.556 L 99.637 125.556 Z " fill="rgb(1,111,208)"/><path d=" M 45.709 125.556 L 52.509 117.101 L 45.547 108.435 L 50.939 108.435 L 55.086 113.793 L 59.246 108.435 L 64.427 108.435 L 57.557 116.996 L 64.37 125.556 L 58.978 125.556 L 54.952 120.283 L 51.024 125.556 L 45.709 125.556 Z " fill="rgb(1,111,208)"/><path d=" M 64.878 108.438 L 64.878 125.559 L 69.271 125.559 L 69.271 120.152 L 73.776 120.152 C 77.588 120.152 80.478 118.13 80.478 114.197 C 80.478 110.938 78.212 108.438 74.332 108.438 L 64.878 108.438 L 64.878 108.438 Z  M 69.271 112.31 L 74.015 112.31 C 75.247 112.31 76.127 113.065 76.127 114.281 C 76.127 115.424 75.251 116.252 74.001 116.252 L 69.271 116.252 L 69.271 112.31 Z " fill="rgb(1,111,208)"/><path d=" M 82.336 108.435 L 82.336 125.556 L 86.617 125.556 L 86.617 119.474 L 88.419 119.474 L 93.551 125.556 L 98.781 125.556 L 93.149 119.248 C 95.461 119.053 97.845 117.07 97.845 113.99 C 97.845 110.387 95.017 108.435 91.861 108.435 L 82.336 108.435 L 82.336 108.435 Z  M 86.617 112.265 L 91.509 112.265 C 92.683 112.265 93.537 113.183 93.537 114.067 C 93.537 115.205 92.43 115.869 91.573 115.869 L 86.617 115.869 L 86.617 112.265 L 86.617 112.265 Z " fill="rgb(1,111,208)"/><path d=" M 115.586 125.556 L 115.586 121.839 L 124.152 121.839 C 125.42 121.839 125.969 121.154 125.969 120.403 C 125.969 119.683 125.421 118.955 124.152 118.955 L 120.281 118.955 C 116.917 118.955 115.043 116.906 115.043 113.828 C 115.043 111.083 116.759 108.435 121.759 108.435 L 130.094 108.435 L 128.292 112.287 L 121.083 112.287 C 119.705 112.287 119.281 113.011 119.281 113.701 C 119.281 114.411 119.805 115.193 120.858 115.193 L 124.913 115.193 C 128.663 115.193 130.291 117.321 130.291 120.107 C 130.291 123.103 128.477 125.556 124.708 125.556 L 115.586 125.556 Z " fill="rgb(1,111,208)"/><path d=" M 131.295 125.556 L 131.295 121.839 L 139.861 121.839 C 141.129 121.839 141.678 121.154 141.678 120.403 C 141.678 119.683 141.131 118.955 139.861 118.955 L 135.991 118.955 C 132.626 118.955 130.752 116.906 130.752 113.828 C 130.752 111.083 132.468 108.435 137.468 108.435 L 145.803 108.435 L 144.001 112.287 L 136.792 112.287 C 135.414 112.287 134.99 113.011 134.99 113.701 C 134.99 114.411 135.514 115.193 136.567 115.193 L 140.622 115.193 C 144.372 115.193 146 117.321 146 120.107 C 146 123.103 144.186 125.556 140.417 125.556 L 131.295 125.556 Z " fill="rgb(1,111,208)"/></g></svg>