<?xml version="1.0" standalone="no"?><!-- Generator: Gravit.io --><svg xmlns="http://www.w3.org/2000/svg" xmlns:xlink="http://www.w3.org/1999/xlink" style="isolation:isolate" viewBox="0 0 145 200" width="145" height="200"><defs><clipPath id="_clipPath_pyXlN6QxvqV6PdaHB5CHnrHVDbzC91c2"><rect width="145" height="200"/></clipPath></defs><g clip-path="url(#_clipPath_pyXlN6QxvqV6PdaHB5CHnrHVDbzC91c2)"><rect width="145" height="200" style="fill:rgb(138,0,37)"/><path d=" M 102.621 79.167 L 102.621 89.368 L 103.706 89.368 C 104.141 84.203 107.143 81.014 110.18 81.014 L 115.28 81.029 L 115.28 114.823 C 115.531 117.685 112.979 118.747 109.866 118.726 L 109.877 119.799 L 130.092 119.799 L 130.087 118.716 C 126.881 118.355 124.244 118.437 124.279 115.372 L 124.289 81.029 L 129.019 81.029 C 132.056 81.029 135.818 83.643 135.818 89.368 L 137 89.368 L 137 79.167 L 102.621 79.167 L 102.621 79.167 Z  M 87.588 85.2 C 87.571 83.643 88.775 81.838 90.886 81.838 C 94.531 81.838 95.215 85.676 94.309 87.563 C 92.774 90.761 90.578 91.549 90.512 91.423 C 89.27 89.368 87.61 87.105 87.588 85.2 Z  M 81.925 108.785 C 79.129 103.486 81.198 99.7 83.917 97.397 C 83.917 97.397 89.27 108.226 94.868 113.825 C 92.69 115.756 86.095 116.688 81.925 108.785 L 81.925 108.785 Z  M 53.543 99.761 L 55.787 99.761 C 61.636 99.264 63.754 103.496 64.063 107.907 C 64.439 113.221 62.311 117.804 56.94 117.804 C 54.535 117.804 53.546 116.935 53.546 114.223 L 53.543 99.761 L 53.543 99.761 Z  M 73.212 112.706 C 74.868 116.088 79.014 121.119 85.908 121.232 C 89.702 121.294 93.231 120.28 97.42 116.316 C 98.913 117.622 101.031 119.799 104.266 119.986 C 105.176 120.04 107.963 119.511 110.24 116.628 C 112.159 114.196 112.553 112.331 112.606 112.269 L 111.609 111.522 C 110.966 112.845 109.899 113.825 108.56 113.825 C 106.039 113.825 105.899 112.847 102.958 109.906 C 105.884 105.612 105.722 103.401 107.315 101.131 C 108.932 98.828 110.303 97.522 113.041 97.427 L 113.041 96.276 L 102.93 96.276 L 102.93 97.3 C 104.951 97.148 105.273 98.741 105.012 100.072 C 104.485 102.781 101.654 108.311 101.28 107.913 C 96.986 103.371 91.695 93.477 91.695 93.477 C 95.553 91.361 97.109 86.942 97.109 85.821 C 97.109 81.986 95.093 78.76 89.457 78.043 C 86.031 77.607 79.56 80.47 79.436 86.444 C 79.379 89.15 81.053 91.858 82.796 95.219 C 78.242 97.012 74.668 100.55 73.157 105.136 C 71.373 100.92 66.466 99.235 63.264 98.374 L 63.393 98.374 C 65.796 97.59 73.088 96.132 72.776 89.35 C 72.367 80.445 60.975 78.917 56.918 79.192 L 39.225 79.192 L 39.225 80.348 C 41.859 80.528 44.436 79.84 44.436 84.223 L 44.446 114.671 C 44.446 118.345 42.455 118.388 39.248 118.749 L 39.233 119.799 L 57.67 119.799 C 67.63 119.898 71.817 117.06 73.212 112.706 L 73.212 112.706 Z  M 7 119.799 L 25.425 119.799 C 38.238 119.364 41.847 115.116 41.847 108.531 C 41.847 101.662 35.831 99.556 31.858 98.485 C 34.068 98.05 40.633 95.436 40.539 89.231 C 40.406 80.32 28.76 78.918 24.702 79.194 L 7.008 79.194 L 7.008 80.351 C 9.642 80.532 12.221 79.84 12.221 84.226 L 12.209 114.552 C 12.209 118.226 10.207 118.388 7 118.749 L 7 119.799 L 7 119.799 Z  M 21.31 99.7 L 23.552 99.7 C 28.732 99.571 31.734 102.5 32.077 107.79 C 32.422 113.146 30.24 117.622 24.703 117.685 C 22.3 117.713 21.31 116.817 21.31 114.106 L 21.31 99.7 L 21.31 99.7 Z  M 23.94 81.362 C 29.628 81.746 31.128 86.658 31.131 88.466 C 31.143 93.913 29.433 98.081 21.35 97.834 L 21.35 81.362 C 21.42 81.362 23.31 81.32 23.94 81.362 L 23.94 81.362 Z  M 56.178 81.382 C 61.868 81.766 63.368 86.678 63.37 88.486 C 63.381 93.933 61.67 98.101 53.588 97.854 L 53.588 81.382 C 53.658 81.382 55.549 81.34 56.178 81.382 Z " fill="rgb(255,255,255)"/></g></svg>