<?xml version="1.0" standalone="no"?><!-- Generator: Gravit.io --><svg xmlns="http://www.w3.org/2000/svg" xmlns:xlink="http://www.w3.org/1999/xlink" style="isolation:isolate" viewBox="0 0 145 200" width="145" height="200"><defs><clipPath id="_clipPath_GVWLhPW37l04dghl24jQd7d6JgTWNyBp"><rect width="145" height="200"/></clipPath></defs><g clip-path="url(#_clipPath_GVWLhPW37l04dghl24jQd7d6JgTWNyBp)"><rect width="145" height="200" style="fill:rgb(227,24,54)"/><clipPath id="_clipPath_PNBVRLGUpbwTuwK5wgQdwpWnHt8Sy8kZ"><rect x="0" y="58" width="145" height="84" transform="matrix(1,0,0,1,0,0)" fill="rgb(255,255,255)"/></clipPath><g clip-path="url(#_clipPath_PNBVRLGUpbwTuwK5wgQdwpWnHt8Sy8kZ)"><g><rect x="0" y="58" width="145" height="84" transform="matrix(1,0,0,1,0,0)" fill="rgb(227,24,54)"/><g><g><g><g><g><path d=" M 58.423 83.653 C 62.147 85.123 65.827 86.703 69.462 88.384 C 57.887 93.085 46.707 98.649 36.042 105.022 C 32.432 103.13 28.769 101.342 25.055 99.664 C 35.705 93.462 46.858 88.099 58.423 83.653 Z " fill-rule="evenodd" fill="rgb(255,255,255)"/><path d=" M 44.641 78.786 C 32.62 82.592 21.053 87.571 10.091 93.611 C 13.587 94.876 17.051 96.222 20.465 97.663 C 31.088 91.412 42.315 86.152 53.997 81.972 C 50.907 80.836 47.783 79.775 44.641 78.786 Z " fill-rule="evenodd" fill="rgb(255,255,255)"/><path d=" M 83.511 83.184 C 74.069 78.617 64.267 74.771 54.188 71.701 C 50.642 72.723 47.128 73.836 43.644 75.049 C 54.024 78.121 64.113 82.011 73.831 86.666 C 77.025 85.441 80.255 84.275 83.511 83.184 Z " fill-rule="evenodd" fill="rgb(255,255,255)"/><path d=" M 98.917 78.592 C 89.256 74.377 79.264 70.851 69.055 68.044 C 65.802 68.716 62.571 69.467 59.363 70.29 C 69.502 73.249 79.36 77 88.869 81.466 C 92.195 80.437 95.545 79.477 98.917 78.592 Z " fill-rule="evenodd" fill="rgb(255,255,255)"/><path d=" M 123.653 86.901 C 99.415 95.071 76.707 106.708 56.164 121.276 C 61.302 124.43 66.303 127.777 71.193 131.303 C 90.556 115.945 112.051 103.15 135.186 93.43 C 131.412 91.141 127.553 88.967 123.653 86.901 Z " fill-rule="evenodd" fill="rgb(255,255,255)"/><path d=" M 106.985 78.981 C 81.785 85.647 58.093 96.4 36.734 110.564 C 41.547 112.932 46.273 115.459 50.902 118.149 C 71.835 103.658 95.063 92.376 119.839 84.935 C 115.614 82.817 111.327 80.824 106.985 78.981 Z " fill-rule="evenodd" fill="rgb(255,255,255)"/></g></g></g></g></g></g></g></g></svg>