<?xml version="1.0" standalone="no"?><!-- Generator: Gravit.io --><svg xmlns="http://www.w3.org/2000/svg" xmlns:xlink="http://www.w3.org/1999/xlink" style="isolation:isolate" viewBox="0 0 145 200" width="145" height="200"><defs><clipPath id="_clipPath_10aTEOpt5ITo77UrhOHYVPeIqm8mRpbX"><rect width="145" height="200"/></clipPath></defs><g clip-path="url(#_clipPath_10aTEOpt5ITo77UrhOHYVPeIqm8mRpbX)"><rect width="145" height="200" style="fill:rgb(0,47,84)"/><g><g><path d=" M 7.001 98.487 L 21.613 98.487 L 21.613 102.739 L 12.693 102.739 L 12.693 107.873 L 20.986 107.873 L 20.986 112.121 L 12.693 112.121 L 12.693 120.501 L 7.001 120.501 L 7.001 98.487 Z " fill="rgb(255,255,255)"/></g><g><path d=" M 23.092 98.487 L 38.592 98.487 L 38.592 102.708 L 28.754 102.708 L 28.754 107.292 L 38.019 107.292 L 38.019 111.511 L 28.754 111.511 L 28.754 116.218 L 38.82 116.218 L 38.82 120.501 L 23.092 120.501 L 23.092 98.487 Z " fill="rgb(255,255,255)"/></g><g><path d=" M 46.4 116.25 L 48.859 116.25 C 52.662 116.218 55.092 114.478 55.092 109.34 C 55.092 102.646 50.404 102.646 48.658 102.646 L 46.4 102.614 L 46.4 116.25 Z  M 40.536 98.425 L 49.26 98.425 C 51.718 98.425 54.98 98.7 57.123 100.26 C 60.183 102.492 61.013 106.131 61.013 109.403 C 61.013 114.293 59.555 117.9 55.379 119.644 C 53.263 120.5 50.746 120.5 49.316 120.5 L 40.536 120.5 L 40.536 98.425 Z " fill="rgb(255,255,255)"/></g><g><path d=" M 62.442 98.487 L 77.942 98.487 L 77.942 102.708 L 68.106 102.708 L 68.106 107.292 L 77.371 107.292 L 77.371 111.511 L 68.106 111.511 L 68.106 116.218 L 78.173 116.218 L 78.173 120.501 L 62.442 120.501 L 62.442 98.487 Z " fill="rgb(255,255,255)"/></g><g><path d=" M 85.436 107.904 L 87.582 107.904 C 88.84 107.904 89.468 107.904 89.954 107.721 C 91.213 107.292 91.471 105.917 91.471 105.213 C 91.471 102.493 89.239 102.493 87.582 102.493 L 85.436 102.493 L 85.436 107.904 Z  M 79.687 98.426 L 89.239 98.426 C 92.957 98.426 94.36 98.672 95.59 100.015 C 96.219 100.688 97.019 101.913 97.019 104.297 C 97.019 106.712 96.104 107.75 95.13 108.393 C 93.816 109.279 92.556 109.432 91.985 109.524 L 91.985 109.644 C 95.989 109.768 96.219 111.664 96.675 115.057 C 96.876 116.556 97.161 118.939 97.649 120.501 L 91.442 120.501 C 91.098 119.154 90.954 117.472 90.756 115.515 C 90.498 112.856 90.413 111.877 87.838 111.877 L 85.436 111.877 L 85.436 120.501 L 79.687 120.501 L 79.687 98.426 Z " fill="rgb(255,255,255)"/></g><g><path d=" M 112.118 111.999 L 109.457 102.739 L 109.372 102.739 L 106.512 111.999 L 112.118 111.999 Z  M 106.198 98.426 L 113.177 98.426 L 121.326 120.501 L 114.862 120.501 L 113.432 116.066 L 105.168 116.066 L 103.768 120.501 L 98.047 120.501 L 106.198 98.426 Z " fill="rgb(255,255,255)"/></g><g><path d=" M 121.928 98.426 L 127.733 98.426 L 127.733 116.158 L 137 116.158 L 137 120.501 L 121.928 120.501 L 121.928 98.426 Z " fill="rgb(255,255,255)"/></g><g><path d=" M 7.001 74.011 L 14.895 74.011 L 21.872 90.459 L 21.815 74.011 L 26.819 74.011 L 26.819 96.082 L 19.097 96.082 L 11.977 78.934 L 12.034 96.082 L 7.001 96.082 L 7.001 74.011 Z " fill="rgb(255,255,255)"/></g><g><path d=" M 42.427 87.585 L 39.766 78.321 L 39.679 78.321 L 36.822 87.585 L 42.427 87.585 Z  M 36.506 74.01 L 43.484 74.01 L 51.635 96.083 L 45.171 96.083 L 43.741 91.65 L 35.475 91.65 L 34.074 96.083 L 28.357 96.083 L 36.506 74.01 Z " fill="rgb(255,255,255)"/></g><g><path d=" M 47.36 74.011 L 53.678 74.011 L 58.369 90.001 L 63.316 74.011 L 69.008 74.011 L 61.485 96.082 L 54.653 96.082 L 47.36 74.011 Z " fill="rgb(255,255,255)"/></g><g><path d=" M 75.428 74.011 L 79.946 83.275 L 84.606 74.011 L 90.497 74.011 L 82.435 88.288 L 82.435 96.082 L 76.655 96.082 L 76.655 88.011 L 68.792 74.011 L 75.428 74.011 Z " fill="rgb(255,255,255)"/></g><path d=" M 136.994 123.062 L 7 123.062 L 7 128.864 L 136.994 128.864 L 136.994 123.062 Z " fill="rgb(255,255,255)"/><g><path d=" M 116.98 93.384 L 116.596 93.384 C 117.492 92.365 118.239 91.151 118.804 89.801 L 120.072 89.801 C 119.283 91.192 118.23 92.408 116.98 93.384 Z  M 115.807 94.197 L 115.807 94.197 L 115.803 94.199 C 115.803 94.199 115.803 94.197 115.807 94.197 Z  M 103.359 94.197 L 103.359 94.197 L 103.359 94.199 C 103.359 94.197 103.359 94.197 103.359 94.197 Z  M 99.093 89.801 L 100.358 89.801 C 100.922 91.151 101.674 92.365 102.572 93.384 L 102.186 93.384 C 100.935 92.408 99.88 91.192 99.093 89.801 Z  M 102.181 74.385 L 102.574 74.385 C 101.905 75.143 101.31 76.008 100.815 76.972 L 100.806 76.972 L 100.632 77.338 L 100.458 77.704 L 100.469 77.708 C 100.431 77.795 100.39 77.882 100.355 77.968 L 99.093 77.968 C 99.305 77.597 99.529 77.231 99.776 76.882 C 100.464 75.927 101.275 75.089 102.181 74.385 Z  M 115.807 73.572 L 115.807 73.572 L 115.803 73.572 C 115.803 73.572 115.807 73.572 115.807 73.572 Z  M 120.072 77.968 L 118.804 77.968 C 118.239 76.614 117.492 75.404 116.596 74.385 L 116.98 74.385 C 118.23 75.363 119.283 76.579 120.072 77.968 Z  M 119.963 84.29 L 121.619 84.29 C 121.563 85.962 121.166 87.555 120.491 88.989 L 119.118 88.989 C 119.627 87.542 119.92 85.953 119.963 84.29 Z  M 115.118 88.989 C 115.4 87.55 115.565 85.962 115.587 84.29 L 119.15 84.29 C 119.105 85.962 118.791 87.554 118.259 88.989 L 115.118 88.989 Z  M 113.227 94.197 L 114.561 94.197 C 113.843 94.747 113.068 95.18 112.244 95.481 C 112.59 95.121 112.919 94.688 113.227 94.197 Z  M 105.937 94.197 C 106.242 94.688 106.571 95.121 106.922 95.481 C 106.1 95.18 105.318 94.747 104.605 94.197 L 105.937 94.197 Z  M 100.013 84.29 L 103.578 84.29 C 103.6 85.962 103.766 87.55 104.049 88.989 L 100.905 88.989 C 100.371 87.554 100.059 85.962 100.013 84.29 Z  M 99.202 83.479 L 97.552 83.479 C 97.601 81.836 97.986 80.245 98.673 78.782 L 100.044 78.782 C 99.529 80.258 99.246 81.853 99.202 83.479 Z  M 104.056 78.782 C 103.766 80.256 103.602 81.853 103.578 83.479 L 100.017 83.479 C 100.061 81.845 100.364 80.249 100.905 78.782 L 104.056 78.782 Z  M 113.227 73.572 C 112.919 73.081 112.59 72.648 112.244 72.288 C 113.068 72.589 113.843 73.023 114.561 73.572 L 113.227 73.572 Z  M 109.986 83.479 L 109.986 78.782 L 114.273 78.782 C 114.573 80.225 114.746 81.816 114.772 83.479 L 109.986 83.479 Z  M 109.986 88.989 L 109.986 84.29 L 114.772 84.29 C 114.746 85.953 114.573 87.55 114.273 88.989 L 109.986 88.989 Z  M 109.986 93.384 L 109.986 89.801 L 114.087 89.801 C 113.743 91.185 113.285 92.402 112.745 93.384 L 109.986 93.384 Z  M 109.986 94.197 L 112.24 94.197 C 111.57 95.152 110.801 95.762 109.986 95.915 L 109.986 94.197 Z  M 109.175 94.197 L 109.175 95.915 C 108.364 95.762 107.595 95.152 106.922 94.197 L 109.175 94.197 Z  M 109.175 89.801 L 109.175 93.384 L 106.42 93.384 C 105.882 92.402 105.422 91.185 105.074 89.801 L 109.175 89.801 Z  M 109.175 84.29 L 109.175 88.989 L 104.891 88.989 C 104.592 87.55 104.415 85.953 104.392 84.29 L 109.175 84.29 Z  M 109.175 78.782 L 109.175 83.479 L 104.392 83.479 C 104.415 81.849 104.585 80.252 104.886 78.782 L 109.175 78.782 Z  M 112.745 74.385 C 113.285 75.368 113.743 76.586 114.087 77.968 L 109.986 77.968 L 109.986 74.385 L 112.745 74.385 Z  M 109.986 73.572 L 109.986 71.854 C 110.801 72.007 111.57 72.615 112.24 73.572 L 109.986 73.572 Z  M 109.175 71.857 L 109.175 73.572 L 106.915 73.572 C 107.606 72.608 108.377 72.007 109.175 71.857 Z  M 105.941 73.572 L 104.629 73.572 C 105.339 73.031 106.104 72.604 106.906 72.306 C 106.564 72.659 106.242 73.084 105.941 73.572 Z  M 105.141 77.678 C 105.479 76.392 105.913 75.287 106.41 74.385 L 109.175 74.385 L 109.175 77.968 L 105.067 77.968 C 105.093 77.871 105.113 77.771 105.141 77.678 Z  M 119.15 83.479 L 115.587 83.479 C 115.565 81.805 115.4 80.221 115.118 78.782 L 118.259 78.782 C 118.791 80.215 119.105 81.805 119.15 83.479 Z  M 121.619 83.479 L 119.963 83.479 C 119.92 81.816 119.627 80.228 119.118 78.782 L 120.491 78.782 C 121.166 80.215 121.563 81.805 121.619 83.479 Z  M 117.925 77.968 L 114.938 77.968 C 114.621 76.612 114.194 75.402 113.68 74.385 L 115.48 74.385 C 116.47 75.363 117.306 76.581 117.925 77.968 Z  M 101.366 77.684 C 101.979 76.396 102.772 75.287 103.694 74.385 L 105.494 74.385 C 105.1 75.163 104.755 76.069 104.465 77.081 L 104.461 77.08 L 104.355 77.47 L 104.252 77.863 L 104.261 77.863 C 104.252 77.9 104.241 77.933 104.234 77.968 L 101.238 77.968 C 101.281 77.874 101.321 77.778 101.366 77.684 Z  M 97.548 84.29 L 99.2 84.29 C 99.244 85.953 99.54 87.542 100.044 88.989 L 98.673 88.989 C 98.001 87.555 97.601 85.962 97.548 84.29 Z  M 101.236 89.801 L 104.222 89.801 C 104.542 91.157 104.971 92.369 105.486 93.384 L 103.679 93.384 C 102.696 92.406 101.861 91.192 101.236 89.801 Z  M 115.48 93.384 L 113.68 93.384 C 114.194 92.369 114.621 91.157 114.938 89.801 L 117.925 89.801 C 117.306 91.192 116.47 92.406 115.48 93.384 Z  M 122.439 83.884 C 122.439 77.179 117.282 71.66 110.723 71.079 C 110.348 71.028 109.969 71 109.581 71 C 109.219 71 108.861 71.03 108.506 71.076 C 104.906 71.381 101.573 73.201 99.362 76.087 L 99.355 76.078 L 99.117 76.407 L 98.882 76.738 L 98.893 76.749 C 97.479 78.865 96.724 81.321 96.724 83.884 C 96.724 90.59 101.883 96.111 108.441 96.69 C 108.816 96.741 109.197 96.769 109.581 96.769 C 109.969 96.769 110.348 96.741 110.723 96.69 C 117.282 96.111 122.439 90.59 122.439 83.884 Z " fill="rgb(255,255,255)"/></g></g></g></svg>