<?xml version="1.0" standalone="no"?><!-- Generator: Gravit.io --><svg xmlns="http://www.w3.org/2000/svg" xmlns:xlink="http://www.w3.org/1999/xlink" style="isolation:isolate" viewBox="0 0 145 200" width="145" height="200"><defs><clipPath id="_clipPath_x7xuB8JpV40wVaecpOBawwEBWwusqJgD"><rect width="145" height="200"/></clipPath></defs><g clip-path="url(#_clipPath_x7xuB8JpV40wVaecpOBawwEBWwusqJgD)"><rect width="145" height="200" style="fill:rgb(12,32,116)"/><g><path d=" M 7 83 L 7.021 108.944 L 28.999 116.427 L 50.998 108.944 L 50.998 83 L 7 83 Z " fill="rgb(220,30,44)"/></g><g><path d=" M 28.978 108.129 L 22.245 108.129 L 22.245 105.814 L 22.181 105.814 C 20.873 107.636 19.007 108.601 16.241 108.601 C 12.961 108.601 9.98 106.607 9.98 102.405 L 9.98 89.883 L 16.949 89.883 L 16.949 99.446 C 16.949 101.568 17.185 103.026 19.243 103.026 C 20.444 103.026 22.031 102.426 22.031 99.51 L 22.031 89.861 L 28.978 89.861 L 28.978 108.129 Z " fill="rgb(255,255,255)"/><path d=" M 41.971 95.179 C 41.928 94.578 41.628 94.128 41.156 93.807 C 40.728 93.463 40.17 93.27 39.613 93.27 C 38.626 93.27 37.49 93.485 37.49 94.686 C 37.49 95.222 37.919 95.458 38.305 95.629 C 39.462 96.122 42.1 96.272 44.437 97.044 C 46.753 97.795 48.79 99.167 48.79 102.147 C 48.79 107.207 43.922 108.58 39.505 108.58 C 35.217 108.58 30.5 106.864 30.393 102.147 L 37.04 102.147 C 37.082 102.791 37.361 103.305 37.876 103.777 C 38.219 104.098 38.905 104.313 39.741 104.313 C 40.663 104.313 42.1 103.97 42.1 102.898 C 42.1 101.847 41.499 101.525 38.262 100.968 C 32.944 100.046 30.8 98.374 30.8 95.222 C 30.8 90.612 35.753 89.411 39.42 89.411 C 43.365 89.411 48.103 90.505 48.296 95.179 L 41.971 95.179 Z " fill="rgb(255,255,255)"/><path d=" M 53.485 83 L 60.454 83 L 60.454 91.877 L 60.518 91.877 C 61.569 90.333 63.434 89.411 65.514 89.411 C 71.646 89.411 73.297 94.621 73.297 98.91 C 73.297 103.477 70.789 108.58 65.621 108.58 C 62.212 108.58 61.161 107.272 60.282 106.114 L 60.218 106.114 L 60.218 108.129 L 53.485 108.129 L 53.485 83 L 53.485 83 Z  M 63.263 94.471 C 60.754 94.471 60.196 96.83 60.196 98.974 C 60.196 101.161 60.754 103.52 63.263 103.52 C 65.771 103.52 66.329 101.161 66.329 98.974 C 66.329 96.83 65.75 94.471 63.263 94.471 Z " fill="rgb(255,255,255)"/><path d=" M 92.723 104.056 C 92.723 105.428 92.788 106.972 93.559 108.129 L 86.441 108.129 C 86.269 107.636 86.162 106.886 86.184 106.414 L 86.119 106.414 C 84.64 108.108 82.496 108.601 80.244 108.601 C 76.728 108.601 73.812 106.907 73.812 103.069 C 73.812 97.302 80.566 97.516 84.125 96.83 C 85.069 96.658 86.033 96.38 86.033 95.2 C 86.033 93.978 84.876 93.506 83.739 93.506 C 81.595 93.506 81.166 94.6 81.123 95.372 L 74.648 95.372 C 74.862 90.226 79.708 89.39 84.039 89.39 C 92.766 89.39 92.702 93.013 92.702 96.53 L 92.702 104.056 L 92.723 104.056 Z  M 86.033 99.939 C 85.197 100.368 84.232 100.603 83.289 100.818 C 81.745 101.161 80.93 101.547 80.93 102.791 C 80.93 103.627 81.852 104.484 83.117 104.484 C 84.704 104.484 85.926 103.541 86.033 101.633 L 86.033 99.939 Z " fill="rgb(255,255,255)"/><path d=" M 95.21 89.861 L 101.943 89.861 L 101.943 92.177 L 102.007 92.177 C 103.315 90.354 105.181 89.39 107.947 89.39 C 111.227 89.39 114.208 91.405 114.208 95.586 L 114.208 108.108 L 107.239 108.108 L 107.239 98.545 C 107.239 96.422 107.003 94.964 104.945 94.964 C 103.744 94.964 102.158 95.565 102.158 98.481 L 102.158 108.129 L 95.189 108.129 L 95.189 89.861 L 95.21 89.861 Z " fill="rgb(255,255,255)"/><path d=" M 116.695 83 L 123.663 83 L 123.663 95.157 L 128.102 89.861 L 135.971 89.861 L 129.474 96.765 L 137 108.129 L 128.616 108.129 L 124.886 101.525 L 123.663 102.855 L 123.663 108.129 L 116.695 108.129 L 116.695 83 Z " fill="rgb(255,255,255)"/></g></g></svg>