<?xml version="1.0" standalone="no"?><!-- Generator: Gravit.io --><svg xmlns="http://www.w3.org/2000/svg" xmlns:xlink="http://www.w3.org/1999/xlink" style="isolation:isolate" viewBox="0 0 145 200" width="145" height="200"><defs><clipPath id="_clipPath_uSVZxk5AiuusUZl2BqdT8KXKjohffO5L"><rect width="145" height="200"/></clipPath></defs><g clip-path="url(#_clipPath_uSVZxk5AiuusUZl2BqdT8KXKjohffO5L)"><rect width="145" height="200" style="fill:rgb(26,50,88)"/><g><g><path d=" M 33.26 121.25 C 33.26 121.25 33.26 136.014 33.26 136.094 C 33.26 144.386 38.42 145.762 42.742 145.762 C 49.131 145.762 52.092 141.618 52.092 136.014 L 52.092 121.25 L 47.862 121.25 L 47.862 136.513 C 47.862 138.438 47.221 142.038 42.742 141.964 C 38.666 141.898 37.918 138.222 37.918 135.859 L 37.918 121.25 L 33.26 121.25 Z " fill="rgb(255,255,255)"/></g><g><path d=" M 69.757 122.224 C 69.757 122.224 67.057 120.91 63.992 120.91 C 60.169 120.91 55.369 122.832 55.369 128.095 C 55.369 131.743 58.103 133.465 59.968 134.356 C 60.957 134.828 62.162 135.356 63.153 135.88 C 63.664 136.153 65.696 136.825 65.696 138.983 C 65.696 141.296 63.121 142.081 61.964 142.081 C 57.842 142.081 55.034 140.238 55.034 140.238 L 55.467 144.87 C 55.467 144.87 57.153 145.707 62.194 145.719 C 67.003 145.704 70.472 142.67 70.472 138.493 C 70.472 135.277 68.236 133.374 66.329 132.463 C 64.827 131.743 63.957 131.348 62.651 130.743 C 61.345 130.144 59.998 129.1 59.998 127.486 C 59.998 125.752 61.613 124.507 63.992 124.507 C 67.493 124.507 68.901 126.062 69.757 126.545 L 69.757 122.224 Z " fill="rgb(255,255,255)"/></g><g><path d=" M 104.164 121.215 L 99.093 121.215 L 99.902 123.222 L 92.024 143.859 L 83.897 121.215 L 78.82 121.215 L 79.625 123.222 L 71.232 145.224 L 75.815 145.224 L 77.281 141.033 L 85.963 141.033 L 87.424 145.224 L 96.087 145.224 L 97.559 141.033 L 106.24 141.033 L 107.701 145.224 L 112.782 145.224 L 104.164 121.215 Z  M 78.426 137.782 L 81.798 128.381 L 84.804 137.782 L 78.426 137.782 Z  M 98.704 137.782 L 102.063 128.381 L 105.078 137.782 L 98.704 137.782 Z " fill="rgb(255,255,255)"/></g><g><path d=" M 33 94.245 L 33.217 101.746 C 33.217 101.746 35.092 100.385 37.191 100.385 C 39.294 100.385 41.664 101.87 41.664 101.87 L 60.468 112.656 L 62.06 105.879 L 41.664 94.179 C 41.664 94.179 39.301 92.706 37.191 92.706 C 35.081 92.706 33 94.245 33 94.245 Z " fill="rgb(255,255,255)"/></g><g><path d=" M 33 84.435 L 33.217 91.938 C 33.217 91.938 35.092 90.577 37.191 90.577 C 39.294 90.577 41.664 92.062 41.664 92.062 L 62.497 104.012 L 64.081 97.23 L 41.664 84.37 C 41.664 84.37 39.301 82.896 37.191 82.896 C 35.081 82.896 33 84.435 33 84.435 Z " fill="rgb(255,255,255)"/></g><g><path d=" M 33 74.629 L 33.217 82.133 C 33.217 82.133 35.092 80.77 37.191 80.77 C 39.294 80.77 41.664 82.254 41.664 82.254 L 64.528 95.368 L 66.114 88.591 L 41.664 74.564 C 41.664 74.564 39.301 73.092 37.191 73.092 C 35.081 73.092 33 74.629 33 74.629 Z " fill="rgb(255,255,255)"/></g><g><path d=" M 72.19 62.691 L 74.285 71.543 L 102.92 87.961 C 102.92 87.961 105.171 89.44 107.383 89.44 C 109.594 89.44 111.579 87.895 111.579 87.895 L 111.361 80.394 C 111.361 80.394 109.565 81.755 107.383 81.755 C 105.198 81.755 102.92 80.273 102.92 80.273 L 80.765 67.567 L 79.236 61.868 C 79.236 61.628 79.453 61.515 79.537 61.498 L 83.287 60.346 C 83.793 60.346 84.084 60.771 84.084 61.131 L 84.279 61.54 C 84.419 61.608 84.984 61.338 85.023 61.316 L 85.023 59.073 C 85.036 57.58 83.823 56.261 82.173 56.261 C 81.122 56.261 78.421 56.261 78.421 56.261 C 78.421 56.261 77.877 55 76.285 55 C 75.143 55 71.044 55 69.165 55 C 67.286 55 66.836 56.739 66.836 56.739 L 61.892 76.363 L 41.663 64.76 C 41.663 64.76 39.474 63.277 37.191 63.277 C 34.911 63.277 33 64.818 33 64.818 L 33.218 72.325 C 33.218 72.325 34.905 70.963 37.191 70.963 C 39.476 70.963 41.663 72.45 41.663 72.45 L 66.55 86.717 L 72.19 62.691 Z " fill="rgb(255,255,255)"/></g><g><path d=" M 74.845 73.974 L 76.934 82.868 L 102.92 97.765 C 102.92 97.765 105.246 99.248 107.383 99.248 C 109.521 99.248 111.579 97.703 111.579 97.703 L 111.363 90.2 C 111.363 90.2 109.699 91.561 107.383 91.561 C 105.066 91.561 102.92 90.082 102.92 90.082 L 74.845 73.974 Z " fill="rgb(255,255,255)"/></g><g><path d=" M 77.508 85.308 L 79.603 94.203 L 102.92 107.571 C 102.92 107.571 105.246 109.054 107.383 109.054 C 109.521 109.054 111.579 107.506 111.579 107.506 L 111.361 100.004 C 111.361 100.004 109.701 101.369 107.383 101.369 C 105.066 101.369 102.92 99.889 102.92 99.889 L 77.508 85.308 Z " fill="rgb(255,255,255)"/></g><g><path d=" M 80.175 96.653 L 82.262 105.534 L 102.92 117.378 C 102.92 117.378 105.245 118.861 107.383 118.861 C 109.519 118.861 111.579 117.316 111.579 117.316 L 111.361 109.818 C 111.361 109.818 109.699 111.176 107.383 111.176 C 105.066 111.176 102.92 109.695 102.92 109.695 L 80.175 96.653 Z " fill="rgb(255,255,255)"/></g></g></g></svg>