<?xml version="1.0" standalone="no"?><!-- Generator: Gravit.io --><svg xmlns="http://www.w3.org/2000/svg" xmlns:xlink="http://www.w3.org/1999/xlink" style="isolation:isolate" viewBox="0 0 145 200" width="145" height="200"><defs><clipPath id="_clipPath_YEGGsZdwy7W7ez6gy3k4BsKiW7p3BagB"><rect width="145" height="200"/></clipPath></defs><g clip-path="url(#_clipPath_YEGGsZdwy7W7ez6gy3k4BsKiW7p3BagB)"><rect width="145" height="200" style="fill:rgb(0,160,223)"/><path d=" M 0 27 L 145 27 L 145 172 L 0 172 L 0 27 Z " fill="rgb(0,160,223)"/><path d=" M 126.063 92.627 C 126.063 90.551 124.764 88.996 123.726 87.442 C 122.687 86.404 121.91 85.365 121.91 84.072 C 121.91 82.518 122.948 81.479 124.248 81.479 C 125.025 81.479 125.547 81.74 126.063 81.996 C 126.579 82.251 127.362 82.512 127.878 82.512 C 128.917 82.512 129.694 81.474 129.694 80.696 C 129.694 79.658 128.656 78.62 126.84 78.62 C 122.687 78.62 119.057 83.289 119.057 86.92 C 119.057 88.996 120.356 90.551 121.394 91.85 C 122.171 92.888 122.948 93.926 122.948 94.964 C 122.948 96.519 121.394 97.557 120.095 97.557 C 118.54 97.557 117.757 96.78 116.725 96.003 C 116.209 95.486 115.687 94.964 115.171 94.964 C 114.393 94.964 114.132 96.519 114.132 97.302 C 114.132 98.34 115.948 99.894 118.285 99.894 C 121.916 99.372 126.063 96.258 126.063 92.627 Z  M 37.613 67.206 C 37.352 67.206 37.352 67.206 37.613 67.206 L 37.352 68.244 L 37.352 68.505 L 38.651 68.505 C 39.689 68.76 39.945 68.76 39.945 69.282 C 39.945 70.059 38.906 72.652 37.607 76.288 L 36.569 79.658 C 35.531 82.512 33.976 86.665 32.677 90.034 C 31.123 94.187 29.824 97.557 29.824 98.073 C 29.824 98.589 30.085 98.85 31.378 98.85 C 32.671 98.85 33.193 98.589 33.454 98.073 C 35.792 90.551 42.015 81.99 45.13 81.99 C 46.168 81.99 46.429 82.251 46.429 83.289 C 46.429 84.843 45.13 87.958 43.575 91.073 C 42.276 93.665 41.238 96.258 41.238 97.557 C 41.238 98.595 41.754 99.111 42.792 99.111 C 45.907 99.111 48.5 96.258 50.315 93.926 L 50.576 93.665 L 49.799 92.888 L 49.538 92.888 C 48.5 93.926 46.684 95.742 46.168 95.742 L 45.907 95.742 L 45.907 95.225 C 45.907 94.964 46.168 94.187 46.684 93.149 C 47.983 90.295 50.054 85.365 50.054 82.512 C 50.054 80.174 49.016 78.881 46.939 78.881 C 43.048 78.881 39.933 83.289 38.379 85.626 C 38.118 86.143 37.601 86.665 37.601 86.665 C 37.601 86.665 37.862 86.148 38.118 85.11 C 38.634 84.072 39.156 82.518 39.933 80.441 C 42.787 72.658 44.086 68.766 44.086 68.25 C 44.086 67.733 43.57 67.733 43.309 67.733 L 37.601 67.733 L 37.613 67.206 Z  M 28.791 94.703 C 29.052 94.442 29.052 94.442 28.791 94.703 C 28.791 94.442 28.014 93.926 28.014 93.926 C 26.715 94.964 24.383 97.041 22.307 97.041 C 21.53 97.041 20.752 96.78 20.23 96.264 C 19.453 95.747 19.192 94.709 19.192 93.41 C 18.931 90.295 21.785 85.371 24.377 82.518 C 25.932 80.963 27.231 80.18 28.008 80.18 C 29.046 80.18 29.824 80.957 30.601 81.735 C 31.117 82.512 31.639 83.034 32.416 83.034 C 32.677 83.034 33.193 82.773 33.193 82.518 C 33.454 82.257 33.71 81.74 33.71 81.479 C 33.71 80.18 32.41 78.365 29.557 78.11 C 26.442 78.11 22.295 79.925 19.181 83.04 C 16.327 85.893 14.773 89.524 15.028 92.894 C 15.028 95.747 16.582 98.862 20.735 98.862 C 24.899 99.372 28.275 95.742 28.791 94.703 Z  M 81.188 87.436 C 81.188 87.697 80.927 87.952 80.927 87.952 L 80.927 87.691 C 80.927 87.43 81.188 86.653 81.444 85.615 C 81.96 83.538 82.482 80.946 82.482 80.169 C 82.482 79.13 81.966 78.614 80.927 78.614 C 78.851 78.614 75.481 82.245 74.443 84.06 L 74.959 84.838 L 75.22 84.577 L 75.481 84.316 C 76.258 83.277 77.819 81.462 78.596 81.462 C 79.112 81.462 79.373 81.978 79.373 82.761 C 79.373 84.577 77.297 90.284 76.003 94.176 C 75.226 96.252 74.704 97.806 74.704 98.067 C 74.704 98.584 74.965 98.584 75.22 98.584 L 77.036 98.584 C 77.297 98.584 77.552 98.323 77.813 97.806 C 77.813 97.806 78.59 95.73 79.112 94.692 C 82.743 87.43 84.558 83.799 86.118 82.239 C 87.157 81.201 87.934 80.94 88.456 80.94 C 88.972 80.94 88.972 81.201 89.233 81.456 C 89.494 81.711 89.749 82.233 90.271 82.233 C 90.532 82.233 91.048 82.233 91.309 81.972 C 91.826 81.456 92.087 80.934 92.087 80.157 C 92.087 78.858 91.048 78.342 90.271 78.342 C 86.635 78.62 84.303 80.952 81.188 87.436 Z  M 70.035 78.098 C 69.774 78.098 69.519 78.359 69.519 78.614 C 69.258 78.875 69.258 79.13 68.742 79.13 C 68.481 79.13 68.225 79.13 67.703 78.869 C 67.187 78.869 66.665 78.608 65.888 78.608 C 56.811 78.608 52.142 90.8 52.142 94.953 C 52.142 97.806 53.696 99.106 55.257 99.106 C 57.072 99.106 59.665 98.589 63.04 93.398 L 63.817 92.099 L 63.817 92.36 L 63.556 92.876 C 63.04 93.654 62.257 95.469 62.257 97.029 C 62.257 97.806 62.518 98.328 62.773 98.584 C 63.034 98.845 63.551 99.1 64.073 99.1 C 67.187 99.1 69.78 94.947 70.818 93.393 L 70.041 92.615 L 69.78 92.615 L 69.003 93.393 C 67.964 94.431 66.926 95.985 66.149 95.985 L 65.888 95.985 L 65.888 95.469 C 65.888 94.431 67.964 89.501 69.258 85.615 C 70.296 82.761 71.334 80.169 71.334 79.647 C 71.334 79.647 71.334 79.13 71.073 79.13 L 69.774 78.353 C 70.296 78.098 70.035 78.098 70.035 78.098 Z  M 55.767 94.181 C 55.767 88.213 60.436 80.174 65.105 80.174 C 66.659 80.174 67.442 80.952 67.442 82.512 C 67.442 84.849 61.219 96.003 57.066 96.003 C 56.289 96.258 55.767 95.997 55.767 94.181 Z  M 99.087 93.665 C 99.087 97.035 101.164 99.372 104.272 99.372 C 107.903 99.372 111.795 95.742 112.833 94.703 L 112.833 94.442 L 112.317 93.665 L 112.056 93.665 L 111.54 93.926 C 110.241 94.964 108.17 96.519 106.355 96.519 C 104.278 96.519 102.985 95.22 102.985 93.149 C 102.985 90.556 104.284 88.741 105.061 87.181 L 105.061 86.92 L 107.138 86.92 C 110.507 86.92 116.737 85.365 116.737 81.474 C 116.737 79.919 115.182 78.104 112.584 78.104 C 107.387 78.62 99.087 86.404 99.087 93.665 Z  M 112.317 79.913 C 113.355 79.913 114.132 80.691 114.132 81.729 C 114.132 84.321 111.279 85.621 106.349 85.621 C 107.126 83.805 109.98 79.913 112.317 79.913 Z  M 97.533 93.92 C 97.533 93.92 97.533 93.665 97.533 93.92 C 97.533 93.659 96.756 92.882 96.756 92.882 L 96.495 93.143 C 94.679 94.959 93.902 96.258 92.864 96.258 L 92.603 96.258 C 92.603 96.258 92.342 95.997 92.342 95.742 C 92.342 94.703 94.157 89.518 97.788 80.18 L 100.381 73.435 C 101.68 70.065 102.457 68.25 102.457 67.989 L 102.457 67.728 C 102.457 67.467 102.196 67.467 101.68 67.467 L 95.712 67.467 C 95.712 67.467 95.451 67.467 95.451 67.728 L 95.451 69.027 L 96.75 69.027 C 97.527 69.288 98.049 69.543 98.049 70.065 C 98.049 70.842 94.157 80.441 94.157 80.441 C 92.081 85.626 88.45 94.709 88.45 96.786 C 88.45 97.824 88.711 98.601 88.966 98.862 C 89.482 99.378 90.004 99.639 90.782 99.639 C 93.119 99.639 95.712 96.525 97.266 94.454 C 97.272 94.442 97.533 93.92 97.533 93.92 Z  M 15.306 112.08 C 15.306 114.934 17.644 116.488 19.714 117.526 L 20.752 118.043 C 22.829 119.081 23.867 120.38 23.867 121.934 C 23.867 123.75 22.568 125.304 20.752 125.304 C 17.899 125.304 16.344 122.451 15.567 120.635 L 14.529 120.896 C 14.79 122.712 15.306 124.788 15.306 125.565 L 15.822 125.565 L 17.122 126.081 C 17.899 126.342 18.937 126.598 19.975 126.598 C 23.867 126.598 26.721 124.26 26.721 120.629 C 26.721 117.26 24.128 115.699 22.313 114.922 L 21.535 114.661 C 19.198 113.362 18.166 112.324 18.166 110.769 C 18.166 109.215 19.204 107.655 21.019 107.655 C 23.357 107.655 24.389 109.47 24.911 111.286 L 25.949 111.025 C 25.688 109.47 25.433 108.171 25.433 107.133 L 24.656 106.872 L 24.14 106.611 C 23.362 106.35 22.324 106.095 21.547 106.095 C 17.899 106.373 15.306 108.71 15.306 112.08 Z  M 29.052 116.749 C 29.052 121.679 32.422 126.348 39.945 126.348 C 41.76 126.348 44.353 125.832 45.391 125.571 C 45.907 124.272 46.69 121.94 46.945 120.641 L 45.913 120.38 C 44.358 123.495 43.059 125.049 39.689 125.049 C 35.537 125.049 32.683 121.418 32.683 115.972 C 32.683 112.08 34.498 107.672 39.689 107.672 C 42.804 107.672 44.358 108.971 45.136 112.08 L 46.174 112.08 L 45.913 110.781 L 45.397 107.411 L 44.88 107.411 C 43.842 107.15 42.288 106.895 40.211 106.895 C 33.721 106.373 29.052 110.526 29.052 116.749 Z  M 68.742 106.895 L 60.436 106.895 L 60.436 107.933 C 62.512 108.194 62.773 108.194 62.773 111.564 L 62.773 115.456 L 53.952 115.456 L 53.952 111.564 C 53.952 108.449 54.213 108.194 56.289 107.933 L 56.289 106.895 L 47.728 106.895 L 47.728 107.933 C 50.321 108.194 50.321 108.449 50.321 111.564 L 50.321 121.94 C 50.321 125.055 50.06 125.31 47.728 125.571 L 47.728 126.609 L 56.289 126.609 L 56.289 125.571 C 54.213 125.31 53.696 125.31 53.696 121.94 L 53.696 117.01 L 62.518 117.01 L 62.518 121.94 C 62.518 125.055 62.257 125.31 59.926 125.571 L 59.926 126.609 L 68.486 126.609 L 68.486 125.571 C 66.149 125.31 65.894 125.31 65.894 121.94 L 65.894 111.564 C 65.894 108.449 66.155 108.194 68.486 107.933 C 68.481 107.927 68.742 106.895 68.742 106.895 Z  M 98.049 106.895 L 91.304 106.895 L 91.304 107.933 L 92.342 107.933 C 92.858 107.933 93.119 108.194 93.38 108.194 C 93.38 108.455 93.641 108.455 93.641 108.71 C 93.641 108.971 93.641 109.488 93.38 110.01 C 93.38 110.271 91.826 116.755 90.526 120.902 C 90.265 120.386 85.341 107.156 85.341 107.156 L 84.042 107.156 C 84.042 107.156 79.634 120.902 79.634 121.163 C 79.373 120.647 76.264 109.749 76.264 109.749 C 76.264 109.232 76.003 108.971 76.003 108.71 L 76.003 108.194 C 76.264 107.933 76.519 107.933 77.041 107.933 L 78.08 107.933 L 78.08 107.156 L 70.041 107.156 L 70.041 108.194 C 71.595 108.455 72.117 108.455 72.894 111.048 L 77.824 126.609 L 79.124 126.609 C 79.124 126.609 83.532 113.118 83.793 112.863 C 84.054 113.379 88.723 126.609 88.723 126.609 L 90.022 126.609 C 92.614 117.532 94.952 111.303 94.952 111.048 C 95.99 108.455 96.251 108.194 98.066 108.194 C 98.049 108.188 98.049 106.895 98.049 106.895 Z  M 103.24 111.564 C 103.24 111.564 105.316 117.787 105.577 117.787 L 101.169 117.787 C 100.903 117.787 103.24 111.564 103.24 111.564 Z  M 106.871 112.08 L 104.794 106.634 L 103.495 106.895 L 97.527 122.201 C 96.489 124.794 96.228 125.055 94.412 125.055 L 94.412 126.093 L 101.158 126.093 L 101.158 125.055 L 100.381 125.055 C 99.864 125.055 99.342 124.794 99.342 124.539 L 99.342 124.022 C 99.342 123.761 99.342 123.506 99.603 122.984 L 99.864 122.468 C 100.125 121.43 100.642 119.875 100.903 119.353 L 106.349 119.353 C 106.865 120.908 107.648 122.723 107.903 123.506 C 107.903 123.767 108.164 124.022 108.164 124.283 L 108.164 124.544 C 108.164 124.805 107.903 124.805 107.387 124.805 L 106.61 125.066 L 106.61 125.844 L 114.393 125.844 L 114.393 124.805 C 112.839 124.544 112.317 124.544 111.279 121.952 L 106.871 112.08 L 106.871 112.08 Z  M 120.617 109.488 C 120.617 108.71 120.617 108.188 120.878 108.188 L 122.177 108.188 C 122.954 108.188 125.808 108.449 125.808 111.819 C 125.808 114.157 124.253 115.45 121.655 115.45 L 120.617 115.45 C 120.617 115.45 120.617 109.488 120.617 109.488 Z  M 115.171 106.895 L 115.171 107.933 C 117.247 108.194 117.508 108.194 117.508 111.564 L 117.508 121.94 C 117.508 125.055 117.247 125.31 114.915 125.571 L 114.915 126.609 L 122.177 126.609 C 124.514 126.609 126.585 126.093 127.884 125.31 C 129.7 124.272 130.477 122.717 130.477 120.902 C 130.477 118.309 128.661 116.494 125.292 115.972 C 126.846 115.711 129.444 114.418 129.444 111.819 C 129.444 110.265 128.928 109.227 127.89 108.449 C 126.852 107.672 125.553 107.411 123.221 107.411 L 115.182 107.411 L 115.171 106.895 Z  M 121.655 116.233 C 125.025 116.233 126.84 117.787 126.84 120.641 C 126.84 123.495 124.764 124.794 122.948 124.794 C 122.171 124.794 121.649 124.794 121.394 124.533 C 120.878 124.017 120.878 123.234 120.878 121.679 L 120.878 116.494 C 120.878 116.233 121.655 116.233 121.655 116.233 Z " fill="rgb(255,255,255)"/></g></svg>