<?xml version="1.0" standalone="no"?><!-- Generator: Gravit.io --><svg xmlns="http://www.w3.org/2000/svg" xmlns:xlink="http://www.w3.org/1999/xlink" style="isolation:isolate" viewBox="0 0 145 200" width="145" height="200"><defs><clipPath id="_clipPath_gMeDE7d3MoAZ7AiFDDt2KZNrmy6oJ86c"><rect width="145" height="200"/></clipPath></defs><g clip-path="url(#_clipPath_gMeDE7d3MoAZ7AiFDDt2KZNrmy6oJ86c)"><rect width="145" height="200" style="fill:rgb(238,56,37)"/><path d=" M 125.857 92.766 L 64.023 92.766 C 63.132 90.985 61.648 89.204 60.164 87.918 C 57.493 85.741 54.426 84.95 51.458 85.543 L 50.963 85.642 L 51.062 85.049 C 51.458 81.883 50.37 78.816 48.094 76.244 C 45.225 72.979 40.773 71 36.42 71 C 32.166 71 27.615 72.979 24.746 76.244 C 22.47 78.717 21.481 82.18 21.877 85.049 L 21.976 85.642 L 21.382 85.543 C 18.612 84.95 15.149 85.84 12.478 87.918 C 8.817 90.787 6.938 95.338 6.938 99.79 C 6.938 104.242 8.916 108.793 12.478 111.662 C 15.149 113.839 18.612 114.729 21.382 114.037 L 21.976 113.938 L 21.877 114.531 C 21.481 117.4 22.569 120.863 24.746 123.336 C 27.714 126.601 32.166 128.58 36.42 128.58 C 40.773 128.58 45.324 126.502 48.094 123.336 C 50.37 120.665 51.458 117.697 51.062 114.531 L 50.963 113.938 L 51.557 114.037 C 54.525 114.63 57.691 113.839 60.263 111.662 C 62.242 110.079 63.528 107.606 64.517 105.231 L 96.078 105.231 C 97.957 105.231 99.54 106.517 99.54 108.496 C 99.54 110.376 98.056 111.86 96.078 111.86 L 93.208 111.86 L 93.208 128.778 L 105.773 128.778 L 105.773 115.125 C 105.773 113.245 107.257 111.761 109.236 111.761 C 111.116 111.761 112.896 113.245 112.896 115.125 L 112.896 128.679 L 125.362 128.679 L 125.362 111.86 L 122.592 111.86 C 120.712 111.86 119.129 110.475 119.129 108.496 C 119.129 106.616 120.712 105.231 122.592 105.231 L 125.956 105.231 C 129.418 105.231 132.189 102.461 132.189 98.998 C 132.09 95.635 129.32 92.766 125.857 92.766" fill="rgb(255,255,255)"/><path d=" M 46.61 105.924 C 45.324 105.924 44.038 105.528 42.95 104.836 L 40.971 106.715 C 41.664 107.705 42.158 108.793 42.158 109.98 C 42.158 113.245 39.487 115.916 36.222 115.916 C 32.957 115.916 30.286 113.245 30.286 109.98 C 30.286 108.892 30.583 107.705 31.374 106.715 L 29.396 104.836 C 28.208 105.528 27.021 105.924 25.933 105.924 C 24.35 105.924 22.866 105.429 21.778 104.242 C 20.689 103.154 19.997 101.571 19.997 99.988 C 19.997 98.405 20.59 96.921 21.778 95.833 C 22.866 94.744 24.449 94.052 25.933 94.052 C 27.318 94.052 28.505 94.645 29.396 95.338 L 31.374 93.458 C 30.781 92.667 30.286 91.282 30.286 89.896 C 30.286 88.314 30.88 86.83 32.067 85.741 C 33.155 84.653 34.738 83.96 36.222 84.059 C 37.805 84.059 39.388 84.653 40.476 85.741 C 41.565 86.83 42.158 88.314 42.158 89.896 C 42.158 91.084 41.762 92.172 40.971 93.458 L 42.95 95.338 C 44.137 94.349 45.324 94.052 46.61 94.052 C 48.193 94.052 49.677 94.645 50.766 95.833 C 51.854 96.921 52.546 98.405 52.546 99.988 C 52.546 103.253 49.875 105.924 46.61 105.924 Z " fill="rgb(238,56,37)"/></g></svg>