<?xml version="1.0" standalone="no"?><!-- Generator: Gravit.io --><svg xmlns="http://www.w3.org/2000/svg" xmlns:xlink="http://www.w3.org/1999/xlink" style="isolation:isolate" viewBox="0 0 145 200" width="145" height="200"><defs><clipPath id="_clipPath_288Z0IK5OIgMvRVfOkYzJRHncj6vtwmo"><rect width="145" height="200"/></clipPath></defs><g clip-path="url(#_clipPath_288Z0IK5OIgMvRVfOkYzJRHncj6vtwmo)"><clipPath id="_clipPath_sVxPi5VThfOU51gEOFvqxWlUgmftLP4m"><rect x="0" y="0" width="145" height="200" transform="matrix(1,0,0,1,0,0)" fill="rgb(255,255,255)"/></clipPath><g clip-path="url(#_clipPath_sVxPi5VThfOU51gEOFvqxWlUgmftLP4m)"><g><rect x="0" y="0" width="145" height="200" transform="matrix(1,0,0,1,0,0)" fill="rgb(179,30,48)"/><g><path d=" M 0 171.811 L 145 171.811 L 145 26.811 L 0 26.811 L 0 171.811 Z " fill="rgb(179,30,48)"/><path d=" M 52.259 72.451 L 52.259 79.576 L 53.889 79.576 C 55.946 79.576 56.878 78.576 56.878 75.777 L 56.878 75.339 L 59.272 75.339 L 59.272 86.398 L 56.878 86.398 L 56.878 85.926 C 56.878 83.15 55.946 82.094 53.889 82.094 L 52.259 82.094 L 52.259 90.062 L 59.092 90.062 C 62.206 90.062 63.329 88.005 63.7 84.072 L 66.184 84.072 L 66.184 92.602 L 43.741 92.602 L 43.741 90.062 L 45.64 90.062 C 46.82 90.062 47.449 89.736 47.449 87.679 L 47.449 74.384 C 47.449 72.9 46.775 72.451 45.19 72.451 L 44.493 72.451 C 42.864 72.451 42.088 72.833 41.515 74.53 L 35.323 92.602 L 30.614 92.602 L 27.029 80.824 L 26.961 80.824 L 22.983 92.602 L 18.218 92.602 L 11.789 73.665 C 11.508 72.732 11.025 72.451 9.721 72.451 L 9.249 72.451 L 9.249 69.922 L 19.162 69.922 L 19.162 72.451 L 17.723 72.451 C 16.97 72.451 16.667 72.9 16.667 73.35 C 16.667 73.687 16.79 74.114 16.97 74.586 L 21.263 87.241 L 21.331 87.241 L 25.421 75.339 L 24.849 73.721 C 24.5 72.709 23.815 72.451 22.814 72.451 L 22.005 72.451 L 22.005 69.922 L 32.244 69.922 L 32.244 72.451 L 30.434 72.451 C 29.737 72.451 29.468 72.754 29.468 73.204 C 29.468 73.552 29.636 74.036 29.749 74.361 L 33.502 87.016 L 33.57 87.016 L 37.93 74.654 C 38.065 74.249 38.189 73.912 38.189 73.485 C 38.189 72.945 37.93 72.451 36.728 72.451 L 35.076 72.451 L 35.076 69.922 L 66.184 69.922 L 66.184 77.677 L 63.633 77.677 C 63.116 74.395 62.823 72.451 58.272 72.451 L 52.259 72.451 Z  M 89.538 92.602 L 89.538 84.072 L 86.919 84.072 C 86.571 87.972 85.863 90.062 82.311 90.062 L 77.153 90.062 L 77.153 74.024 C 77.153 72.766 77.67 72.451 79.176 72.451 L 81.098 72.451 L 81.098 69.922 L 68.567 69.922 L 68.567 72.451 L 70.545 72.451 C 71.915 72.451 72.376 72.9 72.376 73.934 L 72.376 88.544 C 72.376 89.736 71.725 90.062 70.758 90.062 L 68.567 90.062 L 68.567 92.602 L 89.538 92.602 Z  M 112.813 92.602 L 112.813 84.072 L 110.183 84.072 C 109.834 87.972 109.104 90.062 105.598 90.062 L 100.428 90.062 L 100.428 74.024 C 100.428 72.766 100.945 72.451 102.451 72.451 L 104.361 72.451 L 104.361 69.922 L 91.819 69.922 L 91.819 72.451 L 93.808 72.451 C 95.191 72.451 95.651 72.9 95.651 73.934 L 95.651 88.544 C 95.651 89.736 94.988 90.062 94.033 90.062 L 91.819 90.062 L 91.819 92.602 L 112.813 92.602 Z  M 130.075 71.63 C 129.862 71.417 127.771 69.248 123.692 69.248 C 119.41 69.248 115.083 71.417 115.083 76.07 C 115.083 80.284 118.443 82.206 122.309 83.038 C 123.59 83.307 124.355 83.453 125.524 83.701 C 128.423 84.319 130.356 85.196 130.356 87.207 C 130.356 88.736 128.738 90.376 125.535 90.376 C 121.062 90.376 118.409 87.882 117.859 84.072 L 115.229 84.072 L 115.229 92.602 L 117.555 92.602 L 118.308 90.568 C 118.859 91.051 121.039 93.276 125.186 93.276 C 130.468 93.276 134.458 90.927 134.458 86.286 C 134.458 81.79 130.738 79.857 126.198 78.947 C 125.389 78.745 124.647 78.621 123.815 78.43 C 120.994 77.823 119.185 77.126 119.185 75.103 C 119.185 73.35 121.039 72.148 123.826 72.148 C 128.018 72.148 129.637 74.811 130.502 77.677 L 133.053 77.677 L 133.053 69.922 L 131.21 69.922 L 130.075 71.63 Z  M 25.983 127.958 L 25.983 125.407 L 24.275 125.407 C 22.691 125.407 22.106 124.935 22.106 123.654 L 22.106 117.473 L 23.511 117.473 C 25.635 117.473 26.557 118.394 26.557 120.799 L 26.557 121.552 L 28.939 121.552 L 28.939 111.112 L 26.557 111.112 L 26.557 111.561 C 26.557 113.326 25.916 114.944 23.713 114.944 L 22.106 114.944 L 22.106 107.796 L 26.568 107.796 C 31.592 107.796 32.12 110.325 32.457 113.011 L 34.907 113.011 L 34.907 105.268 L 13.441 105.268 L 13.441 107.796 L 15.712 107.796 C 16.734 107.796 17.307 108.257 17.307 109.078 L 17.307 123.733 C 17.307 124.688 16.79 125.407 15.577 125.407 L 13.441 125.407 L 13.441 127.958 L 25.983 127.958 Z  M 120.961 104.582 C 113.521 104.582 108.598 109.786 108.598 116.607 C 108.598 123.418 113.521 128.666 120.961 128.666 C 128.378 128.666 133.312 123.418 133.312 116.607 C 133.312 109.786 128.378 104.582 120.961 104.582 Z  M 120.961 107.257 C 126.333 107.257 127.94 111.718 127.94 116.607 C 127.94 121.496 126.333 125.969 120.961 125.969 C 115.555 125.969 113.959 121.496 113.959 116.607 C 113.959 111.718 115.555 107.257 120.961 107.257 Z  M 100.034 107.122 C 99.54 106.684 97.416 104.582 93.224 104.582 C 86.514 104.582 82.3 109.696 82.3 116.607 C 82.3 123.575 86.582 128.666 93.224 128.666 C 97.495 128.666 99.81 126.711 100.338 126.227 L 101.608 127.958 L 103.934 127.958 L 103.934 120.091 C 103.934 118.754 104.429 118.394 105.755 118.394 L 106.384 118.394 L 106.384 115.854 L 95.91 115.854 L 95.91 118.394 L 97.461 118.394 C 98.585 118.394 99.27 118.9 99.27 120.001 L 99.27 121.327 C 99.27 123.923 97.674 125.733 94.201 125.733 C 89.852 125.733 87.672 121.822 87.672 116.607 C 87.672 111.471 89.852 107.538 94.067 107.538 C 98.461 107.538 99.956 111.628 100.461 113.011 L 103.271 113.011 L 103.271 105.268 L 100.877 105.268 L 100.034 107.122 Z  M 81.165 122.631 L 81.165 123.249 C 81.165 127.16 79.299 128.666 76.467 128.666 C 73.152 128.666 72.039 127.071 72.039 123.98 L 72.039 122.8 C 72.039 118.9 70.376 117.327 66.577 117.327 L 64.779 117.327 L 64.779 124.182 C 64.779 125.093 65.195 125.407 66.184 125.407 L 68.679 125.407 L 68.679 127.958 L 46.022 127.958 L 46.022 125.407 L 48.539 125.407 C 49.236 125.407 49.495 125.239 49.495 124.834 C 49.495 124.621 49.427 124.272 49.293 123.901 C 49.169 123.598 48.101 120.676 48.101 120.676 L 40.009 120.676 C 40.009 120.676 39.009 123.373 38.84 123.823 C 38.728 124.159 38.638 124.441 38.638 124.767 C 38.638 125.25 39.043 125.407 39.717 125.407 L 42.122 125.407 L 42.122 127.958 L 31.446 127.958 L 31.446 125.407 C 33.255 125.407 34.401 125.149 35.042 123.564 L 42.28 105.268 L 46.629 105.268 L 54.046 123.564 C 54.664 125.171 55.833 125.407 57.643 125.407 L 58.564 125.407 C 59.542 125.407 59.98 125.093 59.98 124.182 L 59.98 109.032 C 59.98 108.122 59.632 107.796 58.564 107.796 L 56.182 107.796 L 56.182 105.268 L 71.084 105.268 C 76.029 105.268 78.355 107.605 78.355 111.145 C 78.355 115.54 73.983 116.405 71.938 116.517 L 71.938 116.574 C 74.332 116.753 76.355 117.742 76.355 121.238 L 76.355 122.564 C 76.355 124.89 76.849 125.407 77.67 125.407 C 78.479 125.407 78.906 124.767 78.906 123.249 L 78.906 122.631 L 81.165 122.631 Z  M 47.168 118.158 L 44.111 109.898 L 44.01 109.898 L 40.954 118.158 L 47.168 118.158 Z  M 73.59 111.292 C 73.59 109.302 72.163 107.796 68.993 107.796 L 64.779 107.796 L 64.779 114.798 L 68.993 114.798 C 71.915 114.798 73.59 113.483 73.59 111.292 Z " fill="rgb(255,204,2)"/><path d=" M 52.259 72.451 L 52.259 79.576 L 53.889 79.576 C 55.946 79.576 56.878 78.576 56.878 75.777 L 56.878 75.339 L 59.272 75.339 L 59.272 86.398 L 56.878 86.398 L 56.878 85.926 C 56.878 83.15 55.946 82.094 53.889 82.094 L 52.259 82.094 L 52.259 90.062 L 59.092 90.062 C 62.206 90.062 63.329 88.005 63.7 84.072 L 66.184 84.072 L 66.184 92.602 L 43.741 92.602 L 43.741 90.062 L 45.64 90.062 C 46.82 90.062 47.449 89.736 47.449 87.679 L 47.449 74.384 C 47.449 72.9 46.775 72.451 45.19 72.451 L 44.493 72.451 C 42.864 72.451 42.088 72.833 41.515 74.53 L 35.323 92.602 L 30.614 92.602 L 27.029 80.824 L 26.961 80.824 L 22.983 92.602 L 18.218 92.602 L 11.789 73.665 C 11.508 72.732 11.025 72.451 9.721 72.451 L 9.249 72.451 L 9.249 69.922 L 19.162 69.922 L 19.162 72.451 L 17.723 72.451 C 16.97 72.451 16.667 72.9 16.667 73.35 C 16.667 73.687 16.79 74.114 16.97 74.586 L 21.263 87.241 L 21.331 87.241 L 25.421 75.339 L 24.849 73.721 C 24.5 72.709 23.815 72.451 22.814 72.451 L 22.005 72.451 L 22.005 69.922 L 32.244 69.922 L 32.244 72.451 L 30.434 72.451 C 29.737 72.451 29.468 72.754 29.468 73.204 C 29.468 73.552 29.636 74.036 29.749 74.361 L 33.502 87.016 L 33.57 87.016 L 37.93 74.654 C 38.065 74.249 38.189 73.912 38.189 73.485 C 38.189 72.945 37.93 72.451 36.728 72.451 L 35.076 72.451 L 35.076 69.922 L 66.184 69.922 L 66.184 77.677 L 63.633 77.677 C 63.116 74.395 62.823 72.451 58.272 72.451 L 52.259 72.451 Z  M 89.538 92.602 L 89.538 84.072 L 86.919 84.072 C 86.571 87.972 85.863 90.062 82.311 90.062 L 77.153 90.062 L 77.153 74.024 C 77.153 72.766 77.67 72.451 79.176 72.451 L 81.098 72.451 L 81.098 69.922 L 68.567 69.922 L 68.567 72.451 L 70.545 72.451 C 71.915 72.451 72.376 72.9 72.376 73.934 L 72.376 88.544 C 72.376 89.736 71.725 90.062 70.758 90.062 L 68.567 90.062 L 68.567 92.602 L 89.538 92.602 Z  M 112.813 92.602 L 112.813 84.072 L 110.183 84.072 C 109.834 87.972 109.104 90.062 105.598 90.062 L 100.428 90.062 L 100.428 74.024 C 100.428 72.766 100.945 72.451 102.451 72.451 L 104.361 72.451 L 104.361 69.922 L 91.819 69.922 L 91.819 72.451 L 93.808 72.451 C 95.191 72.451 95.651 72.9 95.651 73.934 L 95.651 88.544 C 95.651 89.736 94.988 90.062 94.033 90.062 L 91.819 90.062 L 91.819 92.602 L 112.813 92.602 Z  M 130.075 71.63 C 129.862 71.417 127.771 69.248 123.692 69.248 C 119.41 69.248 115.083 71.417 115.083 76.07 C 115.083 80.284 118.443 82.206 122.309 83.038 C 123.59 83.307 124.355 83.453 125.524 83.701 C 128.423 84.319 130.356 85.196 130.356 87.207 C 130.356 88.736 128.738 90.376 125.535 90.376 C 121.062 90.376 118.409 87.882 117.859 84.072 L 115.229 84.072 L 115.229 92.602 L 117.555 92.602 L 118.308 90.568 C 118.859 91.051 121.039 93.276 125.186 93.276 C 130.468 93.276 134.458 90.927 134.458 86.286 C 134.458 81.79 130.738 79.857 126.198 78.947 C 125.389 78.745 124.647 78.621 123.815 78.43 C 120.994 77.823 119.185 77.126 119.185 75.103 C 119.185 73.35 121.039 72.148 123.826 72.148 C 128.018 72.148 129.637 74.811 130.502 77.677 L 133.053 77.677 L 133.053 69.922 L 131.21 69.922 L 130.075 71.63 Z  M 25.983 127.958 L 25.983 125.407 L 24.275 125.407 C 22.691 125.407 22.106 124.935 22.106 123.654 L 22.106 117.473 L 23.511 117.473 C 25.635 117.473 26.557 118.394 26.557 120.799 L 26.557 121.552 L 28.939 121.552 L 28.939 111.112 L 26.557 111.112 L 26.557 111.561 C 26.557 113.326 25.916 114.944 23.713 114.944 L 22.106 114.944 L 22.106 107.796 L 26.568 107.796 C 31.592 107.796 32.12 110.325 32.457 113.011 L 34.907 113.011 L 34.907 105.268 L 13.441 105.268 L 13.441 107.796 L 15.712 107.796 C 16.734 107.796 17.307 108.257 17.307 109.078 L 17.307 123.733 C 17.307 124.688 16.79 125.407 15.577 125.407 L 13.441 125.407 L 13.441 127.958 L 25.983 127.958 Z  M 120.961 104.582 C 113.521 104.582 108.598 109.786 108.598 116.607 C 108.598 123.418 113.521 128.666 120.961 128.666 C 128.378 128.666 133.312 123.418 133.312 116.607 C 133.312 109.786 128.378 104.582 120.961 104.582 Z  M 120.961 107.257 C 126.333 107.257 127.94 111.718 127.94 116.607 C 127.94 121.496 126.333 125.969 120.961 125.969 C 115.555 125.969 113.959 121.496 113.959 116.607 C 113.959 111.718 115.555 107.257 120.961 107.257 Z  M 100.034 107.122 C 99.54 106.684 97.416 104.582 93.224 104.582 C 86.514 104.582 82.3 109.696 82.3 116.607 C 82.3 123.575 86.582 128.666 93.224 128.666 C 97.495 128.666 99.81 126.711 100.338 126.227 L 101.608 127.958 L 103.934 127.958 L 103.934 120.091 C 103.934 118.754 104.429 118.394 105.755 118.394 L 106.384 118.394 L 106.384 115.854 L 95.91 115.854 L 95.91 118.394 L 97.461 118.394 C 98.585 118.394 99.27 118.9 99.27 120.001 L 99.27 121.327 C 99.27 123.923 97.674 125.733 94.201 125.733 C 89.852 125.733 87.672 121.822 87.672 116.607 C 87.672 111.471 89.852 107.538 94.067 107.538 C 98.461 107.538 99.956 111.628 100.461 113.011 L 103.271 113.011 L 103.271 105.268 L 100.877 105.268 L 100.034 107.122 Z  M 81.165 122.631 L 81.165 123.249 C 81.165 127.16 79.299 128.666 76.467 128.666 C 73.152 128.666 72.039 127.071 72.039 123.98 L 72.039 122.8 C 72.039 118.9 70.376 117.327 66.577 117.327 L 64.779 117.327 L 64.779 124.182 C 64.779 125.093 65.195 125.407 66.184 125.407 L 68.679 125.407 L 68.679 127.958 L 46.022 127.958 L 46.022 125.407 L 48.539 125.407 C 49.236 125.407 49.495 125.239 49.495 124.834 C 49.495 124.621 49.427 124.272 49.293 123.901 C 49.169 123.598 48.101 120.676 48.101 120.676 L 40.009 120.676 C 40.009 120.676 39.009 123.373 38.84 123.823 C 38.728 124.159 38.638 124.441 38.638 124.767 C 38.638 125.25 39.043 125.407 39.717 125.407 L 42.122 125.407 L 42.122 127.958 L 31.446 127.958 L 31.446 125.407 C 33.255 125.407 34.401 125.149 35.042 123.564 L 42.28 105.268 L 46.629 105.268 L 54.046 123.564 C 54.664 125.171 55.833 125.407 57.643 125.407 L 58.564 125.407 C 59.542 125.407 59.98 125.093 59.98 124.182 L 59.98 109.032 C 59.98 108.122 59.632 107.796 58.564 107.796 L 56.182 107.796 L 56.182 105.268 L 71.084 105.268 C 76.029 105.268 78.355 107.605 78.355 111.145 C 78.355 115.54 73.983 116.405 71.938 116.517 L 71.938 116.574 C 74.332 116.753 76.355 117.742 76.355 121.238 L 76.355 122.564 C 76.355 124.89 76.849 125.407 77.67 125.407 C 78.479 125.407 78.906 124.767 78.906 123.249 L 78.906 122.631 L 81.165 122.631 Z  M 47.168 118.158 L 44.111 109.898 L 44.01 109.898 L 40.954 118.158 L 47.168 118.158 Z  M 73.59 111.292 C 73.59 109.302 72.163 107.796 68.993 107.796 L 64.779 107.796 L 64.779 114.798 L 68.993 114.798 C 71.915 114.798 73.59 113.483 73.59 111.292 Z " fill="rgb(255,255,255)"/></g></g></g></g></svg>