<?xml version="1.0" standalone="no"?><!-- Generator: Gravit.io --><svg xmlns="http://www.w3.org/2000/svg" xmlns:xlink="http://www.w3.org/1999/xlink" style="isolation:isolate" viewBox="0 0 145 200" width="145" height="200"><defs><clipPath id="_clipPath_zEgZToOzLbkFkN0JIsjHTi6ZFSmtL82u"><rect width="145" height="200"/></clipPath></defs><g clip-path="url(#_clipPath_zEgZToOzLbkFkN0JIsjHTi6ZFSmtL82u)"><rect width="145" height="200" style="fill:rgb(0,68,124)"/><path d=" M 106.782 130.161 C 106.782 132.675 106.477 136.847 100.584 136.847 C 99.342 136.847 96.701 136.84 95.121 135.239 C 94.116 134.227 93.651 132.601 93.651 130.153 L 93.651 121.324 C 93.651 120.5 93.132 120.271 91.862 120.271 L 91.862 119.143 L 99.635 119.143 L 99.635 120.271 C 98.373 120.271 97.857 120.5 97.857 121.324 L 97.857 130.726 C 97.857 132.855 98.019 135.252 101.225 135.341 C 104.818 135.458 105.095 132.489 105.095 130.443 L 105.095 121.38 C 105.095 120.556 104.955 120.265 103.686 120.265 L 103.243 120.265 L 103.243 119.143 L 108.602 119.143 L 108.602 120.271 L 108.172 120.271 C 106.932 120.271 106.78 120.558 106.78 121.385 L 106.78 130.161 L 106.782 130.161 Z " fill="rgb(255,255,255)"/><path d=" M 134.12 136.374 L 125.497 136.374 L 125.497 135.27 L 126.059 135.27 C 127.372 135.27 127.703 134.736 127.703 133.919 L 127.703 120.639 L 126.016 120.639 C 125.12 120.639 124.771 120.84 124.479 121.27 C 124.156 121.734 124.156 122.924 124.135 123.749 L 122.639 123.749 L 122.639 119.143 L 137 119.143 L 137 123.751 L 135.496 123.751 C 135.476 122.929 135.476 121.736 135.148 121.273 C 134.858 120.843 134.501 120.642 133.618 120.642 L 131.911 120.642 L 131.911 133.921 C 131.911 134.738 132.242 135.272 133.552 135.272 L 134.122 135.272 L 134.122 136.374 L 134.12 136.374 Z " fill="rgb(255,255,255)"/><g><path d=" M 122.329 131.568 C 122.077 134.397 119.863 136.847 115.385 136.847 C 112.917 136.847 110.304 136.056 109.301 135.339 L 109.301 131.082 L 110.848 131.082 C 110.869 131.568 110.869 131.995 110.965 132.586 C 111.052 133.044 111.182 133.456 111.507 133.835 C 112.115 134.558 113.271 135.356 115.413 135.392 C 118.131 135.44 119.38 133.942 119.359 132.568 C 119.326 130.598 118.281 130.268 114.512 129.41 C 110.759 128.535 109.243 127.123 109.261 124.054 C 109.276 121.189 111.403 118.589 115.935 118.632 C 118.634 118.662 120.049 119.113 121.311 119.713 L 121.311 123.751 L 119.789 123.751 C 119.772 123.344 119.744 122.825 119.69 122.316 C 119.657 121.838 119.51 121.39 119.108 121.054 C 117.945 120.087 116.423 120.039 115.383 120.082 C 113.975 120.136 112.115 120.884 112.115 122.492 C 112.103 124.044 112.734 124.576 115.97 125.24 C 118.894 125.83 120.105 126.224 121.087 127.224 C 122.118 128.303 122.497 129.807 122.329 131.568 Z " fill="rgb(255,255,255)"/><path d=" M 23.987 130.341 C 23.62 133.743 20.979 136.84 15.076 136.84 C 11.842 136.84 8.494 135.822 7.183 134.848 L 7.183 129.13 L 8.985 129.13 C 9.018 129.782 9.038 130.344 9.14 130.965 C 9.234 131.547 9.433 132.176 9.809 132.68 C 10.847 133.985 12.407 134.932 15.061 134.97 C 19.01 135.018 20.318 132.736 20.297 130.799 C 20.267 128.39 18.6 127.728 14.122 126.611 C 9.837 125.543 7.023 123.95 7 119.764 C 6.982 115.787 9.842 112.635 15.661 112.635 C 19.155 112.635 21.022 113.329 22.572 114.077 L 22.572 119.141 L 20.885 119.141 C 20.86 118.622 20.837 117.904 20.709 117.309 C 20.564 116.589 20.165 115.96 19.727 115.657 C 18.277 114.66 16.913 114.416 15.165 114.492 C 12.72 114.586 10.738 115.805 10.705 117.851 C 10.667 119.902 11.463 120.853 15.758 121.79 C 19.346 122.583 21.262 123.301 22.432 124.454 C 23.999 126.041 24.241 127.988 23.987 130.341 Z " fill="rgb(255,255,255)"/></g><path d=" M 42.139 120.271 C 43.406 120.271 43.502 120.5 43.502 121.324 L 43.502 134.145 C 43.502 134.954 43.355 135.27 42.085 135.27 L 41.635 135.27 L 41.635 136.374 L 47.034 136.374 L 47.034 135.27 L 46.589 135.27 C 45.324 135.27 45.172 134.954 45.172 134.145 L 45.172 123.357 L 52.436 136.374 L 56.517 136.374 L 56.517 121.436 C 56.517 120.617 56.677 120.271 57.952 120.271 L 59.168 120.271 L 59.168 118.357 C 59.168 116.719 59.303 114.803 61.718 114.803 L 64.423 114.803 L 64.423 133.26 C 64.423 134.812 64.059 135.272 62.28 135.272 L 61.68 135.272 L 61.68 136.377 L 71.995 136.377 L 71.995 135.272 L 71.415 135.272 C 69.621 135.272 69.214 134.812 69.214 133.26 L 69.214 114.803 L 71.901 114.803 C 74.28 114.803 74.42 116.721 74.42 118.357 L 74.42 120.271 L 76.094 120.271 C 77.384 120.271 77.481 120.558 77.481 121.385 L 77.481 134.168 C 77.481 134.988 76.934 135.272 75.626 135.272 L 75.626 136.377 L 83.598 136.377 L 83.598 135.272 C 82.302 135.272 81.74 134.99 81.74 134.168 L 81.74 120.487 L 83.855 120.487 C 85.511 120.487 86.74 121.09 86.74 123.624 C 86.74 125.217 86.096 127.029 83.801 127.029 L 82.542 127.029 C 82.542 127.029 85.694 133.407 86.269 134.583 C 87.007 136.059 87.936 136.374 89.753 136.374 L 92.877 136.374 L 92.877 135.27 C 92.437 135.27 91.574 135.209 91.091 134.44 L 87.363 127.942 C 89.455 127.504 90.961 125.894 90.961 123.594 C 90.961 119.365 86.727 119.141 83.969 119.141 L 76.117 119.141 L 76.117 113.057 L 57.461 113.057 L 57.461 119.141 L 52.978 119.141 L 52.978 120.268 L 53.433 120.268 C 54.698 120.268 54.84 120.604 54.84 121.433 L 54.84 132.092 L 47.627 119.138 L 36.274 119.138 L 36.274 120.265 L 36.719 120.265 C 37.994 120.265 38.141 120.494 38.141 121.319 L 38.141 130.441 C 38.141 132.486 37.856 135.456 34.264 135.339 C 31.058 135.25 30.89 132.85 30.89 130.723 L 30.89 121.321 C 30.89 120.497 31.406 120.268 32.676 120.268 L 32.676 119.143 L 24.89 119.143 L 24.89 120.271 C 26.157 120.271 26.669 120.5 26.669 121.324 L 26.669 130.153 C 26.669 132.601 27.149 134.227 28.109 135.239 C 29.724 136.84 32.381 136.847 33.61 136.847 C 39.467 136.847 39.775 132.675 39.775 129.102 L 39.775 120.248 C 39.775 120.502 39.874 120.273 41.136 120.273 L 42.139 120.273 L 42.139 120.271 Z " fill="rgb(255,255,255)"/><g><linearGradient id="_lgradient_0" x1="-0.1774956952444402" y1="0.6831164052052183" x2="7.11071361041168" y2="-8.002645325451708" gradientTransform="matrix(2.994,0,0,15.898,22.546,89.846)" gradientUnits="userSpaceOnUse"><stop offset="34.27%" stop-opacity="1" style="stop-color:rgb(253,185,19)"/><stop offset="36.559999999999995%" stop-opacity="1" style="stop-color:rgb(251,180,21)"/><stop offset="55.19%" stop-opacity="1" style="stop-color:rgb(239,148,27)"/><stop offset="72.47%" stop-opacity="1" style="stop-color:rgb(232,128,29)"/><stop offset="87.76%" stop-opacity="1" style="stop-color:rgb(228,116,30)"/><stop offset="99.44%" stop-opacity="1" style="stop-color:rgb(227,111,30)"/></linearGradient><path d=" M 23.193 90.47 L 22.821 91.501 C 22.503 92.363 22.46 93.905 22.697 94.727 L 24.602 104.579 C 24.753 105.434 25.022 105.79 25.307 105.739 C 25.618 105.66 25.585 105.012 25.404 103.526 L 23.966 90.468 C 23.865 89.646 23.503 89.631 23.193 90.47 Z " fill="url(#_lgradient_0)"/><linearGradient id="_lgradient_1" x1="-1.8921786408148193" y1="0.9051387183382795" x2="13.076386436132676" y2="-16.933616862138866" gradientTransform="matrix(1.435,0,0,10.789,25.838,91.979)" gradientUnits="userSpaceOnUse"><stop offset="34.27%" stop-opacity="1" style="stop-color:rgb(253,185,19)"/><stop offset="36.559999999999995%" stop-opacity="1" style="stop-color:rgb(251,180,21)"/><stop offset="55.19%" stop-opacity="1" style="stop-color:rgb(239,148,27)"/><stop offset="72.47%" stop-opacity="1" style="stop-color:rgb(232,128,29)"/><stop offset="87.76%" stop-opacity="1" style="stop-color:rgb(228,116,30)"/><stop offset="99.44%" stop-opacity="1" style="stop-color:rgb(227,111,30)"/></linearGradient><path d=" M 27.231 100.821 C 27.266 101.671 27.358 102.689 27.068 102.762 C 26.798 102.818 26.633 102.488 26.493 101.391 L 25.875 95.574 C 25.765 94.74 25.908 92.974 26.218 92.356 C 26.534 91.737 26.824 91.895 26.857 92.725 L 27.231 100.821 Z " fill="url(#_lgradient_1)"/><linearGradient id="_lgradient_2" x1="-3.914423714657323" y1="1.0079605857657903" x2="7.925912579357584" y2="-13.102816399363782" gradientTransform="matrix(1.796,0,0,19.163,28.031,80.722)" gradientUnits="userSpaceOnUse"><stop offset="34.27%" stop-opacity="1" style="stop-color:rgb(253,185,19)"/><stop offset="36.559999999999995%" stop-opacity="1" style="stop-color:rgb(251,180,21)"/><stop offset="55.19%" stop-opacity="1" style="stop-color:rgb(239,148,27)"/><stop offset="72.47%" stop-opacity="1" style="stop-color:rgb(232,128,29)"/><stop offset="87.76%" stop-opacity="1" style="stop-color:rgb(228,116,30)"/><stop offset="99.44%" stop-opacity="1" style="stop-color:rgb(227,111,30)"/></linearGradient><path d=" M 29.821 81.247 L 29.078 98.195 C 29.065 98.966 29.014 99.948 28.727 99.882 C 28.567 99.844 28.373 99.396 28.358 98.623 L 28.032 84.71 C 28.012 84.018 28.277 82.875 28.648 82.183 L 29.16 81.221 C 29.531 80.547 29.88 80.557 29.821 81.247 Z " fill="url(#_lgradient_2)"/><linearGradient id="_lgradient_3" x1="-3.730063297805687" y1="1.1498614304540316" x2="7.013939746240711" y2="-11.654321406427343" gradientTransform="matrix(1.985,0,0,15.477,30.413,84.001)" gradientUnits="userSpaceOnUse"><stop offset="34.27%" stop-opacity="1" style="stop-color:rgb(253,185,19)"/><stop offset="36.559999999999995%" stop-opacity="1" style="stop-color:rgb(251,180,21)"/><stop offset="55.19%" stop-opacity="1" style="stop-color:rgb(239,148,27)"/><stop offset="72.47%" stop-opacity="1" style="stop-color:rgb(232,128,29)"/><stop offset="87.76%" stop-opacity="1" style="stop-color:rgb(228,116,30)"/><stop offset="99.44%" stop-opacity="1" style="stop-color:rgb(227,111,30)"/></linearGradient><path d=" M 32.365 84.712 L 31.213 97.638 C 31.096 98.551 30.961 99.49 30.691 99.477 C 30.508 99.472 30.348 98.902 30.439 98.048 L 30.918 86.951 C 30.999 86.15 31.539 84.946 31.882 84.33 C 32.231 83.73 32.493 84.005 32.365 84.712 Z " fill="url(#_lgradient_3)"/><linearGradient id="_lgradient_4" x1="-2.848176362536253" y1="1.1803491140417182" x2="2.760075914305755" y2="-5.503358060770864" gradientTransform="matrix(3.829,0,0,22.355,32.6,74.367)" gradientUnits="userSpaceOnUse"><stop offset="34.27%" stop-opacity="1" style="stop-color:rgb(253,185,19)"/><stop offset="36.559999999999995%" stop-opacity="1" style="stop-color:rgb(251,180,21)"/><stop offset="55.19%" stop-opacity="1" style="stop-color:rgb(239,148,27)"/><stop offset="72.47%" stop-opacity="1" style="stop-color:rgb(232,128,29)"/><stop offset="87.76%" stop-opacity="1" style="stop-color:rgb(228,116,30)"/><stop offset="99.44%" stop-opacity="1" style="stop-color:rgb(227,111,30)"/></linearGradient><path d=" M 32.803 96.722 C 32.582 96.694 32.572 95.778 32.633 95.154 L 34.444 77.265 C 34.544 76.603 35.024 75.585 35.503 74.998 L 35.676 74.784 C 36.172 74.186 36.536 74.242 36.401 74.886 L 33.348 95.175 C 33.19 96.05 33.075 96.722 32.803 96.722 Z " fill="url(#_lgradient_4)"/><linearGradient id="_lgradient_5" x1="-2.108066235851629" y1="1.2321888713932871" x2="2.3603738512931285" y2="-4.093087339732342" gradientTransform="matrix(4.885,0,0,20.358,34.256,77.619)" gradientUnits="userSpaceOnUse"><stop offset="34.27%" stop-opacity="1" style="stop-color:rgb(253,185,19)"/><stop offset="36.559999999999995%" stop-opacity="1" style="stop-color:rgb(251,180,21)"/><stop offset="55.19%" stop-opacity="1" style="stop-color:rgb(239,148,27)"/><stop offset="72.47%" stop-opacity="1" style="stop-color:rgb(232,128,29)"/><stop offset="87.76%" stop-opacity="1" style="stop-color:rgb(228,116,30)"/><stop offset="99.44%" stop-opacity="1" style="stop-color:rgb(227,111,30)"/></linearGradient><path d=" M 38.202 77.847 C 38.602 77.394 39.263 77.651 39.121 78.293 L 35.159 96.366 C 35.017 97.012 34.734 98.009 34.439 97.976 C 34.195 97.958 34.213 97.009 34.388 96.241 L 37.238 79.898 C 37.378 79.239 37.795 78.29 38.202 77.847 Z " fill="url(#_lgradient_5)"/><linearGradient id="_lgradient_6" x1="-0.9278086505246015" y1="1.2606445194223674" x2="1.007143576418637" y2="-1.0453449196856983" gradientTransform="matrix(12.265,0,0,26.813,37.483,70.714)" gradientUnits="userSpaceOnUse"><stop offset="34.27%" stop-opacity="1" style="stop-color:rgb(253,185,19)"/><stop offset="36.559999999999995%" stop-opacity="1" style="stop-color:rgb(251,180,21)"/><stop offset="55.19%" stop-opacity="1" style="stop-color:rgb(239,148,27)"/><stop offset="72.47%" stop-opacity="1" style="stop-color:rgb(232,128,29)"/><stop offset="87.76%" stop-opacity="1" style="stop-color:rgb(228,116,30)"/><stop offset="99.44%" stop-opacity="1" style="stop-color:rgb(227,111,30)"/></linearGradient><path d=" M 38.607 96.157 C 38.319 96.78 37.966 97.676 37.564 97.506 C 37.274 97.391 37.856 95.979 37.856 95.979 L 47.68 72.018 C 47.996 71.321 48.698 70.428 49.464 70.802 C 50.148 71.133 49.413 72.481 49.143 73.089 C 43.187 86.481 41.49 89.938 38.607 96.157 Z " fill="url(#_lgradient_6)"/><linearGradient id="_lgradient_7" x1="-0.6857087502433175" y1="1.319285282530933" x2="0.6138014020017264" y2="-0.22940365665417461" gradientTransform="matrix(19.568,0,0,33.006,40.737,62)" gradientUnits="userSpaceOnUse"><stop offset="34.27%" stop-opacity="1" style="stop-color:rgb(253,185,19)"/><stop offset="36.559999999999995%" stop-opacity="1" style="stop-color:rgb(251,180,21)"/><stop offset="55.19%" stop-opacity="1" style="stop-color:rgb(239,148,27)"/><stop offset="72.47%" stop-opacity="1" style="stop-color:rgb(232,128,29)"/><stop offset="87.76%" stop-opacity="1" style="stop-color:rgb(228,116,30)"/><stop offset="99.44%" stop-opacity="1" style="stop-color:rgb(227,111,30)"/></linearGradient><path d=" M 40.816 94.976 C 41.05 95.154 41.602 94.498 42.032 93.753 L 60.016 63.797 C 60.334 63.258 60.517 62.39 59.871 62.067 C 59.367 61.815 58.497 62.306 58.085 63.036 L 41.37 93.211 C 40.879 94.119 40.589 94.796 40.816 94.976 Z " fill="url(#_lgradient_7)"/><linearGradient id="_lgradient_8" x1="-0.46741048616229386" y1="1.3222071917092364" x2="0.7406799604382581" y2="-0.11752895575455535" gradientTransform="matrix(22.783,0,0,31.001,41.161,67.256)" gradientUnits="userSpaceOnUse"><stop offset="34.27%" stop-opacity="1" style="stop-color:rgb(253,185,19)"/><stop offset="36.559999999999995%" stop-opacity="1" style="stop-color:rgb(251,180,21)"/><stop offset="55.19%" stop-opacity="1" style="stop-color:rgb(239,148,27)"/><stop offset="72.47%" stop-opacity="1" style="stop-color:rgb(232,128,29)"/><stop offset="87.76%" stop-opacity="1" style="stop-color:rgb(228,116,30)"/><stop offset="99.44%" stop-opacity="1" style="stop-color:rgb(227,111,30)"/></linearGradient><path d=" M 41.23 98.205 C 40.996 97.974 41.396 97.233 41.877 96.488 L 61.082 68.614 C 61.601 67.825 62.746 66.952 63.448 67.359 C 64.084 67.728 64.095 68.522 63.558 69.267 L 42.594 97.017 C 42.075 97.765 41.475 98.452 41.23 98.205 Z " fill="url(#_lgradient_8)"/><linearGradient id="_lgradient_9" x1="-0.34595260483602464" y1="1.464594212172975" x2="0.6432902934850518" y2="0.28565948291784715" gradientTransform="matrix(31.059,0,0,33.57,45.302,62.478)" gradientUnits="userSpaceOnUse"><stop offset="34.27%" stop-opacity="1" style="stop-color:rgb(253,185,19)"/><stop offset="36.559999999999995%" stop-opacity="1" style="stop-color:rgb(251,180,21)"/><stop offset="55.19%" stop-opacity="1" style="stop-color:rgb(239,148,27)"/><stop offset="72.47%" stop-opacity="1" style="stop-color:rgb(232,128,29)"/><stop offset="87.76%" stop-opacity="1" style="stop-color:rgb(228,116,30)"/><stop offset="99.44%" stop-opacity="1" style="stop-color:rgb(227,111,30)"/></linearGradient><path d=" M 46.912 94.974 C 46.912 94.974 45.642 96.302 45.378 96.004 C 45.103 95.717 45.619 95.16 46.179 94.445 L 46.808 93.686 L 73.646 62.904 C 74.079 62.375 74.669 62.349 75.237 62.769 L 76.048 63.769 C 76.491 64.273 76.46 65.146 75.972 65.634 L 46.912 94.974 Z " fill="url(#_lgradient_9)"/><linearGradient id="_lgradient_10" x1="-0.21258394948241932" y1="1.5115225806129793" x2="0.7791667822845207" y2="0.3296058044092076" gradientTransform="matrix(32.271,0,0,28.219,44.687,71.748)" gradientUnits="userSpaceOnUse"><stop offset="34.27%" stop-opacity="1" style="stop-color:rgb(253,185,19)"/><stop offset="36.559999999999995%" stop-opacity="1" style="stop-color:rgb(251,180,21)"/><stop offset="55.19%" stop-opacity="1" style="stop-color:rgb(239,148,27)"/><stop offset="72.47%" stop-opacity="1" style="stop-color:rgb(232,128,29)"/><stop offset="87.76%" stop-opacity="1" style="stop-color:rgb(228,116,30)"/><stop offset="99.44%" stop-opacity="1" style="stop-color:rgb(227,111,30)"/></linearGradient><path d=" M 44.736 99.91 C 44.528 99.701 44.993 99.081 45.846 98.33 L 74.341 72.145 C 74.852 71.619 75.567 71.636 76.028 72.079 C 76.626 72.649 76.829 73.178 76.926 73.682 C 77.086 74.509 76.626 74.875 76.041 75.4 L 46.362 99.03 C 45.63 99.676 44.978 100.134 44.736 99.91 Z " fill="url(#_lgradient_10)"/><linearGradient id="_lgradient_11" x1="-0.18622076391612963" y1="1.7483355666910776" x2="0.6825304680964036" y2="0.7129941601717256" gradientTransform="matrix(36.716,0,0,25.571,49.257,73.561)" gradientUnits="userSpaceOnUse"><stop offset="34.27%" stop-opacity="1" style="stop-color:rgb(253,185,19)"/><stop offset="36.559999999999995%" stop-opacity="1" style="stop-color:rgb(251,180,21)"/><stop offset="55.19%" stop-opacity="1" style="stop-color:rgb(239,148,27)"/><stop offset="72.47%" stop-opacity="1" style="stop-color:rgb(232,128,29)"/><stop offset="87.76%" stop-opacity="1" style="stop-color:rgb(228,116,30)"/><stop offset="99.44%" stop-opacity="1" style="stop-color:rgb(227,111,30)"/></linearGradient><path d=" M 50.642 97.567 L 83.796 73.873 C 84.43 73.374 85.007 73.489 85.167 74.115 L 85.936 76.768 C 86.111 77.425 85.648 78.303 84.972 78.779 L 51.212 98.34 C 50.383 98.869 49.52 99.335 49.306 99.042 C 49.044 98.679 49.879 98.187 50.642 97.567 Z " fill="url(#_lgradient_11)"/><linearGradient id="_lgradient_12" x1="-0.09002697492238099" y1="2.0213590619704798" x2="0.8731930471722469" y2="0.8734391021892867" gradientTransform="matrix(32.945,0,0,16.594,47.105,86.132)" gradientUnits="userSpaceOnUse"><stop offset="34.27%" stop-opacity="1" style="stop-color:rgb(253,185,19)"/><stop offset="36.559999999999995%" stop-opacity="1" style="stop-color:rgb(251,180,21)"/><stop offset="55.19%" stop-opacity="1" style="stop-color:rgb(239,148,27)"/><stop offset="72.47%" stop-opacity="1" style="stop-color:rgb(232,128,29)"/><stop offset="87.76%" stop-opacity="1" style="stop-color:rgb(228,116,30)"/><stop offset="99.44%" stop-opacity="1" style="stop-color:rgb(227,111,30)"/></linearGradient><path d=" M 47.113 102.541 C 47.014 102.154 47.889 101.793 48.815 101.317 L 78.483 86.358 C 79.287 85.918 79.921 86.142 79.916 86.837 L 80.051 90.132 C 80.038 90.852 79.28 91.737 78.359 92.106 L 49.115 102.281 C 48.09 102.678 47.2 102.91 47.113 102.541 Z " fill="url(#_lgradient_12)"/><linearGradient id="_lgradient_13" x1="-0.07415169977159963" y1="2.889708268706982" x2="0.8737176967998176" y2="1.7600829455554914" gradientTransform="matrix(33.262,0,0,10.318,51.193,93.693)" gradientUnits="userSpaceOnUse"><stop offset="34.27%" stop-opacity="1" style="stop-color:rgb(253,185,19)"/><stop offset="36.559999999999995%" stop-opacity="1" style="stop-color:rgb(251,180,21)"/><stop offset="55.19%" stop-opacity="1" style="stop-color:rgb(239,148,27)"/><stop offset="72.47%" stop-opacity="1" style="stop-color:rgb(232,128,29)"/><stop offset="87.76%" stop-opacity="1" style="stop-color:rgb(228,116,30)"/><stop offset="99.44%" stop-opacity="1" style="stop-color:rgb(227,111,30)"/></linearGradient><path d=" M 81.88 99.704 L 53.232 103.803 C 52.11 103.976 51.286 104.157 51.199 103.828 C 51.103 103.432 52.059 103.19 53.108 102.836 L 82.829 93.811 C 83.786 93.493 84.536 93.842 84.447 94.582 L 84.025 97.984 C 83.933 98.768 82.979 99.546 81.88 99.704 Z " fill="url(#_lgradient_13)"/><linearGradient id="_lgradient_14" x1="-0.008526665824270863" y1="4.969995308436548" x2="1.0491903727200627" y2="3.7094554267767936" gradientTransform="matrix(29.562,0,0,4.205,49.283,102.822)" gradientUnits="userSpaceOnUse"><stop offset="34.27%" stop-opacity="1" style="stop-color:rgb(253,185,19)"/><stop offset="36.559999999999995%" stop-opacity="1" style="stop-color:rgb(251,180,21)"/><stop offset="55.19%" stop-opacity="1" style="stop-color:rgb(239,148,27)"/><stop offset="72.47%" stop-opacity="1" style="stop-color:rgb(232,128,29)"/><stop offset="87.76%" stop-opacity="1" style="stop-color:rgb(228,116,30)"/><stop offset="99.44%" stop-opacity="1" style="stop-color:rgb(227,111,30)"/></linearGradient><path d=" M 49.286 106.584 C 49.207 106.162 50.632 105.923 51.734 105.808 L 77.071 102.836 C 78.203 102.722 79.132 103.325 78.763 104.307 L 78.249 105.643 C 77.946 106.498 77.015 107.093 75.84 107.014 L 51.553 107.024 C 50.489 107.04 49.367 107.006 49.286 106.584 Z " fill="url(#_lgradient_14)"/><linearGradient id="_lgradient_15" x1="-1.4070680040975498" y1="1.25034363494174" x2="0.9742161365572046" y2="-1.5875797255966009" gradientTransform="matrix(9.461,0,0,28.13,36.634,67.005)" gradientUnits="userSpaceOnUse"><stop offset="34.27%" stop-opacity="1" style="stop-color:rgb(253,185,19)"/><stop offset="36.559999999999995%" stop-opacity="1" style="stop-color:rgb(251,180,21)"/><stop offset="55.19%" stop-opacity="1" style="stop-color:rgb(239,148,27)"/><stop offset="72.47%" stop-opacity="1" style="stop-color:rgb(232,128,29)"/><stop offset="87.76%" stop-opacity="1" style="stop-color:rgb(228,116,30)"/><stop offset="99.44%" stop-opacity="1" style="stop-color:rgb(227,111,30)"/></linearGradient><path d=" M 45.78 69.01 C 45.78 69.01 38.442 91.557 38.019 92.77 C 37.569 94.071 37.131 95.228 36.747 95.129 C 36.5 95.055 36.694 94.228 36.968 93.231 L 43.915 68.769 C 44.245 67.782 45.278 66.929 45.683 67.011 C 46.413 67.151 45.993 68.387 45.78 69.01 Z " fill="url(#_lgradient_15)"/></g></g></svg>