<?xml version="1.0" standalone="no"?><!-- Generator: Gravit.io --><svg xmlns="http://www.w3.org/2000/svg" xmlns:xlink="http://www.w3.org/1999/xlink" style="isolation:isolate" viewBox="0 0 145 200" width="145" height="200"><defs><clipPath id="_clipPath_K9Pk19MJEekt92bIjD5j1NLs3Puo5Jzq"><rect width="145" height="200"/></clipPath></defs><g clip-path="url(#_clipPath_K9Pk19MJEekt92bIjD5j1NLs3Puo5Jzq)"><rect width="145" height="200" style="fill:rgb(17,122,202)"/><clipPath id="_clipPath_B3TsVUoVfh0VqvDdOCabCuIHXZLmvUGd"><rect x="0" y="58" width="145" height="84" transform="matrix(1,0,0,1,0,0)" fill="rgb(255,255,255)"/></clipPath><g clip-path="url(#_clipPath_B3TsVUoVfh0VqvDdOCabCuIHXZLmvUGd)"><g><rect x="0" y="58" width="145" height="84" transform="matrix(1,0,0,1,0,0)" fill="rgb(17,122,202)"/><g><g><g><path d=" M 63.511 68.275 C 62.255 68.275 61.237 69.293 61.237 70.547 L 61.237 86.486 L 103.339 86.486 L 84.166 68.276 L 63.511 68.275 Z " fill="rgb(255,255,255)"/><path d=" M 104.88 91.308 C 104.88 90.05 103.869 89.037 102.606 89.037 L 86.672 89.037 L 86.672 131.14 L 104.872 111.958 L 104.88 91.308 Z " fill="rgb(255,255,255)"/><path d=" M 81.844 132.665 C 83.097 132.665 84.115 131.645 84.115 130.388 L 84.115 114.455 L 42.011 114.455 L 61.187 132.662 L 81.844 132.665 Z " fill="rgb(255,255,255)"/><path d=" M 40.472 109.635 C 40.472 110.891 41.49 111.914 42.749 111.914 L 58.681 111.914 L 58.681 69.808 L 40.475 88.984 L 40.472 109.635 Z " fill="rgb(255,255,255)"/></g></g></g></g></g></g></svg>