<?xml version="1.0" standalone="no"?><!-- Generator: Gravit.io --><svg xmlns="http://www.w3.org/2000/svg" xmlns:xlink="http://www.w3.org/1999/xlink" style="isolation:isolate" viewBox="0 0 145 200" width="145" height="200"><defs><clipPath id="_clipPath_mjO8FrrtDVYnO4h0jhbD8vodgQqphaKv"><rect width="145" height="200"/></clipPath></defs><g clip-path="url(#_clipPath_mjO8FrrtDVYnO4h0jhbD8vodgQqphaKv)"><rect width="145" height="200" style="fill:rgb(26,85,155)"/><path d=" M 121.618 105.735 L 110.524 105.735 L 116.03 87.331 L 121.618 105.735 Z  M 119.873 80.008 C 122.856 80.008 123.624 80.754 124.758 84.122 L 137 120.346 L 126.095 120.346 L 123.435 111.638 L 108.756 111.638 L 106.11 120.346 L 99.817 120.346 L 112.162 80.005 L 119.873 80.008 Z " fill-rule="evenodd" fill="rgb(255,255,255)"/><path d=" M 56.064 97.757 L 59.432 92.736 C 60.284 91.475 60.461 90.685 60.461 89.801 C 60.461 87.336 58.297 85.266 55.797 85.266 L 50.622 85.266 L 50.622 114.944 L 53.49 114.944 C 58.288 114.944 61.928 112.353 61.928 106.285 C 61.928 101.282 59.581 98.609 56.064 97.757 Z  M 58.079 120.362 L 41.134 120.362 L 41.134 80 L 58.697 80 C 66.934 80 69.802 86.712 65.633 92.901 L 63.66 95.827 C 77.478 102.999 72.983 120.362 58.079 120.362 Z " fill-rule="evenodd" fill="rgb(255,255,255)"/><path d=" M 21.936 97.757 L 25.301 92.736 C 26.151 91.475 26.33 90.685 26.33 89.801 C 26.33 87.336 24.162 85.266 21.67 85.266 L 16.491 85.266 L 16.491 114.944 L 19.358 114.944 C 24.156 114.944 27.796 112.353 27.796 106.285 C 27.796 101.282 25.446 98.609 21.936 97.757 Z  M 23.948 120.362 L 7 120.362 L 7 80 L 24.569 80 C 32.803 80 35.673 86.712 31.503 92.901 L 29.53 95.827 C 43.345 102.999 38.852 120.362 23.948 120.362 Z " fill-rule="evenodd" fill="rgb(255,255,255)"/><path d=" M 98.168 80 L 104.539 80 L 92.242 120.342 L 82.559 120.337 L 69.365 80.005 L 76.497 80 C 79.247 80 79.972 80.709 81.412 85.28 L 89.047 110.644 L 98.168 80 Z " fill="rgb(255,255,255)"/></g></svg>