<?xml version="1.0" standalone="no"?><!-- Generator: Gravit.io --><svg xmlns="http://www.w3.org/2000/svg" xmlns:xlink="http://www.w3.org/1999/xlink" style="isolation:isolate" viewBox="0 0 145 200" width="145" height="200"><defs><clipPath id="_clipPath_jEiWAcBxgAvMzRv5U6wUPUywkasW7zAL"><rect width="145" height="200"/></clipPath></defs><g clip-path="url(#_clipPath_jEiWAcBxgAvMzRv5U6wUPUywkasW7zAL)"><rect width="145" height="200" style="fill:rgb(0,59,112)"/><path d=" M 50.994 121.248 L 50.798 121.438 C 47.626 124.669 43.955 126.382 40.173 126.382 C 32.278 126.382 26.547 120.459 26.547 112.287 C 26.547 104.129 32.278 98.198 40.173 98.198 C 43.955 98.198 47.626 99.917 50.798 103.157 L 50.994 103.353 L 56.072 97.214 L 55.936 97.047 C 51.713 92.057 46.647 89.628 40.418 89.628 C 34.168 89.628 28.454 91.731 24.336 95.525 C 19.862 99.633 17.5 105.426 17.5 112.287 C 17.5 119.143 19.862 124.951 24.336 129.06 C 28.454 132.871 34.168 134.963 40.418 134.963 C 46.647 134.963 51.713 132.535 55.936 127.543 L 56.072 127.388 L 50.994 121.248 Z " fill="rgb(255,255,255)"/><path d=" M 61.203 134.128 L 70.173 134.128 L 70.173 90.339 L 61.203 90.339 L 61.203 134.128 Z " fill="rgb(255,255,255)"/><path d=" M 105.309 124.606 C 102.916 126.063 100.688 126.796 98.688 126.796 C 95.79 126.796 94.481 125.266 94.481 121.859 L 94.481 98.625 L 103.616 98.625 L 103.616 90.379 L 94.481 90.379 L 94.481 76.754 L 85.689 81.46 L 85.689 90.379 L 78.104 90.379 L 78.104 98.625 L 85.689 98.625 L 85.689 123.341 C 85.689 130.075 89.678 134.676 95.632 134.795 C 99.675 134.874 102.113 133.67 103.593 132.79 L 103.68 132.725 L 105.839 124.282 L 105.309 124.606 L 105.309 124.606 Z " fill="rgb(255,255,255)"/><path d=" M 112.738 134.128 L 121.714 134.128 L 121.714 90.339 L 112.738 90.339 L 112.738 134.128 Z " fill="rgb(255,255,255)"/><path d=" M 127.087 82.57 C 118.875 70.939 105.239 64 91.365 64 C 77.497 64 63.858 70.939 55.661 82.57 L 55.24 83.168 L 65.579 83.168 L 65.694 83.044 C 72.73 75.781 81.916 71.94 91.365 71.94 C 100.815 71.94 109.999 75.781 117.05 83.044 L 117.164 83.168 L 127.5 83.168 L 127.087 82.57 Z " fill-rule="evenodd" fill="rgb(255,255,255)"/></g></svg>