<?xml version="1.0" standalone="no"?><!-- Generator: Gravit.io --><svg xmlns="http://www.w3.org/2000/svg" xmlns:xlink="http://www.w3.org/1999/xlink" style="isolation:isolate" viewBox="0 0 145 200" width="145" height="200"><defs><clipPath id="_clipPath_7CLqj58klgsrE7fECIFbtb8jTdy1cF8Z"><rect width="145" height="200"/></clipPath></defs><g clip-path="url(#_clipPath_7CLqj58klgsrE7fECIFbtb8jTdy1cF8Z)"><rect width="145" height="200" style="fill:rgb(84,184,72)"/><rect x="1.796" y="40.648" width="141.705" height="118.636" transform="matrix(1,0,0,1,0,0)" fill="rgb(255,255,255)"/><path d=" M 0 160.932 L 145 160.932 L 145 39 L 0 39 L 0 160.932 Z  M 95.183 134.555 L 61.404 134.555 L 61.404 77.329 L 78.373 77.329 L 78.373 124.431 L 94.685 124.431 C 105.949 124.431 110.684 117.069 110.684 98.193 C 110.684 79.172 105.296 73.648 93.874 73.648 L 56.672 73.648 L 56.672 134.555 L 39.862 134.555 L 39.862 73.648 L 15.222 73.648 L 15.222 63.515 L 99.091 63.515 C 119.328 63.515 128.954 73.332 128.954 98.041 C 128.954 130.564 114.593 134.555 95.183 134.555 Z " fill="rgb(84,184,72)"/></g></svg>