<?xml version="1.0" standalone="no"?><!-- Generator: Gravit.io --><svg xmlns="http://www.w3.org/2000/svg" xmlns:xlink="http://www.w3.org/1999/xlink" style="isolation:isolate" viewBox="0 0 411.024 566.929" width="411.024" height="566.929"><defs><clipPath id="_clipPath_eVMwJutFFhpgCG8jWK1i52nNKJ7oHHmL"><rect width="411.024" height="566.929"/></clipPath></defs><g clip-path="url(#_clipPath_eVMwJutFFhpgCG8jWK1i52nNKJ7oHHmL)"><rect width="411.024" height="566.929" style="fill:rgb(179,30,48)"/><g><path d=" M 0 487.024 L 411.024 487.024 L 411.024 76 L 0 76 L 0 487.024 Z " fill="rgb(179,30,48)"/><path d=" M 148.137 205.373 L 148.137 225.57 L 152.756 225.57 C 158.586 225.57 161.23 222.735 161.23 214.802 L 161.23 213.56 L 168.016 213.56 L 168.016 244.908 L 161.23 244.908 L 161.23 243.57 C 161.23 235.701 158.586 232.706 152.756 232.706 L 148.137 232.706 L 148.137 255.293 L 167.506 255.293 C 176.331 255.293 179.516 249.463 180.568 238.313 L 187.608 238.313 L 187.608 262.493 L 123.989 262.493 L 123.989 255.293 L 129.373 255.293 C 132.718 255.293 134.502 254.369 134.502 248.539 L 134.502 210.852 C 134.502 206.647 132.59 205.373 128.098 205.373 L 126.123 205.373 C 121.504 205.373 119.306 206.456 117.681 211.266 L 100.128 262.493 L 86.779 262.493 L 76.617 229.106 L 76.426 229.106 L 65.149 262.493 L 51.641 262.493 L 33.419 208.813 C 32.622 206.169 31.252 205.373 27.557 205.373 L 26.219 205.373 L 26.219 198.205 L 54.317 198.205 L 54.317 205.373 L 50.239 205.373 C 48.105 205.373 47.245 206.647 47.245 207.921 C 47.245 208.877 47.595 210.088 48.105 211.426 L 60.274 247.297 L 60.465 247.297 L 72.061 213.56 L 70.437 208.973 C 69.449 206.105 67.506 205.373 64.67 205.373 L 62.377 205.373 L 62.377 198.205 L 91.399 198.205 L 91.399 205.373 L 86.27 205.373 C 84.295 205.373 83.53 206.233 83.53 207.507 C 83.53 208.495 84.008 209.865 84.327 210.788 L 94.967 246.66 L 95.158 246.66 L 107.519 211.617 C 107.901 210.47 108.251 209.514 108.251 208.304 C 108.251 206.774 107.519 205.373 104.11 205.373 L 99.427 205.373 L 99.427 198.205 L 187.608 198.205 L 187.608 220.186 L 180.376 220.186 C 178.911 210.884 178.082 205.373 165.18 205.373 L 148.137 205.373 Z  M 253.808 262.493 L 253.808 238.313 L 246.385 238.313 C 245.397 249.368 243.39 255.293 233.323 255.293 L 218.701 255.293 L 218.701 209.833 C 218.701 206.265 220.166 205.373 224.435 205.373 L 229.883 205.373 L 229.883 198.205 L 194.362 198.205 L 194.362 205.373 L 199.969 205.373 C 203.855 205.373 205.161 206.647 205.161 209.578 L 205.161 250.992 C 205.161 254.369 203.314 255.293 200.574 255.293 L 194.362 255.293 L 194.362 262.493 L 253.808 262.493 Z  M 319.784 262.493 L 319.784 238.313 L 312.33 238.313 C 311.342 249.368 309.271 255.293 299.332 255.293 L 284.677 255.293 L 284.677 209.833 C 284.677 206.265 286.143 205.373 290.412 205.373 L 295.827 205.373 L 295.827 198.205 L 260.275 198.205 L 260.275 205.373 L 265.913 205.373 C 269.832 205.373 271.138 206.647 271.138 209.578 L 271.138 250.992 C 271.138 254.369 269.258 255.293 266.551 255.293 L 260.275 255.293 L 260.275 262.493 L 319.784 262.493 Z  M 368.717 203.047 C 368.112 202.442 362.186 196.293 350.622 196.293 C 338.484 196.293 326.219 202.442 326.219 215.631 C 326.219 227.577 335.745 233.025 346.704 235.382 C 350.335 236.147 352.502 236.561 355.815 237.262 C 364.034 239.014 369.514 241.499 369.514 247.201 C 369.514 251.534 364.926 256.185 355.847 256.185 C 343.167 256.185 335.649 249.113 334.088 238.313 L 326.633 238.313 L 326.633 262.493 L 333.228 262.493 L 335.362 256.727 C 336.923 258.097 343.104 264.404 354.859 264.404 C 369.832 264.404 381.141 257.746 381.141 244.589 C 381.141 231.846 370.597 226.367 357.726 223.786 C 355.433 223.213 353.33 222.862 350.973 222.321 C 342.976 220.601 337.847 218.625 337.847 212.891 C 337.847 207.921 343.104 204.513 351.004 204.513 C 362.887 204.513 367.475 212.063 369.928 220.186 L 377.159 220.186 L 377.159 198.205 L 371.935 198.205 L 368.717 203.047 Z  M 73.654 362.716 L 73.654 355.485 L 68.812 355.485 C 64.32 355.485 62.663 354.147 62.663 350.515 L 62.663 332.993 L 66.646 332.993 C 72.667 332.993 75.279 335.606 75.279 342.423 L 75.279 344.558 L 82.033 344.558 L 82.033 314.962 L 75.279 314.962 L 75.279 316.236 C 75.279 321.238 73.463 325.825 67.219 325.825 L 62.663 325.825 L 62.663 305.564 L 75.311 305.564 C 89.551 305.564 91.048 312.732 92.004 320.346 L 98.949 320.346 L 98.949 298.396 L 38.101 298.396 L 38.101 305.564 L 44.537 305.564 C 47.436 305.564 49.06 306.87 49.06 309.196 L 49.06 350.738 C 49.06 353.446 47.595 355.485 44.154 355.485 L 38.101 355.485 L 38.101 362.716 L 73.654 362.716 Z  M 342.881 296.453 C 321.791 296.453 307.838 311.203 307.838 330.54 C 307.838 349.846 321.791 364.723 342.881 364.723 C 363.907 364.723 377.892 349.846 377.892 330.54 C 377.892 311.203 363.907 296.453 342.881 296.453 Z  M 342.881 304.035 C 358.109 304.035 362.664 316.682 362.664 330.54 C 362.664 344.398 358.109 357.077 342.881 357.077 C 327.557 357.077 323.034 344.398 323.034 330.54 C 323.034 316.682 327.557 304.035 342.881 304.035 Z  M 283.562 303.653 C 282.161 302.41 276.14 296.453 264.257 296.453 C 245.238 296.453 233.291 310.948 233.291 330.54 C 233.291 350.292 245.429 364.723 264.257 364.723 C 276.363 364.723 282.925 359.18 284.422 357.81 L 288.022 362.716 L 294.617 362.716 L 294.617 340.416 C 294.617 336.625 296.019 335.606 299.778 335.606 L 301.562 335.606 L 301.562 328.406 L 271.871 328.406 L 271.871 335.606 L 276.267 335.606 C 279.453 335.606 281.396 337.039 281.396 340.161 L 281.396 343.92 C 281.396 351.279 276.872 356.408 267.028 356.408 C 254.7 356.408 248.519 345.322 248.519 330.54 C 248.519 315.981 254.7 304.831 266.646 304.831 C 279.102 304.831 283.339 316.427 284.773 320.346 L 292.737 320.346 L 292.737 298.396 L 285.952 298.396 L 283.562 303.653 Z  M 230.074 347.616 L 230.074 349.368 C 230.074 360.454 224.786 364.723 216.757 364.723 C 207.36 364.723 204.206 360.2 204.206 351.439 L 204.206 348.094 C 204.206 337.039 199.491 332.579 188.723 332.579 L 183.626 332.579 L 183.626 352.012 C 183.626 354.593 184.805 355.485 187.608 355.485 L 194.68 355.485 L 194.68 362.716 L 130.456 362.716 L 130.456 355.485 L 137.592 355.485 C 139.567 355.485 140.3 355.007 140.3 353.86 C 140.3 353.255 140.109 352.267 139.727 351.216 C 139.376 350.356 136.35 342.073 136.35 342.073 L 113.412 342.073 C 113.412 342.073 110.577 349.718 110.099 350.993 C 109.78 351.948 109.526 352.745 109.526 353.669 C 109.526 355.039 110.673 355.485 112.584 355.485 L 119.402 355.485 L 119.402 362.716 L 89.137 362.716 L 89.137 355.485 C 94.266 355.485 97.516 354.752 99.331 350.26 L 119.848 298.396 L 132.176 298.396 L 153.202 350.26 C 154.954 354.816 158.268 355.485 163.397 355.485 L 166.009 355.485 C 168.78 355.485 170.023 354.593 170.023 352.012 L 170.023 309.068 C 170.023 306.488 169.035 305.564 166.009 305.564 L 159.255 305.564 L 159.255 298.396 L 201.498 298.396 C 215.515 298.396 222.11 305.023 222.11 315.058 C 222.11 327.514 209.717 329.967 203.919 330.285 L 203.919 330.445 C 210.705 330.954 216.439 333.758 216.439 343.666 L 216.439 347.425 C 216.439 354.019 217.841 355.485 220.166 355.485 C 222.46 355.485 223.671 353.669 223.671 349.368 L 223.671 347.616 L 230.074 347.616 Z  M 133.705 334.937 L 125.04 311.521 L 124.754 311.521 L 116.089 334.937 L 133.705 334.937 Z  M 208.602 315.472 C 208.602 309.833 204.556 305.564 195.572 305.564 L 183.626 305.564 L 183.626 325.411 L 195.572 325.411 C 203.855 325.411 208.602 321.684 208.602 315.472 Z " fill="rgb(255,204,2)"/><path d=" M 148.137 205.373 L 148.137 225.57 L 152.756 225.57 C 158.586 225.57 161.23 222.735 161.23 214.802 L 161.23 213.56 L 168.016 213.56 L 168.016 244.908 L 161.23 244.908 L 161.23 243.57 C 161.23 235.701 158.586 232.706 152.756 232.706 L 148.137 232.706 L 148.137 255.293 L 167.506 255.293 C 176.331 255.293 179.516 249.463 180.568 238.313 L 187.608 238.313 L 187.608 262.493 L 123.989 262.493 L 123.989 255.293 L 129.373 255.293 C 132.718 255.293 134.502 254.369 134.502 248.539 L 134.502 210.852 C 134.502 206.647 132.59 205.373 128.098 205.373 L 126.123 205.373 C 121.504 205.373 119.306 206.456 117.681 211.266 L 100.128 262.493 L 86.779 262.493 L 76.617 229.106 L 76.426 229.106 L 65.149 262.493 L 51.641 262.493 L 33.419 208.813 C 32.622 206.169 31.252 205.373 27.557 205.373 L 26.219 205.373 L 26.219 198.205 L 54.317 198.205 L 54.317 205.373 L 50.239 205.373 C 48.105 205.373 47.245 206.647 47.245 207.921 C 47.245 208.877 47.595 210.088 48.105 211.426 L 60.274 247.297 L 60.465 247.297 L 72.061 213.56 L 70.437 208.973 C 69.449 206.105 67.506 205.373 64.67 205.373 L 62.377 205.373 L 62.377 198.205 L 91.399 198.205 L 91.399 205.373 L 86.27 205.373 C 84.295 205.373 83.53 206.233 83.53 207.507 C 83.53 208.495 84.008 209.865 84.327 210.788 L 94.967 246.66 L 95.158 246.66 L 107.519 211.617 C 107.901 210.47 108.251 209.514 108.251 208.304 C 108.251 206.774 107.519 205.373 104.11 205.373 L 99.427 205.373 L 99.427 198.205 L 187.608 198.205 L 187.608 220.186 L 180.376 220.186 C 178.911 210.884 178.082 205.373 165.18 205.373 L 148.137 205.373 Z  M 253.808 262.493 L 253.808 238.313 L 246.385 238.313 C 245.397 249.368 243.39 255.293 233.323 255.293 L 218.701 255.293 L 218.701 209.833 C 218.701 206.265 220.166 205.373 224.435 205.373 L 229.883 205.373 L 229.883 198.205 L 194.362 198.205 L 194.362 205.373 L 199.969 205.373 C 203.855 205.373 205.161 206.647 205.161 209.578 L 205.161 250.992 C 205.161 254.369 203.314 255.293 200.574 255.293 L 194.362 255.293 L 194.362 262.493 L 253.808 262.493 Z  M 319.784 262.493 L 319.784 238.313 L 312.33 238.313 C 311.342 249.368 309.271 255.293 299.332 255.293 L 284.677 255.293 L 284.677 209.833 C 284.677 206.265 286.143 205.373 290.412 205.373 L 295.827 205.373 L 295.827 198.205 L 260.275 198.205 L 260.275 205.373 L 265.913 205.373 C 269.832 205.373 271.138 206.647 271.138 209.578 L 271.138 250.992 C 271.138 254.369 269.258 255.293 266.551 255.293 L 260.275 255.293 L 260.275 262.493 L 319.784 262.493 Z  M 368.717 203.047 C 368.112 202.442 362.186 196.293 350.622 196.293 C 338.484 196.293 326.219 202.442 326.219 215.631 C 326.219 227.577 335.745 233.025 346.704 235.382 C 350.335 236.147 352.502 236.561 355.815 237.262 C 364.034 239.014 369.514 241.499 369.514 247.201 C 369.514 251.534 364.926 256.185 355.847 256.185 C 343.167 256.185 335.649 249.113 334.088 238.313 L 326.633 238.313 L 326.633 262.493 L 333.228 262.493 L 335.362 256.727 C 336.923 258.097 343.104 264.404 354.859 264.404 C 369.832 264.404 381.141 257.746 381.141 244.589 C 381.141 231.846 370.597 226.367 357.726 223.786 C 355.433 223.213 353.33 222.862 350.973 222.321 C 342.976 220.601 337.847 218.625 337.847 212.891 C 337.847 207.921 343.104 204.513 351.004 204.513 C 362.887 204.513 367.475 212.063 369.928 220.186 L 377.159 220.186 L 377.159 198.205 L 371.935 198.205 L 368.717 203.047 Z  M 73.654 362.716 L 73.654 355.485 L 68.812 355.485 C 64.32 355.485 62.663 354.147 62.663 350.515 L 62.663 332.993 L 66.646 332.993 C 72.667 332.993 75.279 335.606 75.279 342.423 L 75.279 344.558 L 82.033 344.558 L 82.033 314.962 L 75.279 314.962 L 75.279 316.236 C 75.279 321.238 73.463 325.825 67.219 325.825 L 62.663 325.825 L 62.663 305.564 L 75.311 305.564 C 89.551 305.564 91.048 312.732 92.004 320.346 L 98.949 320.346 L 98.949 298.396 L 38.101 298.396 L 38.101 305.564 L 44.537 305.564 C 47.436 305.564 49.06 306.87 49.06 309.196 L 49.06 350.738 C 49.06 353.446 47.595 355.485 44.154 355.485 L 38.101 355.485 L 38.101 362.716 L 73.654 362.716 Z  M 342.881 296.453 C 321.791 296.453 307.838 311.203 307.838 330.54 C 307.838 349.846 321.791 364.723 342.881 364.723 C 363.907 364.723 377.892 349.846 377.892 330.54 C 377.892 311.203 363.907 296.453 342.881 296.453 Z  M 342.881 304.035 C 358.109 304.035 362.664 316.682 362.664 330.54 C 362.664 344.398 358.109 357.077 342.881 357.077 C 327.557 357.077 323.034 344.398 323.034 330.54 C 323.034 316.682 327.557 304.035 342.881 304.035 Z  M 283.562 303.653 C 282.161 302.41 276.14 296.453 264.257 296.453 C 245.238 296.453 233.291 310.948 233.291 330.54 C 233.291 350.292 245.429 364.723 264.257 364.723 C 276.363 364.723 282.925 359.18 284.422 357.81 L 288.022 362.716 L 294.617 362.716 L 294.617 340.416 C 294.617 336.625 296.019 335.606 299.778 335.606 L 301.562 335.606 L 301.562 328.406 L 271.871 328.406 L 271.871 335.606 L 276.267 335.606 C 279.453 335.606 281.396 337.039 281.396 340.161 L 281.396 343.92 C 281.396 351.279 276.872 356.408 267.028 356.408 C 254.7 356.408 248.519 345.322 248.519 330.54 C 248.519 315.981 254.7 304.831 266.646 304.831 C 279.102 304.831 283.339 316.427 284.773 320.346 L 292.737 320.346 L 292.737 298.396 L 285.952 298.396 L 283.562 303.653 Z  M 230.074 347.616 L 230.074 349.368 C 230.074 360.454 224.786 364.723 216.757 364.723 C 207.36 364.723 204.206 360.2 204.206 351.439 L 204.206 348.094 C 204.206 337.039 199.491 332.579 188.723 332.579 L 183.626 332.579 L 183.626 352.012 C 183.626 354.593 184.805 355.485 187.608 355.485 L 194.68 355.485 L 194.68 362.716 L 130.456 362.716 L 130.456 355.485 L 137.592 355.485 C 139.567 355.485 140.3 355.007 140.3 353.86 C 140.3 353.255 140.109 352.267 139.727 351.216 C 139.376 350.356 136.35 342.073 136.35 342.073 L 113.412 342.073 C 113.412 342.073 110.577 349.718 110.099 350.993 C 109.78 351.948 109.526 352.745 109.526 353.669 C 109.526 355.039 110.673 355.485 112.584 355.485 L 119.402 355.485 L 119.402 362.716 L 89.137 362.716 L 89.137 355.485 C 94.266 355.485 97.516 354.752 99.331 350.26 L 119.848 298.396 L 132.176 298.396 L 153.202 350.26 C 154.954 354.816 158.268 355.485 163.397 355.485 L 166.009 355.485 C 168.78 355.485 170.023 354.593 170.023 352.012 L 170.023 309.068 C 170.023 306.488 169.035 305.564 166.009 305.564 L 159.255 305.564 L 159.255 298.396 L 201.498 298.396 C 215.515 298.396 222.11 305.023 222.11 315.058 C 222.11 327.514 209.717 329.967 203.919 330.285 L 203.919 330.445 C 210.705 330.954 216.439 333.758 216.439 343.666 L 216.439 347.425 C 216.439 354.019 217.841 355.485 220.166 355.485 C 222.46 355.485 223.671 353.669 223.671 349.368 L 223.671 347.616 L 230.074 347.616 Z  M 133.705 334.937 L 125.04 311.521 L 124.754 311.521 L 116.089 334.937 L 133.705 334.937 Z  M 208.602 315.472 C 208.602 309.833 204.556 305.564 195.572 305.564 L 183.626 305.564 L 183.626 325.411 L 195.572 325.411 C 203.855 325.411 208.602 321.684 208.602 315.472 Z " fill="rgb(255,255,255)"/></g></g></svg>