<?xml version="1.0" standalone="no"?><!-- Generator: Gravit.io --><svg xmlns="http://www.w3.org/2000/svg" xmlns:xlink="http://www.w3.org/1999/xlink" style="isolation:isolate" viewBox="0 0 100 100" width="100" height="100"><defs><clipPath id="_clipPath_ajDoRXdCImVsm7Srqexr3xdh8xUvwF0t"><rect width="100" height="100"/></clipPath></defs><g clip-path="url(#_clipPath_ajDoRXdCImVsm7Srqexr3xdh8xUvwF0t)"><g><g><g><path d=" M 90.872 86.777 L 64.36 86.777 L 9.09 86.777 C 6.831 86.777 5 88.607 5 90.869 C 5 93.126 6.831 94.957 9.09 94.957 L 90.87 94.957 C 93.129 94.957 94.96 93.126 94.96 90.869 C 94.958 88.607 93.127 86.777 90.872 86.777 Z " fill="rgb(0,176,155)" vector-effect="non-scaling-stroke" stroke-width="1" stroke="rgb(0,176,155)" stroke-linejoin="miter" stroke-linecap="butt" stroke-miterlimit="4"/><path d=" M 14.201 76.143 C 11.941 76.143 10.111 77.974 10.111 80.234 C 10.111 82.493 11.941 84.326 14.201 84.326 L 85.759 84.326 C 88.018 84.326 89.849 82.493 89.849 80.234 C 89.849 77.974 88.018 76.143 85.759 76.143 L 84.738 76.143 L 84.738 39.34 L 85.759 39.34 C 86.891 39.34 87.802 38.425 87.802 37.297 C 87.802 36.169 86.887 35.254 85.759 35.254 L 14.201 35.254 C 13.071 35.254 12.158 36.169 12.158 37.297 C 12.158 38.425 13.073 39.34 14.201 39.34 L 15.223 39.34 L 15.223 76.142 L 14.201 76.142 L 14.201 76.143 Z  M 76.558 39.34 L 76.558 76.142 L 64.292 76.142 L 64.292 39.34 L 76.558 39.34 Z  M 56.111 39.34 L 56.111 76.142 L 43.845 76.142 L 43.845 39.34 L 56.111 39.34 Z  M 23.4 39.34 L 35.666 39.34 L 35.666 76.142 L 23.4 76.142 L 23.4 39.34 Z " fill="rgb(0,176,155)"/><path d=" M 9.09 31.577 L 90.87 31.577 C 90.883 31.577 90.898 31.577 90.91 31.577 C 93.171 31.577 95 29.747 95 27.487 C 95 25.691 93.843 24.169 92.237 23.617 L 51.661 5.359 C 50.595 4.88 49.375 4.88 48.306 5.359 L 7.413 23.759 C 5.653 24.552 4.686 26.463 5.092 28.347 C 5.496 30.231 7.162 31.577 9.09 31.577 Z " fill="rgb(0,176,155)"/></g></g></g></g></svg>