<?xml version="1.0" standalone="no"?><!-- Generator: Gravit.io --><svg xmlns="http://www.w3.org/2000/svg" xmlns:xlink="http://www.w3.org/1999/xlink" style="isolation:isolate" viewBox="0 0 100 100" width="100" height="100"><defs><clipPath id="_clipPath_YU9QvLwuz4iCitl8OUnELkDiw5Vf1ENE"><rect width="100" height="100"/></clipPath></defs><g clip-path="url(#_clipPath_YU9QvLwuz4iCitl8OUnELkDiw5Vf1ENE)"><circle vector-effect="non-scaling-stroke" cx="0" cy="0" r="1" transform="matrix(45,0,0,45,50,50)" fill="rgb(231,45,45)"/><path d=" M 45.715 52.929 L 44.443 33.909 C 44.204 30.202 44.087 27.542 44.087 25.928 C 44.087 23.73 44.664 22.015 45.813 20.787 C 46.964 19.552 48.481 18.937 50.359 18.937 C 52.637 18.937 54.161 19.725 54.927 21.3 C 55.693 22.877 56.079 25.147 56.079 28.11 C 56.079 29.858 55.985 31.634 55.802 33.431 L 54.093 53.008 C 53.909 55.339 53.512 57.125 52.901 58.37 C 52.292 59.613 51.285 60.234 49.884 60.234 C 48.453 60.234 47.462 59.634 46.906 58.428 C 46.35 57.226 45.951 55.39 45.715 52.929 Z  M 50.122 79.056 C 48.508 79.056 47.096 78.536 45.894 77.489 C 44.688 76.446 44.087 74.983 44.087 73.102 C 44.087 71.46 44.664 70.063 45.813 68.911 C 46.964 67.76 48.375 67.185 50.043 67.185 C 51.711 67.185 53.132 67.76 54.311 68.911 C 55.489 70.063 56.079 71.461 56.079 73.102 C 56.079 74.954 55.483 76.409 54.29 77.47 C 53.1 78.528 51.711 79.056 50.122 79.056 Z " fill="rgb(255,255,255)"/></g></svg>