<?xml version="1.0" standalone="no"?><!-- Generator: Gravit.io --><svg xmlns="http://www.w3.org/2000/svg" xmlns:xlink="http://www.w3.org/1999/xlink" style="isolation:isolate" viewBox="0 0 100 100" width="100" height="100"><defs><clipPath id="_clipPath_QPCeCwewgz66F3inNSEaItT2uA0r6USL"><rect width="100" height="100"/></clipPath></defs><g clip-path="url(#_clipPath_QPCeCwewgz66F3inNSEaItT2uA0r6USL)"><g><g><clipPath id="_clipPath_2cC4jNIWXeQNm9Po7AOdXHTEsENRqAU7"><path d=" M 0 58.635 L 100 58.635 L 100 42 L 0 42 L 0 58.635 Z " fill="rgb(255,255,255)"/></clipPath><g clip-path="url(#_clipPath_2cC4jNIWXeQNm9Po7AOdXHTEsENRqAU7)"><g><path d=" M 10.043 58.353 L 0 58.353 L 6.242 49.996 L 10.043 58.353 Z " fill="rgb(140,198,62)"/><path d=" M 9.605 45.485 L 11.199 58.357 L 6.474 49.722 L 9.605 45.485 Z " fill="rgb(140,198,62)"/><path d=" M 12.173 42 L 14.552 45.171 L 12.173 58.357 L 9.81 45.162 L 12.173 42 Z " fill="rgb(140,198,62)"/><path d=" M 14.761 45.467 L 17.924 49.694 L 13.207 58.357 L 14.761 45.467 Z " fill="rgb(140,198,62)"/><path d=" M 18.124 49.974 L 24.394 58.357 L 14.381 58.357 L 18.124 49.974 Z " fill="rgb(140,198,62)"/><path d=" M 30.337 48.6 C 30.337 47.616 30.11 47.234 28.806 46.993 L 28.806 46.652 L 34.558 46.652 C 37.909 46.652 39.254 47.957 39.254 49.604 C 39.254 50.81 38.55 51.914 36.813 52.396 L 36.813 52.437 C 38.157 52.738 39.461 56.494 40.557 57.559 C 40.868 57.86 41.137 57.981 41.654 58.061 L 41.654 58.402 L 38.157 58.402 C 36.833 56.876 35.964 54.244 35.034 53.341 C 34.496 52.818 34.082 52.798 33.006 52.798 L 33.006 56.414 C 33.006 57.458 33.441 57.9 34.558 58.061 L 34.558 58.402 L 28.806 58.402 L 28.806 58.061 C 29.799 57.981 30.337 57.498 30.337 56.554 L 30.337 48.6 M 33.006 52.135 C 35.303 52.296 36.358 51.593 36.358 49.645 C 36.358 48.138 35.489 47.315 33.834 47.315 L 33.006 47.315" fill="rgb(94,151,50)"/><path d=" M 49.581 55.264 L 49.277 55.264 C 49.164 54.472 48.749 54.099 47.981 54.099 L 46.332 54.099 L 46.332 56.771 C 46.332 57.595 46.685 57.89 47.613 57.89 L 48.157 57.89 C 49.309 57.89 49.821 57.066 50.125 56.196 L 50.397 56.196 L 50.221 58.402 L 43.084 58.402 L 43.084 58.138 C 44.124 57.921 44.268 57.61 44.268 56.678 L 44.268 50.837 C 44.268 50.044 44.076 49.765 43.084 49.578 L 43.084 49.314 L 50.109 49.314 L 50.109 51.334 L 49.837 51.334 C 49.533 50.169 49.18 49.827 48.141 49.827 L 46.332 49.827 L 46.332 53.586 L 47.981 53.586 C 48.733 53.586 49.085 53.276 49.277 52.452 L 49.581 52.452 L 49.581 55.264 Z " fill="rgb(94,151,50)"/><path d=" M 60.909 57.983 C 60.013 58.402 58.685 58.635 57.277 58.635 C 53.901 58.635 52.189 56.258 52.189 53.928 C 52.189 51.147 54.349 49.081 57.277 49.081 C 58.701 49.081 59.341 49.625 59.949 49.625 C 60.205 49.625 60.381 49.547 60.621 49.314 L 60.909 49.314 L 60.909 51.862 L 60.621 51.862 C 60.061 50.479 58.813 49.594 57.405 49.594 C 55.485 49.594 54.429 51.272 54.429 54.083 C 54.429 56.989 55.709 58.123 57.437 58.123 C 58.285 58.123 58.845 57.905 58.845 57.16 L 58.845 55.808 C 58.845 55.218 58.605 54.829 57.885 54.689 L 57.885 54.425 L 61.822 54.425 L 61.822 54.689 C 61.133 54.876 60.909 55.218 60.909 56.056 L 60.909 57.983" fill="rgb(94,151,50)"/><path d=" M 66.926 56.864 C 66.926 57.672 67.134 57.905 68.11 58.138 L 68.11 58.402 L 63.678 58.402 L 63.678 58.138 C 64.83 57.859 64.861 57.548 64.861 56.662 L 64.861 50.852 C 64.861 50.044 64.654 49.811 63.678 49.578 L 63.678 49.314 L 68.11 49.314 L 68.11 49.578 C 66.99 49.827 66.926 50.169 66.926 51.038 L 66.926 56.864 Z " fill="rgb(94,151,50)"/><path d=" M 75.342 58.635 C 72.382 58.635 70.254 56.647 70.254 53.866 C 70.254 51.085 72.382 49.081 75.342 49.081 C 78.319 49.081 80.447 51.085 80.447 53.866 C 80.447 56.647 78.319 58.635 75.342 58.635 Z  M 75.342 49.594 C 73.502 49.594 72.494 51.07 72.494 53.944 C 72.494 56.134 73.23 58.123 75.342 58.123 C 76.91 58.123 78.206 56.927 78.206 53.928 C 78.206 51.38 77.391 49.594 75.342 49.594 Z " fill="rgb(94,151,50)"/><path d=" M 90.992 58.511 L 90.688 58.511 L 83.951 51.132 L 83.951 56.693 C 83.951 57.688 84.255 57.968 85.327 58.138 L 85.327 58.402 L 82.095 58.402 L 82.095 58.138 C 83.103 57.983 83.343 57.455 83.327 56.569 L 83.327 50.479 C 82.607 49.765 82.463 49.656 82.079 49.578 L 82.079 49.314 L 84.895 49.314 L 90.368 55.404 L 90.368 51.318 C 90.368 50.215 90.175 49.796 89.183 49.578 L 89.183 49.314 L 92.352 49.314 L 92.352 49.578 C 91.28 49.64 90.992 50.262 90.992 51.07 L 90.992 58.511" fill="rgb(94,151,50)"/><path d=" M 99.456 51.474 L 99.184 51.474 C 98.832 50.417 97.824 49.594 96.864 49.594 C 96.016 49.594 95.328 50.138 95.328 50.821 C 95.328 51.163 95.504 51.505 95.792 51.784 C 96.256 52.235 98.4 53.338 98.976 53.897 C 99.68 54.581 100 55.202 100 55.994 C 100 57.999 98.144 58.635 96.992 58.635 C 95.872 58.635 95.184 58.278 94.704 58.278 C 94.496 58.278 94.32 58.387 94.224 58.573 L 93.952 58.573 L 93.952 55.839 L 94.224 55.839 C 94.496 57.191 95.392 58.123 96.736 58.123 C 97.744 58.123 98.464 57.579 98.464 56.833 C 98.464 56.538 98.336 56.134 97.984 55.792 C 97.264 55.093 95.616 54.425 94.832 53.664 C 94.272 53.12 94 52.452 94 51.738 C 94 50.169 95.216 49.081 96.944 49.081 C 97.296 49.081 97.616 49.143 97.904 49.205 C 98.192 49.268 98.464 49.33 98.704 49.33 C 98.848 49.33 99.008 49.252 99.184 49.081 L 99.456 49.081 L 99.456 51.474" fill="rgb(94,151,50)"/></g></g></g></g></g></svg>