<?xml version="1.0" standalone="no"?><!-- Generator: Gravit.io --><svg xmlns="http://www.w3.org/2000/svg" xmlns:xlink="http://www.w3.org/1999/xlink" style="isolation:isolate" viewBox="0 0 100 100" width="100" height="100"><defs><clipPath id="_clipPath_KBt0MWCFJMejSpxMYF8Ffi4ngfrjWezq"><rect width="100" height="100"/></clipPath></defs><g clip-path="url(#_clipPath_KBt0MWCFJMejSpxMYF8Ffi4ngfrjWezq)"><path d=" M 13.827 36.741 C 6.667 36.741 0.741 42.667 0.741 49.827 C 0.741 56.988 6.667 62.914 13.827 62.914 C 20.988 62.914 26.914 56.988 26.914 49.827 C 26.914 42.42 20.988 36.741 13.827 36.741 Z " fill="rgb(255,255,255)"/><path d=" M 13.827 36 C 6.173 36 0 42.173 0 49.827 C 0 57.481 6.173 63.654 13.827 63.654 C 21.481 63.654 27.654 57.481 27.654 49.827 C 27.654 42.173 21.481 36 13.827 36 Z " fill="rgb(245,128,36)"/><path d=" M 6.42 42.173 C 6.42 40.691 7.16 39.457 7.901 39.21 C 9.136 38.963 10.617 40.198 12.099 42.914 L 13.58 45.383 C 13.086 45.383 12.84 45.63 12.593 46.123 L 7.901 54.272 C 7.16 55.506 6.667 56.494 6.42 57.481 L 6.42 42.173 Z " fill="rgb(255,255,255)"/><path d=" M 11.358 59.704 L 10.864 59.951 C 9.63 60.691 8.148 60.691 7.407 60.198 C 6.667 59.457 6.914 57.481 8.395 54.765 L 9.877 52.296 C 10.37 52.543 10.864 52.543 11.358 52.543 L 20.741 52.543 C 21.975 52.543 23.21 52.543 24.198 52.296 C 22.222 53.531 18.519 55.506 11.358 59.704 Z " fill="rgb(255,255,255)"/><path d=" M 25.926 49.58 C 25.679 51.062 23.704 51.556 20.494 51.556 L 17.778 51.556 C 18.025 51.062 17.778 50.815 17.531 50.321 L 12.84 42.173 C 12.346 41.185 11.605 40.198 10.864 39.457 C 12.84 40.444 16.543 42.667 23.457 46.617 L 23.951 46.864 C 25.185 47.605 25.926 48.84 25.926 49.58 Z " fill="rgb(255,255,255)"/><path d=" M 43.457 38.716 L 33.58 38.716 L 33.58 39.704 L 33.827 39.704 C 37.284 40.198 37.531 40.691 37.531 42.42 L 37.531 60.691 L 41.481 60.691 C 41.481 60.691 41.481 51.556 41.481 51.062 C 41.728 51.062 42.963 51.062 42.963 51.062 C 46.667 51.062 54.568 51.062 54.568 44.889 C 54.568 38.716 47.16 38.716 43.457 38.716 Z  M 42.963 49.58 C 42.963 49.58 41.728 49.58 41.481 49.58 C 41.481 49.086 41.481 42.42 41.481 42.42 C 41.481 40.691 41.481 40.444 44.691 40.444 C 48.395 40.444 50.123 42.173 50.123 44.889 C 50.123 48.84 46.42 49.58 42.963 49.58 Z  M 74.568 38.716 C 74.568 38.716 74.568 54.765 74.568 55.753 C 74.074 55.012 62.222 38.716 62.222 38.716 L 53.827 38.716 L 53.827 39.704 L 54.074 39.704 C 57.531 40.198 57.778 40.198 57.778 42.667 L 57.778 60.691 L 60.247 60.691 C 60.247 60.691 60.247 43.407 60.247 42.173 C 60.741 42.914 73.58 60.691 73.58 60.691 L 77.037 60.691 L 76.79 38.716 L 74.568 38.716 Z  M 91.358 38.222 C 83.457 38.469 80 41.926 80 49.086 C 80 55.012 83.704 61.185 91.852 61.185 C 95.802 61.185 97.531 60.691 99.506 60.198 L 99.753 60.198 L 99.753 58.469 L 99.506 58.469 C 97.531 58.963 95.802 59.21 94.321 59.21 C 87.901 59.21 84.691 55.506 84.691 48.099 C 84.691 43.16 87.16 40.198 90.864 40.198 C 93.58 40.198 95.062 41.185 95.556 43.16 L 95.556 43.407 L 100 43.407 L 100 43.16 C 99.753 41.926 98.765 38.222 91.358 38.222 Z " fill-rule="evenodd" fill="rgb(0,105,170)"/></g></svg>