<?xml version="1.0" standalone="no"?><!-- Generator: Gravit.io --><svg xmlns="http://www.w3.org/2000/svg" xmlns:xlink="http://www.w3.org/1999/xlink" style="isolation:isolate" viewBox="0 0 100 100" width="100" height="100"><defs><clipPath id="_clipPath_PgkyV8APom5kvcSFUxwkAer9WGQxsriu"><rect width="100" height="100"/></clipPath></defs><g clip-path="url(#_clipPath_PgkyV8APom5kvcSFUxwkAer9WGQxsriu)"><path d=" M 5 5 L 95 5 L 95 95 L 5 95 L 5 5 Z " fill="rgb(0,160,223)"/><path d=" M 83.246 45.734 C 83.246 44.445 82.44 43.48 81.795 42.516 C 81.151 41.871 80.668 41.227 80.668 40.424 C 80.668 39.459 81.313 38.815 82.119 38.815 C 82.602 38.815 82.926 38.977 83.246 39.135 C 83.566 39.294 84.052 39.456 84.373 39.456 C 85.017 39.456 85.5 38.811 85.5 38.329 C 85.5 37.684 84.855 37.04 83.728 37.04 C 81.151 37.04 78.897 39.938 78.897 42.192 C 78.897 43.48 79.704 44.445 80.348 45.252 C 80.83 45.896 81.313 46.54 81.313 47.185 C 81.313 48.15 80.348 48.794 79.542 48.794 C 78.577 48.794 78.091 48.312 77.45 47.829 C 77.13 47.509 76.806 47.185 76.485 47.185 C 76.003 47.185 75.841 48.15 75.841 48.636 C 75.841 49.28 76.968 50.245 78.418 50.245 C 80.672 49.921 83.246 47.988 83.246 45.734 Z  M 28.346 29.955 C 28.184 29.955 28.184 29.955 28.346 29.955 L 28.184 30.6 L 28.184 30.762 L 28.99 30.762 C 29.635 30.92 29.793 30.92 29.793 31.244 C 29.793 31.726 29.149 33.336 28.342 35.593 L 27.698 37.684 C 27.054 39.456 26.089 42.033 25.282 44.125 C 24.318 46.702 23.511 48.794 23.511 49.114 C 23.511 49.435 23.673 49.597 24.476 49.597 C 25.279 49.597 25.603 49.435 25.765 49.114 C 27.216 44.445 31.078 39.132 33.012 39.132 C 33.656 39.132 33.818 39.294 33.818 39.938 C 33.818 40.903 33.012 42.836 32.047 44.769 C 31.24 46.378 30.596 47.988 30.596 48.794 C 30.596 49.438 30.916 49.759 31.561 49.759 C 33.494 49.759 35.103 47.988 36.23 46.54 L 36.392 46.378 L 35.91 45.896 L 35.748 45.896 C 35.103 46.54 33.976 47.667 33.656 47.667 L 33.494 47.667 L 33.494 47.347 C 33.494 47.185 33.656 46.702 33.976 46.058 C 34.783 44.287 36.068 41.227 36.068 39.456 C 36.068 38.005 35.424 37.202 34.135 37.202 C 31.719 37.202 29.786 39.938 28.821 41.389 C 28.659 41.709 28.339 42.033 28.339 42.033 C 28.339 42.033 28.501 41.713 28.659 41.068 C 28.98 40.424 29.304 39.459 29.786 38.17 C 31.557 33.339 32.364 30.924 32.364 30.603 C 32.364 30.283 32.043 30.283 31.881 30.283 L 28.339 30.283 L 28.346 29.955 Z  M 22.87 47.023 C 23.032 46.861 23.032 46.861 22.87 47.023 C 22.87 46.861 22.388 46.54 22.388 46.54 C 21.582 47.185 20.134 48.474 18.846 48.474 C 18.363 48.474 17.881 48.312 17.557 47.991 C 17.074 47.671 16.912 47.026 16.912 46.22 C 16.75 44.287 18.522 41.23 20.131 39.459 C 21.096 38.494 21.902 38.008 22.384 38.008 C 23.029 38.008 23.511 38.491 23.994 38.973 C 24.314 39.456 24.638 39.78 25.12 39.78 C 25.282 39.78 25.603 39.618 25.603 39.459 C 25.765 39.297 25.923 38.977 25.923 38.815 C 25.923 38.008 25.117 36.882 23.346 36.723 C 21.412 36.723 18.838 37.85 16.905 39.783 C 15.134 41.554 14.169 43.808 14.328 45.9 C 14.328 47.671 15.292 49.604 17.87 49.604 C 20.455 49.921 22.55 47.667 22.87 47.023 Z  M 55.393 42.512 C 55.393 42.674 55.231 42.832 55.231 42.832 L 55.231 42.67 C 55.231 42.508 55.393 42.026 55.551 41.382 C 55.872 40.093 56.196 38.484 56.196 38.001 C 56.196 37.357 55.875 37.036 55.231 37.036 C 53.942 37.036 51.85 39.29 51.206 40.417 L 51.526 40.899 L 51.688 40.737 L 51.85 40.575 C 52.333 39.931 53.301 38.804 53.784 38.804 C 54.104 38.804 54.266 39.124 54.266 39.61 C 54.266 40.737 52.977 44.28 52.174 46.695 C 51.692 47.984 51.368 48.949 51.368 49.111 C 51.368 49.431 51.53 49.431 51.688 49.431 L 52.815 49.431 C 52.977 49.431 53.136 49.269 53.298 48.949 C 53.298 48.949 53.78 47.66 54.104 47.016 C 56.358 42.508 57.484 40.255 58.453 39.286 C 59.097 38.642 59.58 38.48 59.904 38.48 C 60.224 38.48 60.224 38.642 60.386 38.8 C 60.548 38.959 60.706 39.283 61.03 39.283 C 61.192 39.283 61.513 39.283 61.675 39.121 C 61.995 38.8 62.157 38.476 62.157 37.994 C 62.157 37.188 61.513 36.867 61.03 36.867 C 58.773 37.04 57.326 38.487 55.393 42.512 Z  M 48.47 36.716 C 48.308 36.716 48.15 36.878 48.15 37.036 C 47.988 37.198 47.988 37.357 47.667 37.357 C 47.505 37.357 47.347 37.357 47.023 37.195 C 46.702 37.195 46.378 37.033 45.896 37.033 C 40.262 37.033 37.364 44.6 37.364 47.178 C 37.364 48.949 38.329 49.755 39.297 49.755 C 40.424 49.755 42.033 49.435 44.128 46.213 L 44.611 45.406 L 44.611 45.568 L 44.449 45.889 C 44.128 46.371 43.642 47.498 43.642 48.466 C 43.642 48.949 43.804 49.273 43.963 49.431 C 44.125 49.593 44.445 49.752 44.769 49.752 C 46.702 49.752 48.312 47.174 48.956 46.209 L 48.474 45.727 L 48.312 45.727 L 47.829 46.209 C 47.185 46.854 46.54 47.818 46.058 47.818 L 45.896 47.818 L 45.896 47.498 C 45.896 46.854 47.185 43.794 47.988 41.382 C 48.632 39.61 49.276 38.001 49.276 37.677 C 49.276 37.677 49.276 37.357 49.114 37.357 L 48.308 36.874 C 48.632 36.716 48.47 36.716 48.47 36.716 Z  M 39.614 46.699 C 39.614 42.994 42.512 38.005 45.41 38.005 C 46.375 38.005 46.861 38.487 46.861 39.456 C 46.861 40.906 42.998 47.829 40.42 47.829 C 39.938 47.988 39.614 47.826 39.614 46.699 Z  M 66.502 46.378 C 66.502 48.47 67.791 49.921 69.721 49.921 C 71.974 49.921 74.39 47.667 75.034 47.023 L 75.034 46.861 L 74.714 46.378 L 74.552 46.378 L 74.232 46.54 C 73.425 47.185 72.14 48.15 71.013 48.15 C 69.724 48.15 68.922 47.343 68.922 46.058 C 68.922 44.449 69.728 43.322 70.21 42.354 L 70.21 42.192 L 71.499 42.192 C 73.591 42.192 77.457 41.227 77.457 38.811 C 77.457 37.846 76.492 36.72 74.88 36.72 C 71.654 37.04 66.502 41.871 66.502 46.378 Z  M 74.714 37.843 C 75.358 37.843 75.841 38.325 75.841 38.97 C 75.841 40.579 74.07 41.385 71.01 41.385 C 71.492 40.258 73.263 37.843 74.714 37.843 Z  M 65.538 46.537 C 65.538 46.537 65.538 46.378 65.538 46.537 C 65.538 46.375 65.055 45.892 65.055 45.892 L 64.893 46.054 C 63.766 47.181 63.284 47.988 62.64 47.988 L 62.478 47.988 C 62.478 47.988 62.316 47.826 62.316 47.667 C 62.316 47.023 63.442 43.804 65.696 38.008 L 67.305 33.822 C 68.112 31.73 68.594 30.603 68.594 30.441 L 68.594 30.279 C 68.594 30.117 68.432 30.117 68.112 30.117 L 64.407 30.117 C 64.407 30.117 64.245 30.117 64.245 30.279 L 64.245 31.086 L 65.052 31.086 C 65.534 31.248 65.858 31.406 65.858 31.73 C 65.858 32.212 63.442 38.17 63.442 38.17 C 62.154 41.389 59.9 47.026 59.9 48.315 C 59.9 48.96 60.062 49.442 60.22 49.604 C 60.541 49.924 60.865 50.086 61.347 50.086 C 62.798 50.086 64.407 48.153 65.372 46.868 C 65.376 46.861 65.538 46.537 65.538 46.537 Z  M 14.5 57.808 C 14.5 59.58 15.951 60.544 17.236 61.189 L 17.881 61.509 C 19.17 62.154 19.814 62.96 19.814 63.925 C 19.814 65.052 19.008 66.016 17.881 66.016 C 16.11 66.016 15.145 64.245 14.662 63.118 L 14.018 63.28 C 14.18 64.407 14.5 65.696 14.5 66.178 L 14.821 66.178 L 15.627 66.499 C 16.11 66.661 16.754 66.819 17.398 66.819 C 19.814 66.819 21.585 65.368 21.585 63.115 C 21.585 61.023 19.976 60.055 18.849 59.572 L 18.367 59.41 C 16.916 58.604 16.275 57.96 16.275 56.995 C 16.275 56.03 16.92 55.062 18.046 55.062 C 19.497 55.062 20.138 56.188 20.462 57.315 L 21.106 57.153 C 20.944 56.188 20.786 55.382 20.786 54.738 L 20.304 54.576 L 19.983 54.414 C 19.501 54.252 18.856 54.093 18.374 54.093 C 16.11 54.266 14.5 55.717 14.5 57.808 Z  M 23.032 60.706 C 23.032 63.766 25.124 66.664 29.793 66.664 C 30.92 66.664 32.529 66.344 33.174 66.182 C 33.494 65.376 33.98 63.928 34.138 63.122 L 33.498 62.96 C 32.533 64.893 31.726 65.858 29.635 65.858 C 27.057 65.858 25.286 63.604 25.286 60.224 C 25.286 57.808 26.413 55.072 29.635 55.072 C 31.568 55.072 32.533 55.879 33.015 57.808 L 33.66 57.808 L 33.498 57.002 L 33.177 54.91 L 32.857 54.91 C 32.212 54.748 31.248 54.59 29.959 54.59 C 25.93 54.266 23.032 56.844 23.032 60.706 Z  M 47.667 54.59 L 42.512 54.59 L 42.512 55.234 C 43.801 55.396 43.963 55.396 43.963 57.488 L 43.963 59.904 L 38.487 59.904 L 38.487 57.488 C 38.487 55.555 38.649 55.396 39.938 55.234 L 39.938 54.59 L 34.624 54.59 L 34.624 55.234 C 36.234 55.396 36.234 55.555 36.234 57.488 L 36.234 63.928 C 36.234 65.862 36.072 66.02 34.624 66.182 L 34.624 66.826 L 39.938 66.826 L 39.938 66.182 C 38.649 66.02 38.329 66.02 38.329 63.928 L 38.329 60.868 L 43.804 60.868 L 43.804 63.928 C 43.804 65.862 43.642 66.02 42.195 66.182 L 42.195 66.826 L 47.509 66.826 L 47.509 66.182 C 46.058 66.02 45.9 66.02 45.9 63.928 L 45.9 57.488 C 45.9 55.555 46.062 55.396 47.509 55.234 C 47.505 55.231 47.667 54.59 47.667 54.59 Z  M 65.858 54.59 L 61.671 54.59 L 61.671 55.234 L 62.316 55.234 C 62.636 55.234 62.798 55.396 62.96 55.396 C 62.96 55.558 63.122 55.558 63.122 55.717 C 63.122 55.879 63.122 56.199 62.96 56.523 C 62.96 56.685 61.995 60.71 61.189 63.284 C 61.027 62.964 57.97 54.752 57.97 54.752 L 57.164 54.752 C 57.164 54.752 54.428 63.284 54.428 63.446 C 54.266 63.126 52.336 56.361 52.336 56.361 C 52.336 56.041 52.174 55.879 52.174 55.717 L 52.174 55.396 C 52.336 55.234 52.495 55.234 52.819 55.234 L 53.463 55.234 L 53.463 54.752 L 48.474 54.752 L 48.474 55.396 C 49.438 55.558 49.762 55.558 50.245 57.168 L 53.305 66.826 L 54.111 66.826 C 54.111 66.826 56.847 58.453 57.009 58.294 C 57.171 58.615 60.069 66.826 60.069 66.826 L 60.876 66.826 C 62.485 61.192 63.936 57.326 63.936 57.168 C 64.58 55.558 64.742 55.396 65.869 55.396 C 65.858 55.393 65.858 54.59 65.858 54.59 Z  M 69.08 57.488 C 69.08 57.488 70.369 61.351 70.531 61.351 L 67.795 61.351 C 67.629 61.351 69.08 57.488 69.08 57.488 Z  M 71.334 57.808 L 70.045 54.428 L 69.238 54.59 L 65.534 64.09 C 64.89 65.7 64.728 65.862 63.601 65.862 L 63.601 66.506 L 67.788 66.506 L 67.788 65.862 L 67.305 65.862 C 66.985 65.862 66.661 65.7 66.661 65.541 L 66.661 65.221 C 66.661 65.059 66.661 64.9 66.823 64.576 L 66.985 64.256 C 67.147 63.612 67.467 62.647 67.629 62.323 L 71.01 62.323 C 71.33 63.288 71.816 64.414 71.974 64.9 C 71.974 65.062 72.136 65.221 72.136 65.383 L 72.136 65.545 C 72.136 65.707 71.974 65.707 71.654 65.707 L 71.172 65.869 L 71.172 66.351 L 76.003 66.351 L 76.003 65.707 C 75.038 65.545 74.714 65.545 74.07 63.936 L 71.334 57.808 L 71.334 57.808 Z  M 79.866 56.199 C 79.866 55.717 79.866 55.393 80.028 55.393 L 80.834 55.393 C 81.316 55.393 83.088 55.555 83.088 57.646 C 83.088 59.097 82.123 59.9 80.51 59.9 L 79.866 59.9 C 79.866 59.9 79.866 56.199 79.866 56.199 Z  M 76.485 54.59 L 76.485 55.234 C 77.774 55.396 77.936 55.396 77.936 57.488 L 77.936 63.928 C 77.936 65.862 77.774 66.02 76.327 66.182 L 76.327 66.826 L 80.834 66.826 C 82.285 66.826 83.57 66.506 84.376 66.02 C 85.503 65.376 85.986 64.411 85.986 63.284 C 85.986 61.675 84.859 60.548 82.767 60.224 C 83.732 60.062 85.345 59.259 85.345 57.646 C 85.345 56.682 85.024 56.037 84.38 55.555 C 83.736 55.072 82.929 54.91 81.482 54.91 L 76.492 54.91 L 76.485 54.59 Z  M 80.51 60.386 C 82.602 60.386 83.728 61.351 83.728 63.122 C 83.728 64.893 82.44 65.7 81.313 65.7 C 80.83 65.7 80.506 65.7 80.348 65.538 C 80.028 65.217 80.028 64.731 80.028 63.766 L 80.028 60.548 C 80.028 60.386 80.51 60.386 80.51 60.386 Z " fill="rgb(255,255,255)"/></g></svg>