<?xml version="1.0" standalone="no"?><!-- Generator: Gravit.io --><svg xmlns="http://www.w3.org/2000/svg" xmlns:xlink="http://www.w3.org/1999/xlink" style="isolation:isolate" viewBox="0 0 100 100" width="100" height="100"><defs><clipPath id="_clipPath_OmiDk8VStHnfqYnNOOWGnsEGSqCxQmop"><rect width="100" height="100"/></clipPath></defs><g clip-path="url(#_clipPath_OmiDk8VStHnfqYnNOOWGnsEGSqCxQmop)"><g><g><g><g><g><path d=" M 38.726 37.325 C 41.667 38.486 44.573 39.734 47.443 41.061 C 38.303 44.773 29.475 49.167 21.054 54.199 C 18.203 52.705 15.311 51.293 12.378 49.968 C 20.788 45.071 29.594 40.836 38.726 37.325 Z " fill-rule="evenodd" fill="rgb(0,103,177)"/><path d=" M 27.844 33.482 C 18.352 36.487 9.218 40.419 0.562 45.188 C 3.323 46.187 6.058 47.25 8.754 48.388 C 17.142 43.452 26.007 39.299 35.231 35.998 C 32.792 35.101 30.325 34.263 27.844 33.482 Z " fill-rule="evenodd" fill="rgb(0,103,177)"/><path d=" M 58.537 36.955 C 51.081 33.349 43.341 30.312 35.382 27.888 C 32.582 28.695 29.808 29.574 27.057 30.531 C 35.253 32.957 43.22 36.029 50.893 39.704 C 53.415 38.737 55.966 37.817 58.537 36.955 Z " fill-rule="evenodd" fill="rgb(227,24,54)"/><path d=" M 70.701 33.329 C 63.073 30.001 55.183 27.216 47.122 25 C 44.553 25.531 42.002 26.124 39.468 26.774 C 47.474 29.11 55.259 32.072 62.768 35.598 C 65.393 34.786 68.039 34.028 70.701 33.329 Z " fill-rule="evenodd" fill="rgb(227,24,54)"/><path d=" M 90.234 39.89 C 71.095 46.342 53.164 55.53 36.943 67.033 C 40.999 69.524 44.949 72.167 48.81 74.951 C 64.099 62.824 81.073 52.721 99.34 45.045 C 96.36 43.238 93.314 41.521 90.234 39.89 Z " fill-rule="evenodd" fill="rgb(227,24,54)"/><path d=" M 77.073 33.636 C 57.174 38.899 38.466 47.391 21.6 58.575 C 25.4 60.445 29.132 62.44 32.788 64.564 C 49.317 53.122 67.659 44.213 87.223 38.338 C 83.886 36.665 80.501 35.091 77.073 33.636 Z " fill-rule="evenodd" fill="rgb(227,24,54)"/><path d=" M 55.054 72.901 C 55.054 71.756 56.019 70.824 57.201 70.824 C 58.384 70.824 59.347 71.756 59.347 72.901 C 59.347 74.066 58.384 75 57.201 75 C 56.019 75 55.054 74.066 55.054 72.901 Z  M 55.459 72.901 C 55.459 73.855 56.234 74.589 57.201 74.589 C 58.161 74.589 58.934 73.855 58.934 72.901 C 58.934 71.979 58.161 71.237 57.201 71.237 C 56.236 71.237 55.459 71.979 55.459 72.901 Z " fill-rule="evenodd" fill="rgb(227,24,54)"/><path d=" M 58.27 74.076 L 57.869 74.076 L 57.182 72.999 L 56.757 72.999 L 56.757 74.076 L 56.405 74.076 L 56.405 71.742 L 57.45 71.742 C 57.65 71.742 57.855 71.754 58.039 71.856 C 58.214 71.959 58.306 72.163 58.306 72.361 C 58.306 72.817 57.971 72.989 57.546 73.001 L 58.27 74.076 Z  M 57.152 72.713 C 57.485 72.713 57.947 72.77 57.947 72.355 C 57.947 72.049 57.681 72.01 57.38 72.01 L 56.759 72.01 L 56.759 72.711 L 57.152 72.711 L 57.152 72.713 Z " fill-rule="evenodd" fill="rgb(227,24,54)"/></g></g></g></g></g></g></svg>