<?xml version="1.0" standalone="no"?><!-- Generator: Gravit.io --><svg xmlns="http://www.w3.org/2000/svg" xmlns:xlink="http://www.w3.org/1999/xlink" style="isolation:isolate" viewBox="0 0 100 100" width="100" height="100"><defs><clipPath id="_clipPath_FdRiPzOqZlQbylhaQ8ggQZhyI8htezXY"><rect width="100" height="100"/></clipPath></defs><g clip-path="url(#_clipPath_FdRiPzOqZlQbylhaQ8ggQZhyI8htezXY)"><g><path d=" M 44.9 44.9 L 0 44.9 L 0 0 L 44.9 0 L 44.9 44.9 Z " fill="rgb(255,255,255)"/></g><g><path d=" M 95 53.708 L 95 5 L 5 5 L 5 95 L 95 95 L 95 68.742 C 94.8 68.742 95 53.708 95 53.708 Z " fill="rgb(0,111,207)"/><path d=" M 83.976 48.697 L 90.791 48.697 L 90.791 32.862 L 83.374 32.862 L 83.374 35.067 L 81.971 32.862 L 75.557 32.862 L 75.557 35.668 L 74.354 32.862 L 63.931 32.862 C 63.53 32.862 62.929 32.862 62.528 32.862 C 62.127 32.862 61.726 33.062 61.325 33.062 C 60.924 33.062 60.724 33.263 60.323 33.463 C 59.922 33.664 59.722 33.664 59.321 33.864 L 59.321 33.463 L 59.321 32.862 L 25.445 32.862 L 24.443 35.468 L 23.441 32.862 L 15.423 32.862 L 15.423 35.668 L 14.22 32.862 L 7.806 32.862 L 5 39.677 L 5 48.697 L 9.61 48.697 L 10.412 46.492 L 12.016 46.492 L 12.817 48.697 L 48.096 48.697 L 48.096 46.693 L 49.499 48.697 L 59.321 48.697 L 59.321 48.296 L 59.321 47.494 C 59.521 47.695 59.922 47.695 60.122 47.895 C 60.323 48.096 60.724 48.096 60.924 48.296 C 61.325 48.497 61.726 48.497 62.127 48.497 C 62.528 48.497 63.129 48.497 63.53 48.497 L 69.343 48.497 L 70.145 46.292 L 71.748 46.292 L 72.55 48.497 L 82.372 48.497 L 82.372 46.492 L 83.976 48.697 Z  M 95 68.742 L 95 53.909 L 39.878 53.909 L 38.474 55.913 L 37.071 53.909 L 21.036 53.909 L 21.036 69.744 L 37.071 69.744 L 38.474 67.739 L 39.878 69.744 L 49.9 69.744 L 49.9 66.336 L 49.499 66.336 C 50.902 66.336 52.105 66.136 53.107 65.735 L 53.107 69.944 L 60.323 69.944 L 60.323 67.94 L 61.726 69.944 L 91.592 69.944 C 92.795 69.543 93.998 69.343 95 68.742 L 95 68.742 Z " fill="rgb(255,255,255)"/><path d=" M 91.592 64.933 L 86.18 64.933 L 86.18 67.138 L 91.392 67.138 C 93.597 67.138 95 65.735 95 63.731 C 95 61.726 93.797 60.724 91.793 60.724 L 89.388 60.724 C 88.786 60.724 88.385 60.323 88.385 59.722 C 88.385 59.12 88.786 58.719 89.388 58.719 L 93.998 58.719 L 95 56.514 L 89.588 56.514 C 87.383 56.514 85.98 57.918 85.98 59.722 C 85.98 61.726 87.183 62.728 89.187 62.728 L 91.592 62.728 C 92.194 62.728 92.595 63.129 92.595 63.731 C 92.795 64.532 92.394 64.933 91.592 64.933 L 91.592 64.933 Z  M 81.771 64.933 L 76.359 64.933 L 76.359 67.138 L 81.57 67.138 C 83.775 67.138 85.178 65.735 85.178 63.731 C 85.178 61.726 83.976 60.724 81.971 60.724 L 79.566 60.724 C 78.964 60.724 78.563 60.323 78.563 59.722 C 78.563 59.12 78.964 58.719 79.566 58.719 L 84.176 58.719 L 85.178 56.514 L 79.766 56.514 C 77.561 56.514 76.158 57.918 76.158 59.722 C 76.158 61.726 77.361 62.728 79.365 62.728 L 81.771 62.728 C 82.372 62.728 82.773 63.129 82.773 63.731 C 82.973 64.532 82.372 64.933 81.771 64.933 L 81.771 64.933 Z  M 74.755 58.519 L 74.755 56.314 L 66.336 56.314 L 66.336 66.938 L 74.755 66.938 L 74.755 64.733 L 68.742 64.733 L 68.742 62.528 L 74.555 62.528 L 74.555 60.323 L 68.742 60.323 L 68.742 58.318 L 74.755 58.318 L 74.755 58.519 Z  M 61.125 58.519 C 62.127 58.519 62.528 59.12 62.528 59.722 C 62.528 60.323 62.127 60.924 61.125 60.924 L 58.118 60.924 L 58.118 58.318 L 61.125 58.519 L 61.125 58.519 Z  M 58.118 63.129 L 59.321 63.129 L 62.528 66.938 L 65.535 66.938 L 61.927 62.929 C 63.731 62.528 64.733 61.325 64.733 59.722 C 64.733 57.717 63.33 56.314 61.125 56.314 L 55.512 56.314 L 55.512 66.938 L 57.918 66.938 L 58.118 63.129 L 58.118 63.129 Z  M 51.704 59.922 C 51.704 60.724 51.303 61.325 50.301 61.325 L 47.094 61.325 L 47.094 58.519 L 50.1 58.519 C 51.102 58.519 51.704 59.12 51.704 59.922 L 51.704 59.922 Z  M 44.688 56.314 L 44.688 66.938 L 47.094 66.938 L 47.094 63.33 L 50.301 63.33 C 52.506 63.33 54.109 61.927 54.109 59.722 C 54.109 57.717 52.706 56.114 50.501 56.114 L 44.688 56.314 L 44.688 56.314 Z  M 41.08 66.938 L 44.087 66.938 L 39.878 61.526 L 44.087 56.314 L 41.08 56.314 L 38.474 59.722 L 35.869 56.314 L 32.862 56.314 L 37.071 61.526 L 32.862 66.737 L 35.869 66.737 L 38.474 63.33 L 41.08 66.938 Z  M 32.06 58.519 L 32.06 56.314 L 23.641 56.314 L 23.641 66.938 L 32.06 66.938 L 32.06 64.733 L 26.047 64.733 L 26.047 62.528 L 31.86 62.528 L 31.86 60.323 L 26.047 60.323 L 26.047 58.318 L 32.06 58.318 L 32.06 58.519 Z  M 80.768 39.677 L 84.978 46.091 L 87.984 46.091 L 87.984 35.468 L 85.579 35.468 L 85.579 42.483 L 84.978 41.481 L 81.169 35.468 L 77.962 35.468 L 77.962 46.091 L 80.367 46.091 L 80.367 38.875 L 80.768 39.677 Z  M 70.345 39.477 L 71.147 37.272 L 71.949 39.477 L 72.951 41.882 L 69.343 41.882 L 70.345 39.477 Z  M 74.555 46.091 L 77.16 46.091 L 72.55 35.468 L 69.343 35.468 L 64.733 46.091 L 67.339 46.091 L 68.341 43.886 L 73.552 43.886 L 74.555 46.091 Z  M 63.33 46.091 L 63.33 46.091 L 64.332 43.886 L 63.731 43.886 C 61.927 43.886 60.924 42.684 60.924 40.88 L 60.924 40.679 C 60.924 38.875 61.927 37.673 63.731 37.673 L 66.336 37.673 L 66.336 35.468 L 63.53 35.468 C 60.323 35.468 58.519 37.673 58.519 40.679 L 58.519 40.88 C 58.519 44.087 60.323 46.091 63.33 46.091 L 63.33 46.091 Z  M 54.31 46.091 L 56.715 46.091 L 56.715 41.281 L 56.715 35.668 L 54.31 35.668 L 54.31 41.08 L 54.31 46.091 Z  M 49.098 37.673 C 50.1 37.673 50.501 38.274 50.501 38.875 C 50.501 39.477 50.1 40.078 49.098 40.078 L 46.091 40.078 L 46.091 37.472 L 49.098 37.673 L 49.098 37.673 Z  M 46.091 42.283 L 47.294 42.283 L 50.501 46.091 L 53.508 46.091 L 49.9 42.082 C 51.704 41.682 52.706 40.479 52.706 38.875 C 52.706 36.871 51.303 35.468 49.098 35.468 L 43.486 35.468 L 43.486 46.091 L 45.891 46.091 L 46.091 42.283 L 46.091 42.283 Z  M 41.682 37.673 L 41.682 35.468 L 33.263 35.468 L 33.263 46.091 L 41.682 46.091 L 41.682 43.886 L 35.668 43.886 L 35.668 41.682 L 41.481 41.682 L 41.481 39.477 L 35.668 39.477 L 35.668 37.472 L 41.682 37.472 L 41.682 37.673 Z  M 23.441 46.091 L 25.646 46.091 L 28.653 37.472 L 28.653 46.091 L 31.058 46.091 L 31.058 35.468 L 27.049 35.468 L 24.644 42.684 L 22.238 35.468 L 18.229 35.468 L 18.229 46.091 L 20.635 46.091 L 20.635 37.472 L 23.441 46.091 Z  M 10.412 39.477 L 11.214 37.272 L 12.016 39.477 L 13.018 41.882 L 9.41 41.882 L 10.412 39.477 Z  M 14.621 46.091 L 17.227 46.091 L 12.617 35.468 L 9.61 35.468 L 5 46.091 L 7.606 46.091 L 8.608 43.886 L 13.82 43.886 L 14.621 46.091 Z " fill="rgb(0,111,207)"/></g></g></svg>