<?xml version="1.0" standalone="no"?><!-- Generator: Gravit.io --><svg xmlns="http://www.w3.org/2000/svg" xmlns:xlink="http://www.w3.org/1999/xlink" style="isolation:isolate" viewBox="0 0 100 100" width="100" height="100"><defs><clipPath id="_clipPath_aVigwnmkKDB2UAq1MThj4RUwUmb3vitJ"><rect width="100" height="100"/></clipPath></defs><g clip-path="url(#_clipPath_aVigwnmkKDB2UAq1MThj4RUwUmb3vitJ)"><path d=" M 73.554 34.398 L 73.554 42.245 L 74.389 42.245 C 74.723 38.271 77.033 35.819 79.369 35.819 L 83.292 35.83 L 83.292 61.825 C 83.485 64.027 81.522 64.844 79.127 64.827 L 79.136 65.653 L 94.686 65.653 L 94.683 64.82 C 92.216 64.542 90.187 64.605 90.214 62.248 L 90.222 35.83 L 93.86 35.83 C 96.197 35.83 99.09 37.841 99.09 42.245 L 100 42.245 L 100 34.398 L 73.554 34.398 L 73.554 34.398 Z  M 61.991 39.038 C 61.978 37.841 62.904 36.452 64.528 36.452 C 67.331 36.452 67.858 39.404 67.16 40.856 C 65.98 43.316 64.29 43.923 64.24 43.825 C 63.284 42.245 62.007 40.504 61.991 39.038 Z  M 57.634 57.181 C 55.484 53.104 57.075 50.192 59.167 48.42 C 59.167 48.42 63.284 56.75 67.591 61.058 C 65.916 62.543 60.842 63.26 57.634 57.181 L 57.634 57.181 Z  M 35.802 50.24 L 37.529 50.24 C 42.028 49.857 43.657 53.112 43.894 56.505 C 44.184 60.593 42.547 64.118 38.415 64.118 C 36.565 64.118 35.805 63.45 35.805 61.364 L 35.802 50.24 L 35.802 50.24 Z  M 50.932 60.197 C 52.206 62.799 55.395 66.668 60.698 66.756 C 63.617 66.803 66.332 66.023 69.554 62.974 C 70.702 63.978 72.331 65.653 74.82 65.797 C 75.52 65.838 77.664 65.431 79.415 63.214 C 80.891 61.343 81.195 59.908 81.236 59.861 L 80.469 59.286 C 79.974 60.304 79.153 61.058 78.123 61.058 C 76.184 61.058 76.076 60.305 73.814 58.043 C 76.065 54.74 75.94 53.039 77.166 51.293 C 78.409 49.521 79.464 48.517 81.57 48.444 L 81.57 47.558 L 73.792 47.558 L 73.792 48.346 C 75.347 48.229 75.594 49.455 75.394 50.479 C 74.988 52.562 72.811 56.816 72.523 56.51 C 69.22 53.016 65.15 45.405 65.15 45.405 C 68.118 43.777 69.315 40.378 69.315 39.516 C 69.315 36.566 67.764 34.084 63.428 33.533 C 60.793 33.198 55.815 35.4 55.72 39.995 C 55.676 42.077 56.964 44.16 58.305 46.745 C 54.802 48.125 52.052 50.846 50.89 54.374 C 49.518 51.131 45.743 49.835 43.28 49.172 L 43.379 49.172 C 45.228 48.569 50.837 47.448 50.597 42.231 C 50.282 35.381 41.519 34.205 38.398 34.417 L 24.788 34.417 L 24.788 35.306 C 26.814 35.445 28.797 34.916 28.797 38.287 L 28.804 61.708 C 28.804 64.534 27.273 64.568 24.806 64.845 L 24.795 65.653 L 38.977 65.653 C 46.639 65.729 49.859 63.547 50.932 60.197 L 50.932 60.197 Z  M 0 65.653 L 14.173 65.653 C 24.029 65.318 26.805 62.051 26.805 56.986 C 26.805 51.702 22.178 50.082 19.122 49.258 C 20.821 48.923 25.871 46.912 25.799 42.14 C 25.697 35.284 16.738 34.206 13.617 34.418 L 0.006 34.418 L 0.006 35.309 C 2.032 35.447 4.016 34.916 4.016 38.289 L 4.007 61.617 C 4.007 64.443 2.467 64.568 0 64.845 L 0 65.653 L 0 65.653 Z  M 11.007 50.192 L 12.733 50.192 C 16.717 50.093 19.026 52.346 19.29 56.415 C 19.556 60.535 17.877 63.978 13.618 64.027 C 11.769 64.049 11.007 63.359 11.007 61.274 L 11.007 50.192 L 11.007 50.192 Z  M 13.031 36.086 C 17.406 36.381 18.56 40.16 18.563 41.551 C 18.572 45.741 17.256 48.947 11.038 48.757 L 11.038 36.086 C 11.092 36.086 12.546 36.054 13.031 36.086 L 13.031 36.086 Z  M 37.829 36.101 C 42.206 36.397 43.36 40.175 43.361 41.567 C 43.37 45.756 42.053 48.963 35.837 48.772 L 35.837 36.101 C 35.891 36.101 37.345 36.069 37.829 36.101 Z " fill="rgb(138,0,37)"/></g></svg>