<?xml version="1.0" standalone="no"?><!-- Generator: Gravit.io --><svg xmlns="http://www.w3.org/2000/svg" xmlns:xlink="http://www.w3.org/1999/xlink" style="isolation:isolate" viewBox="0 0 100 100" width="100" height="100"><defs><clipPath id="_clipPath_62BJ53ko96PigLGQkT3vR0Pqez19L1VO"><rect width="100" height="100"/></clipPath></defs><g clip-path="url(#_clipPath_62BJ53ko96PigLGQkT3vR0Pqez19L1VO)"><path d=" M 69.595 41.625 L 71.781 41.625 C 71.781 41.625 71.765 33.826 78.892 33.826 C 78.892 33.826 80.693 33.826 81.062 33.826 C 81.062 34.194 81.062 65.881 81.062 65.881 L 77.651 65.881 C 75.472 65.664 73.655 64.263 71.901 62.597 L 69.339 60.123 C 69.899 59.37 70.644 58.217 71.164 57.016 C 71.757 55.655 72.189 53.1 72.454 52.476 C 72.542 52.267 72.638 52.075 72.758 51.883 C 73.094 51.347 73.663 50.898 74.239 50.65 C 74.68 50.458 75.216 50.33 75.705 50.33 L 76.033 50.33 L 76.033 48.48 L 65.343 48.48 L 65.343 50.33 L 66.063 50.33 C 68.009 50.338 69.595 51.915 69.595 53.893 C 69.595 56.439 67.689 58.529 67.689 58.529 L 57.92 49.04 C 62.284 47.455 65.951 45.277 65.951 41.177 C 65.951 36.861 62.66 33.826 56.718 33.826 C 50.689 33.826 46.677 37.157 46.677 42.546 C 46.677 46.094 48.302 48.4 49.88 49.985 C 44.923 51.907 41.976 54.43 41.976 59.05 C 41.976 65.544 47.83 68.155 54.332 68.155 C 58.608 68.155 62.196 66.873 64.974 64.824 C 65.014 64.791 66.824 67.73 72.157 67.73 C 72.542 67.73 92.441 67.714 92.441 67.714 L 92.441 65.881 L 88.533 65.881 C 88.533 65.881 88.533 34.154 88.533 33.826 C 88.901 33.826 90.703 33.826 90.703 33.826 C 97.806 33.826 97.814 41.625 97.814 41.625 L 100 41.625 L 100 32.008 L 69.595 32.008 L 69.595 41.625 Z  M 56.51 35.643 C 58.865 35.643 60.314 37.533 60.314 40.224 C 60.314 43.219 58.985 45.789 56.126 47.327 C 54.284 45.533 52.707 43.083 52.707 40.136 C 52.699 37.493 54.156 35.643 56.51 35.643 Z  M 56.294 65.04 C 52.066 65.04 48.903 61.909 48.903 57.721 C 48.903 54.774 49.584 52.98 51.553 51.699 L 63.349 63.278 C 61.419 64.599 58.945 65.04 56.294 65.04 Z  M 38.357 33.826 L 42.585 33.826 L 42.585 32 L 31.19 32 C 31.19 32 21.765 55.543 21.461 56.303 C 21.156 55.535 11.683 32 11.683 32 L 0 32 L 0 33.834 L 4.228 33.834 L 4.22 65.873 L 0.721 65.873 L 0.721 67.698 L 11.035 67.698 L 11.035 65.873 L 6.462 65.873 C 6.462 65.873 6.462 39.135 6.462 37.91 C 6.999 39.263 17.953 66.881 17.953 66.881 L 19.803 66.881 C 19.803 66.881 30.605 39.271 31.142 37.91 C 31.142 39.407 31.126 65.881 31.126 65.881 L 27.53 65.881 L 27.53 67.698 L 41.968 67.698 L 41.968 65.881 L 38.357 65.881 L 38.357 33.826 L 38.357 33.826 Z " fill-rule="evenodd" fill="rgb(2,120,86)"/></g></svg>