<?xml version="1.0" standalone="no"?><!-- Generator: Gravit.io --><svg xmlns="http://www.w3.org/2000/svg" xmlns:xlink="http://www.w3.org/1999/xlink" style="isolation:isolate" viewBox="0 0 100 100" width="100" height="100"><defs><clipPath id="_clipPath_TPHeEQ5h1lmFALNxaQrR9iCM154YUCou"><rect width="100" height="100"/></clipPath></defs><g clip-path="url(#_clipPath_TPHeEQ5h1lmFALNxaQrR9iCM154YUCou)"><path d=" M 76.756 73.431 C 76.756 75.365 76.521 78.575 71.988 78.575 C 71.033 78.575 69.001 78.569 67.786 77.338 C 67.012 76.559 66.654 75.308 66.654 73.425 L 66.654 66.634 C 66.654 66 66.255 65.823 65.278 65.823 L 65.278 64.956 L 71.258 64.956 L 71.258 65.823 C 70.287 65.823 69.89 66 69.89 66.634 L 69.89 73.866 C 69.89 75.504 70.015 77.348 72.481 77.416 C 75.245 77.506 75.458 75.222 75.458 73.649 L 75.458 66.677 C 75.458 66.043 75.35 65.82 74.374 65.82 L 74.033 65.82 L 74.033 64.956 L 78.155 64.956 L 78.155 65.823 L 77.824 65.823 C 76.871 65.823 76.754 66.045 76.754 66.681 L 76.754 73.431 L 76.756 73.431 Z " fill="rgb(0,68,124)"/><path d=" M 97.784 78.211 L 91.151 78.211 L 91.151 77.361 L 91.584 77.361 C 92.594 77.361 92.848 76.95 92.848 76.322 L 92.848 66.107 L 91.551 66.107 C 90.862 66.107 90.593 66.262 90.368 66.593 C 90.12 66.949 90.12 67.865 90.104 68.499 L 88.953 68.499 L 88.953 64.956 L 100 64.956 L 100 68.501 L 98.843 68.501 C 98.828 67.869 98.828 66.951 98.575 66.595 C 98.352 66.264 98.078 66.109 97.399 66.109 L 96.085 66.109 L 96.085 76.324 C 96.085 76.952 96.34 77.363 97.348 77.363 L 97.786 77.363 L 97.786 78.211 L 97.784 78.211 Z " fill="rgb(0,68,124)"/><g><path d=" M 88.714 74.514 C 88.521 76.69 86.818 78.575 83.373 78.575 C 81.475 78.575 79.465 77.966 78.693 77.414 L 78.693 74.14 L 79.883 74.14 C 79.899 74.514 79.899 74.843 79.973 75.297 C 80.04 75.649 80.14 75.966 80.39 76.258 C 80.858 76.813 81.747 77.428 83.395 77.455 C 85.485 77.493 86.446 76.34 86.43 75.283 C 86.405 73.768 85.6 73.514 82.702 72.854 C 79.815 72.181 78.648 71.094 78.662 68.734 C 78.674 66.53 80.31 64.53 83.796 64.563 C 85.873 64.587 86.961 64.933 87.932 65.395 L 87.932 68.501 L 86.761 68.501 C 86.747 68.188 86.726 67.789 86.685 67.397 C 86.659 67.029 86.546 66.685 86.237 66.426 C 85.342 65.683 84.172 65.645 83.371 65.679 C 82.289 65.72 80.858 66.295 80.858 67.532 C 80.848 68.726 81.334 69.135 83.823 69.646 C 86.072 70.1 87.004 70.403 87.759 71.173 C 88.552 72.003 88.844 73.159 88.714 74.514 Z " fill="rgb(0,68,124)"/><path d=" M 13.067 73.57 C 12.785 76.187 10.753 78.569 6.212 78.569 C 3.725 78.569 1.149 77.786 0.141 77.037 L 0.141 72.639 L 1.527 72.639 C 1.552 73.14 1.568 73.572 1.646 74.05 C 1.719 74.498 1.871 74.981 2.161 75.369 C 2.959 76.373 4.159 77.101 6.201 77.131 C 9.238 77.168 10.244 75.412 10.229 73.923 C 10.205 72.069 8.923 71.56 5.478 70.701 C 2.182 69.879 0.018 68.654 0 65.434 C -0.014 62.375 2.186 59.95 6.663 59.95 C 9.35 59.95 10.786 60.484 11.978 61.06 L 11.978 64.954 L 10.681 64.954 C 10.661 64.555 10.644 64.003 10.546 63.545 C 10.434 62.991 10.127 62.508 9.79 62.275 C 8.675 61.508 7.626 61.32 6.281 61.379 C 4.4 61.451 2.875 62.389 2.85 63.962 C 2.82 65.54 3.433 66.272 6.737 66.992 C 9.497 67.603 10.97 68.155 11.871 69.041 C 13.076 70.263 13.262 71.76 13.067 73.57 Z " fill="rgb(0,68,124)"/></g><path d=" M 27.03 65.823 C 28.004 65.823 28.079 66 28.079 66.634 L 28.079 76.496 C 28.079 77.119 27.965 77.361 26.989 77.361 L 26.642 77.361 L 26.642 78.211 L 30.795 78.211 L 30.795 77.361 L 30.453 77.361 C 29.48 77.361 29.363 77.119 29.363 76.496 L 29.363 68.198 L 34.951 78.211 L 38.09 78.211 L 38.09 66.72 C 38.09 66.09 38.213 65.823 39.194 65.823 L 40.13 65.823 L 40.13 64.352 C 40.13 63.091 40.233 61.617 42.091 61.617 L 44.171 61.617 L 44.171 75.815 C 44.171 77.009 43.891 77.363 42.523 77.363 L 42.061 77.363 L 42.061 78.213 L 49.996 78.213 L 49.996 77.363 L 49.55 77.363 C 48.17 77.363 47.857 77.009 47.857 75.815 L 47.857 61.617 L 49.924 61.617 C 51.754 61.617 51.861 63.093 51.861 64.352 L 51.861 65.823 L 53.149 65.823 C 54.142 65.823 54.216 66.045 54.216 66.681 L 54.216 76.514 C 54.216 77.144 53.795 77.363 52.789 77.363 L 52.789 78.213 L 58.921 78.213 L 58.921 77.363 C 57.925 77.363 57.492 77.146 57.492 76.514 L 57.492 65.99 L 59.119 65.99 C 60.393 65.99 61.338 66.454 61.338 68.403 C 61.338 69.628 60.843 71.022 59.078 71.022 L 58.109 71.022 C 58.109 71.022 60.534 75.929 60.976 76.833 C 61.544 77.968 62.258 78.211 63.656 78.211 L 66.059 78.211 L 66.059 77.361 C 65.721 77.361 65.057 77.315 64.685 76.723 L 61.818 71.725 C 63.427 71.388 64.585 70.149 64.585 68.38 C 64.585 65.127 61.329 64.954 59.207 64.954 L 53.167 64.954 L 53.167 60.275 L 38.816 60.275 L 38.816 64.954 L 35.368 64.954 L 35.368 65.822 L 35.718 65.822 C 36.691 65.822 36.8 66.08 36.8 66.718 L 36.8 74.917 L 31.252 64.953 L 22.518 64.953 L 22.518 65.82 L 22.861 65.82 C 23.841 65.82 23.955 65.996 23.955 66.63 L 23.955 73.647 C 23.955 75.22 23.736 77.504 20.972 77.414 C 18.506 77.346 18.377 75.5 18.377 73.864 L 18.377 66.632 C 18.377 65.998 18.774 65.822 19.751 65.822 L 19.751 64.956 L 13.762 64.956 L 13.762 65.823 C 14.736 65.823 15.13 66 15.13 66.634 L 15.13 73.425 C 15.13 75.308 15.5 76.559 16.237 77.338 C 17.48 78.569 19.524 78.575 20.469 78.575 C 24.975 78.575 25.211 75.365 25.211 72.617 L 25.211 65.806 C 25.211 66.002 25.288 65.825 26.259 65.825 L 27.03 65.825 L 27.03 65.823 Z " fill="rgb(0,68,124)"/><g><linearGradient id="_lgradient_0" x1="-0.1774956952444402" y1="0.6831164052052183" x2="7.11071361041168" y2="-8.002645325451708" gradientTransform="matrix(2.303,0,0,12.229,11.959,42.42)" gradientUnits="userSpaceOnUse"><stop offset="34.27%" stop-opacity="1" style="stop-color:rgb(253,185,19)"/><stop offset="36.559999999999995%" stop-opacity="1" style="stop-color:rgb(251,180,21)"/><stop offset="55.19%" stop-opacity="1" style="stop-color:rgb(239,148,27)"/><stop offset="72.47%" stop-opacity="1" style="stop-color:rgb(232,128,29)"/><stop offset="87.76%" stop-opacity="1" style="stop-color:rgb(228,116,30)"/><stop offset="99.44%" stop-opacity="1" style="stop-color:rgb(227,111,30)"/></linearGradient><path d=" M 12.456 42.9 L 12.17 43.693 C 11.926 44.356 11.892 45.542 12.074 46.175 L 13.54 53.753 C 13.656 54.411 13.863 54.685 14.082 54.646 C 14.321 54.585 14.296 54.086 14.157 52.943 L 13.051 42.898 C 12.973 42.266 12.695 42.254 12.456 42.9 Z " fill="url(#_lgradient_0)"/><linearGradient id="_lgradient_1" x1="-1.8921786408148193" y1="0.9051387183382795" x2="13.076386436132676" y2="-16.933616862138866" gradientTransform="matrix(1.104,0,0,8.299,14.491,44.061)" gradientUnits="userSpaceOnUse"><stop offset="34.27%" stop-opacity="1" style="stop-color:rgb(253,185,19)"/><stop offset="36.559999999999995%" stop-opacity="1" style="stop-color:rgb(251,180,21)"/><stop offset="55.19%" stop-opacity="1" style="stop-color:rgb(239,148,27)"/><stop offset="72.47%" stop-opacity="1" style="stop-color:rgb(232,128,29)"/><stop offset="87.76%" stop-opacity="1" style="stop-color:rgb(228,116,30)"/><stop offset="99.44%" stop-opacity="1" style="stop-color:rgb(227,111,30)"/></linearGradient><path d=" M 15.562 50.862 C 15.59 51.516 15.66 52.299 15.437 52.356 C 15.229 52.399 15.102 52.144 14.995 51.301 L 14.519 46.826 C 14.435 46.184 14.544 44.826 14.783 44.35 C 15.026 43.875 15.249 43.996 15.274 44.634 L 15.562 50.862 Z " fill="url(#_lgradient_1)"/><linearGradient id="_lgradient_2" x1="-3.914423714657323" y1="1.0079605857657903" x2="7.925912579357584" y2="-13.102816399363782" gradientTransform="matrix(1.382,0,0,14.741,16.178,35.402)" gradientUnits="userSpaceOnUse"><stop offset="34.27%" stop-opacity="1" style="stop-color:rgb(253,185,19)"/><stop offset="36.559999999999995%" stop-opacity="1" style="stop-color:rgb(251,180,21)"/><stop offset="55.19%" stop-opacity="1" style="stop-color:rgb(239,148,27)"/><stop offset="72.47%" stop-opacity="1" style="stop-color:rgb(232,128,29)"/><stop offset="87.76%" stop-opacity="1" style="stop-color:rgb(228,116,30)"/><stop offset="99.44%" stop-opacity="1" style="stop-color:rgb(227,111,30)"/></linearGradient><path d=" M 17.555 35.805 L 16.983 48.842 C 16.973 49.435 16.934 50.191 16.713 50.14 C 16.59 50.111 16.441 49.766 16.429 49.171 L 16.179 38.469 C 16.163 37.937 16.367 37.058 16.652 36.525 L 17.046 35.786 C 17.332 35.267 17.6 35.275 17.555 35.805 Z " fill="url(#_lgradient_2)"/><linearGradient id="_lgradient_3" x1="-3.730063297805687" y1="1.1498614304540316" x2="7.013939746240711" y2="-11.654321406427343" gradientTransform="matrix(1.527,0,0,11.905,18.01,37.924)" gradientUnits="userSpaceOnUse"><stop offset="34.27%" stop-opacity="1" style="stop-color:rgb(253,185,19)"/><stop offset="36.559999999999995%" stop-opacity="1" style="stop-color:rgb(251,180,21)"/><stop offset="55.19%" stop-opacity="1" style="stop-color:rgb(239,148,27)"/><stop offset="72.47%" stop-opacity="1" style="stop-color:rgb(232,128,29)"/><stop offset="87.76%" stop-opacity="1" style="stop-color:rgb(228,116,30)"/><stop offset="99.44%" stop-opacity="1" style="stop-color:rgb(227,111,30)"/></linearGradient><path d=" M 19.512 38.471 L 18.625 48.414 C 18.535 49.116 18.432 49.839 18.224 49.829 C 18.083 49.825 17.96 49.386 18.03 48.729 L 18.398 40.193 C 18.461 39.577 18.876 38.651 19.14 38.177 C 19.408 37.715 19.61 37.927 19.512 38.471 Z " fill="url(#_lgradient_3)"/><linearGradient id="_lgradient_4" x1="-2.848176362536253" y1="1.1803491140417182" x2="2.760075914305755" y2="-5.503358060770864" gradientTransform="matrix(2.945,0,0,17.196,19.693,30.513)" gradientUnits="userSpaceOnUse"><stop offset="34.27%" stop-opacity="1" style="stop-color:rgb(253,185,19)"/><stop offset="36.559999999999995%" stop-opacity="1" style="stop-color:rgb(251,180,21)"/><stop offset="55.19%" stop-opacity="1" style="stop-color:rgb(239,148,27)"/><stop offset="72.47%" stop-opacity="1" style="stop-color:rgb(232,128,29)"/><stop offset="87.76%" stop-opacity="1" style="stop-color:rgb(228,116,30)"/><stop offset="99.44%" stop-opacity="1" style="stop-color:rgb(227,111,30)"/></linearGradient><path d=" M 19.849 47.709 C 19.678 47.688 19.67 46.983 19.717 46.503 L 21.111 32.742 C 21.187 32.233 21.557 31.45 21.925 30.998 L 22.058 30.834 C 22.44 30.374 22.72 30.417 22.616 30.912 L 20.267 46.519 C 20.146 47.192 20.058 47.709 19.849 47.709 Z " fill="url(#_lgradient_4)"/><linearGradient id="_lgradient_5" x1="-2.108066235851629" y1="1.2321888713932871" x2="2.3603738512931285" y2="-4.093087339732342" gradientTransform="matrix(3.757,0,0,15.66,20.966,33.014)" gradientUnits="userSpaceOnUse"><stop offset="34.27%" stop-opacity="1" style="stop-color:rgb(253,185,19)"/><stop offset="36.559999999999995%" stop-opacity="1" style="stop-color:rgb(251,180,21)"/><stop offset="55.19%" stop-opacity="1" style="stop-color:rgb(239,148,27)"/><stop offset="72.47%" stop-opacity="1" style="stop-color:rgb(232,128,29)"/><stop offset="87.76%" stop-opacity="1" style="stop-color:rgb(228,116,30)"/><stop offset="99.44%" stop-opacity="1" style="stop-color:rgb(227,111,30)"/></linearGradient><path d=" M 24.002 33.19 C 24.309 32.842 24.818 33.04 24.708 33.533 L 21.661 47.435 C 21.551 47.932 21.334 48.699 21.107 48.674 C 20.919 48.66 20.933 47.93 21.068 47.339 L 23.26 34.768 C 23.368 34.261 23.689 33.531 24.002 33.19 Z " fill="url(#_lgradient_5)"/><linearGradient id="_lgradient_6" x1="-0.9278086505246015" y1="1.2606445194223674" x2="1.007143576418637" y2="-1.0453449196856983" gradientTransform="matrix(9.434,0,0,20.626,23.448,27.703)" gradientUnits="userSpaceOnUse"><stop offset="34.27%" stop-opacity="1" style="stop-color:rgb(253,185,19)"/><stop offset="36.559999999999995%" stop-opacity="1" style="stop-color:rgb(251,180,21)"/><stop offset="55.19%" stop-opacity="1" style="stop-color:rgb(239,148,27)"/><stop offset="72.47%" stop-opacity="1" style="stop-color:rgb(232,128,29)"/><stop offset="87.76%" stop-opacity="1" style="stop-color:rgb(228,116,30)"/><stop offset="99.44%" stop-opacity="1" style="stop-color:rgb(227,111,30)"/></linearGradient><path d=" M 24.313 47.275 C 24.092 47.754 23.82 48.443 23.511 48.312 C 23.287 48.224 23.736 47.138 23.736 47.138 L 31.293 28.706 C 31.535 28.17 32.076 27.483 32.665 27.771 C 33.191 28.025 32.626 29.062 32.418 29.53 C 27.836 39.831 26.531 42.491 24.313 47.275 Z " fill="url(#_lgradient_6)"/><linearGradient id="_lgradient_7" x1="-0.6857087502433175" y1="1.319285282530933" x2="0.6138014020017264" y2="-0.22940365665417461" gradientTransform="matrix(15.052,0,0,25.389,25.952,21)" gradientUnits="userSpaceOnUse"><stop offset="34.27%" stop-opacity="1" style="stop-color:rgb(253,185,19)"/><stop offset="36.559999999999995%" stop-opacity="1" style="stop-color:rgb(251,180,21)"/><stop offset="55.19%" stop-opacity="1" style="stop-color:rgb(239,148,27)"/><stop offset="72.47%" stop-opacity="1" style="stop-color:rgb(232,128,29)"/><stop offset="87.76%" stop-opacity="1" style="stop-color:rgb(228,116,30)"/><stop offset="99.44%" stop-opacity="1" style="stop-color:rgb(227,111,30)"/></linearGradient><path d=" M 26.012 46.366 C 26.192 46.503 26.617 45.998 26.948 45.425 L 40.781 22.382 C 41.026 21.967 41.167 21.3 40.67 21.051 C 40.282 20.858 39.613 21.235 39.296 21.797 L 26.439 45.008 C 26.061 45.707 25.838 46.227 26.012 46.366 Z " fill="url(#_lgradient_7)"/><linearGradient id="_lgradient_8" x1="-0.46741048616229386" y1="1.3222071917092364" x2="0.7406799604382581" y2="-0.11752895575455535" gradientTransform="matrix(17.525,0,0,23.847,26.278,25.043)" gradientUnits="userSpaceOnUse"><stop offset="34.27%" stop-opacity="1" style="stop-color:rgb(253,185,19)"/><stop offset="36.559999999999995%" stop-opacity="1" style="stop-color:rgb(251,180,21)"/><stop offset="55.19%" stop-opacity="1" style="stop-color:rgb(239,148,27)"/><stop offset="72.47%" stop-opacity="1" style="stop-color:rgb(232,128,29)"/><stop offset="87.76%" stop-opacity="1" style="stop-color:rgb(228,116,30)"/><stop offset="99.44%" stop-opacity="1" style="stop-color:rgb(227,111,30)"/></linearGradient><path d=" M 26.331 48.85 C 26.151 48.672 26.458 48.103 26.828 47.529 L 41.601 26.087 C 42.001 25.481 42.882 24.809 43.422 25.122 C 43.911 25.406 43.919 26.017 43.506 26.59 L 27.38 47.936 C 26.981 48.512 26.519 49.04 26.331 48.85 Z " fill="url(#_lgradient_8)"/><linearGradient id="_lgradient_9" x1="-0.34595260483602464" y1="1.464594212172975" x2="0.6432902934850518" y2="0.28565948291784715" gradientTransform="matrix(23.891,0,0,25.823,29.463,21.368)" gradientUnits="userSpaceOnUse"><stop offset="34.27%" stop-opacity="1" style="stop-color:rgb(253,185,19)"/><stop offset="36.559999999999995%" stop-opacity="1" style="stop-color:rgb(251,180,21)"/><stop offset="55.19%" stop-opacity="1" style="stop-color:rgb(239,148,27)"/><stop offset="72.47%" stop-opacity="1" style="stop-color:rgb(232,128,29)"/><stop offset="87.76%" stop-opacity="1" style="stop-color:rgb(228,116,30)"/><stop offset="99.44%" stop-opacity="1" style="stop-color:rgb(227,111,30)"/></linearGradient><path d=" M 30.702 46.364 C 30.702 46.364 29.725 47.386 29.521 47.157 C 29.31 46.936 29.707 46.507 30.138 45.957 L 30.621 45.374 L 51.266 21.695 C 51.599 21.288 52.053 21.269 52.49 21.592 L 53.114 22.361 C 53.455 22.748 53.431 23.42 53.055 23.795 L 30.702 46.364 Z " fill="url(#_lgradient_9)"/><linearGradient id="_lgradient_10" x1="-0.21258394948241932" y1="1.5115225806129793" x2="0.7791667822845207" y2="0.3296058044092076" gradientTransform="matrix(24.824,0,0,21.707,28.99,28.499)" gradientUnits="userSpaceOnUse"><stop offset="34.27%" stop-opacity="1" style="stop-color:rgb(253,185,19)"/><stop offset="36.559999999999995%" stop-opacity="1" style="stop-color:rgb(251,180,21)"/><stop offset="55.19%" stop-opacity="1" style="stop-color:rgb(239,148,27)"/><stop offset="72.47%" stop-opacity="1" style="stop-color:rgb(232,128,29)"/><stop offset="87.76%" stop-opacity="1" style="stop-color:rgb(228,116,30)"/><stop offset="99.44%" stop-opacity="1" style="stop-color:rgb(227,111,30)"/></linearGradient><path d=" M 29.028 50.162 C 28.868 50.001 29.226 49.523 29.881 48.946 L 51.801 28.804 C 52.194 28.399 52.744 28.413 53.098 28.753 C 53.558 29.192 53.715 29.599 53.789 29.986 C 53.913 30.622 53.558 30.904 53.108 31.307 L 30.279 49.484 C 29.715 49.981 29.214 50.334 29.028 50.162 Z " fill="url(#_lgradient_10)"/><linearGradient id="_lgradient_11" x1="-0.18622076391612963" y1="1.7483355666910776" x2="0.6825304680964036" y2="0.7129941601717256" gradientTransform="matrix(28.243,0,0,19.67,32.505,29.893)" gradientUnits="userSpaceOnUse"><stop offset="34.27%" stop-opacity="1" style="stop-color:rgb(253,185,19)"/><stop offset="36.559999999999995%" stop-opacity="1" style="stop-color:rgb(251,180,21)"/><stop offset="55.19%" stop-opacity="1" style="stop-color:rgb(239,148,27)"/><stop offset="72.47%" stop-opacity="1" style="stop-color:rgb(232,128,29)"/><stop offset="87.76%" stop-opacity="1" style="stop-color:rgb(228,116,30)"/><stop offset="99.44%" stop-opacity="1" style="stop-color:rgb(227,111,30)"/></linearGradient><path d=" M 33.571 48.359 L 59.074 30.133 C 59.561 29.749 60.006 29.837 60.129 30.319 L 60.72 32.36 C 60.855 32.865 60.499 33.541 59.978 33.907 L 34.009 48.954 C 33.371 49.361 32.708 49.719 32.543 49.494 C 32.342 49.214 32.984 48.836 33.571 48.359 Z " fill="url(#_lgradient_11)"/><linearGradient id="_lgradient_12" x1="-0.09002697492238099" y1="2.0213590619704798" x2="0.8731930471722469" y2="0.8734391021892867" gradientTransform="matrix(25.343,0,0,12.765,30.85,39.563)" gradientUnits="userSpaceOnUse"><stop offset="34.27%" stop-opacity="1" style="stop-color:rgb(253,185,19)"/><stop offset="36.559999999999995%" stop-opacity="1" style="stop-color:rgb(251,180,21)"/><stop offset="55.19%" stop-opacity="1" style="stop-color:rgb(239,148,27)"/><stop offset="72.47%" stop-opacity="1" style="stop-color:rgb(232,128,29)"/><stop offset="87.76%" stop-opacity="1" style="stop-color:rgb(228,116,30)"/><stop offset="99.44%" stop-opacity="1" style="stop-color:rgb(227,111,30)"/></linearGradient><path d=" M 30.856 52.185 C 30.78 51.888 31.453 51.61 32.166 51.244 L 54.987 39.737 C 55.606 39.399 56.093 39.571 56.089 40.105 L 56.193 42.64 C 56.183 43.194 55.6 43.875 54.891 44.159 L 32.397 51.986 C 31.608 52.291 30.923 52.469 30.856 52.185 Z " fill="url(#_lgradient_12)"/><linearGradient id="_lgradient_13" x1="-0.07415169977159963" y1="2.889708268706982" x2="0.8737176967998176" y2="1.7600829455554914" gradientTransform="matrix(25.586,0,0,7.937,33.994,45.379)" gradientUnits="userSpaceOnUse"><stop offset="34.27%" stop-opacity="1" style="stop-color:rgb(253,185,19)"/><stop offset="36.559999999999995%" stop-opacity="1" style="stop-color:rgb(251,180,21)"/><stop offset="55.19%" stop-opacity="1" style="stop-color:rgb(239,148,27)"/><stop offset="72.47%" stop-opacity="1" style="stop-color:rgb(232,128,29)"/><stop offset="87.76%" stop-opacity="1" style="stop-color:rgb(228,116,30)"/><stop offset="99.44%" stop-opacity="1" style="stop-color:rgb(227,111,30)"/></linearGradient><path d=" M 57.6 50.003 L 35.563 53.156 C 34.7 53.289 34.066 53.428 33.999 53.176 C 33.925 52.87 34.661 52.684 35.467 52.412 L 58.33 45.47 C 59.066 45.225 59.643 45.494 59.575 46.063 L 59.25 48.68 C 59.18 49.283 58.446 49.882 57.6 50.003 Z " fill="url(#_lgradient_13)"/><linearGradient id="_lgradient_14" x1="-0.008526665824270863" y1="4.969995308436548" x2="1.0491903727200627" y2="3.7094554267767936" gradientTransform="matrix(22.74,0,0,3.234,32.525,52.402)" gradientUnits="userSpaceOnUse"><stop offset="34.27%" stop-opacity="1" style="stop-color:rgb(253,185,19)"/><stop offset="36.559999999999995%" stop-opacity="1" style="stop-color:rgb(251,180,21)"/><stop offset="55.19%" stop-opacity="1" style="stop-color:rgb(239,148,27)"/><stop offset="72.47%" stop-opacity="1" style="stop-color:rgb(232,128,29)"/><stop offset="87.76%" stop-opacity="1" style="stop-color:rgb(228,116,30)"/><stop offset="99.44%" stop-opacity="1" style="stop-color:rgb(227,111,30)"/></linearGradient><path d=" M 32.528 55.295 C 32.467 54.971 33.563 54.787 34.411 54.698 L 53.901 52.412 C 54.772 52.324 55.486 52.788 55.202 53.544 L 54.807 54.571 C 54.574 55.229 53.858 55.687 52.954 55.626 L 34.272 55.634 C 33.453 55.646 32.59 55.62 32.528 55.295 Z " fill="url(#_lgradient_14)"/><linearGradient id="_lgradient_15" x1="-1.4070680040975498" y1="1.25034363494174" x2="0.9742161365572046" y2="-1.5875797255966009" gradientTransform="matrix(7.278,0,0,21.638,22.795,24.85)" gradientUnits="userSpaceOnUse"><stop offset="34.27%" stop-opacity="1" style="stop-color:rgb(253,185,19)"/><stop offset="36.559999999999995%" stop-opacity="1" style="stop-color:rgb(251,180,21)"/><stop offset="55.19%" stop-opacity="1" style="stop-color:rgb(239,148,27)"/><stop offset="72.47%" stop-opacity="1" style="stop-color:rgb(232,128,29)"/><stop offset="87.76%" stop-opacity="1" style="stop-color:rgb(228,116,30)"/><stop offset="99.44%" stop-opacity="1" style="stop-color:rgb(227,111,30)"/></linearGradient><path d=" M 29.831 26.393 C 29.831 26.393 24.186 43.736 23.861 44.67 C 23.514 45.67 23.178 46.56 22.882 46.484 C 22.692 46.427 22.841 45.791 23.053 45.024 L 28.396 26.207 C 28.65 25.447 29.445 24.792 29.756 24.854 C 30.318 24.962 29.995 25.913 29.831 26.393 Z " fill="url(#_lgradient_15)"/></g></g></svg>