<?xml version="1.0" standalone="no"?><!-- Generator: Gravit.io --><svg xmlns="http://www.w3.org/2000/svg" xmlns:xlink="http://www.w3.org/1999/xlink" style="isolation:isolate" viewBox="0 0 100 100" width="100" height="100"><defs><clipPath id="_clipPath_sLp7sHvcZJUqyY9Iwymhf2eSnMeHWsW3"><rect width="100" height="100"/></clipPath></defs><g clip-path="url(#_clipPath_sLp7sHvcZJUqyY9Iwymhf2eSnMeHWsW3)"><path d=" M 68.911 10.563 C 69.516 10.473 70.115 10.353 70.708 10.203 C 70.142 10.32 69.522 10.446 68.911 10.563 Z " fill="rgb(13,151,255)"/><g opacity="0.48"><path d=" M 93.897 37.822 C 92.187 31.869 88.506 26.674 83.457 23.087 C 82.155 22.159 80.771 21.35 79.324 20.67 C 79.083 20.549 78.889 20.349 78.776 20.104 C 78.057 18.68 77.225 17.316 76.287 16.025 C 72.614 11.037 67.361 7.44 61.382 5.819 C 59.19 5.255 56.934 4.98 54.67 5.001 C 50.785 5.036 46.951 5.884 43.413 7.49 C 41.939 8.17 40.526 8.976 39.19 9.898 C 39 10.02 38.779 10.086 38.552 10.086 L 38.552 10.086 C 37.851 10.032 37.151 10.015 36.495 10.015 C 35.57 10.021 34.646 10.078 33.728 10.185 C 30.647 10.521 27.645 11.378 24.851 12.719 C 22.096 14.035 19.586 15.813 17.43 17.975 C 11.97 23.619 9.21 31.343 9.856 39.169 C 9.873 39.436 9.803 39.7 9.658 39.924 C 8.776 41.258 8.004 42.661 7.349 44.12 C 2.09 55.787 5.897 69.546 16.405 76.85 C 17.71 77.782 19.096 78.594 20.547 79.276 C 20.784 79.399 20.976 79.594 21.095 79.833 C 21.803 81.262 22.633 82.627 23.575 83.912 C 25.405 86.406 27.648 88.569 30.206 90.309 C 32.727 92.04 35.526 93.329 38.48 94.119 C 40.678 94.686 42.94 94.963 45.21 94.945 C 49.09 94.909 52.919 94.058 56.449 92.448 C 57.923 91.771 59.336 90.968 60.672 90.049 C 60.864 89.931 61.085 89.869 61.31 89.869 C 61.948 89.869 62.631 89.932 63.403 89.932 C 77.245 89.937 88.791 79.355 89.989 65.566 C 90.119 63.972 90.119 62.371 89.989 60.777 C 89.965 60.507 90.035 60.238 90.186 60.013 C 91.07 58.685 91.839 57.285 92.486 55.827 C 94.053 52.272 94.855 48.427 94.84 44.542 C 94.827 42.27 94.51 40.01 93.897 37.822 L 93.897 37.822 Z  M 47.851 10.095 C 50.064 9.411 52.364 9.054 54.679 9.035 C 56.6 9.015 58.515 9.248 60.376 9.727 C 64.493 10.834 68.224 13.057 71.157 16.151 C 71.446 16.457 71.527 16.904 71.364 17.292 C 71.196 17.676 70.821 17.928 70.402 17.939 C 70.349 17.949 70.294 17.949 70.241 17.939 C 69.243 17.793 68.238 17.697 67.231 17.651 C 66.611 17.651 65.937 17.597 65.155 17.651 C 62.962 17.675 60.774 17.879 58.615 18.262 L 58.471 18.262 C 58.23 18.256 57.998 18.174 57.806 18.029 C 55.579 16.162 53.143 14.561 50.547 13.258 C 49.648 12.81 48.727 12.409 47.788 12.054 C 47.367 11.9 47.096 11.487 47.123 11.039 C 47.139 10.601 47.432 10.222 47.851 10.095 Z  M 33.943 21.003 C 35.513 18.571 37.453 16.401 39.693 14.57 C 39.886 14.412 40.127 14.327 40.376 14.327 L 40.538 14.327 C 43.397 14.757 46.172 15.624 48.768 16.897 C 49.513 17.256 50.295 17.687 51.176 18.208 C 51.528 18.427 51.721 18.83 51.67 19.242 C 51.634 19.665 51.341 20.022 50.933 20.14 C 49.891 20.464 48.902 20.787 47.932 21.11 L 47.537 21.245 C 45.452 21.919 43.943 22.395 42.425 22.826 C 40.906 23.258 39.424 23.59 37.824 23.95 L 37.249 24.039 C 36.099 24.291 34.949 24.551 33.746 24.848 C 33.665 24.86 33.583 24.86 33.503 24.848 C 33.134 24.848 32.792 24.654 32.604 24.336 C 32.425 24.015 32.425 23.624 32.604 23.303 C 32.982 22.566 33.449 21.766 33.943 21.003 Z  M 18.265 59.25 C 17.81 62.068 17.672 64.927 17.852 67.776 C 17.915 68.674 18.032 69.708 18.193 70.759 C 18.261 71.077 18.179 71.409 17.969 71.657 C 17.764 71.885 17.475 72.018 17.169 72.026 C 16.902 72.032 16.643 71.932 16.45 71.747 C 9.955 65.922 7.446 56.848 10.026 48.513 C 10.156 48.084 10.541 47.783 10.989 47.761 C 11.436 47.739 11.85 48 12.021 48.414 C 12.389 49.313 12.812 50.274 13.261 51.164 C 14.569 53.704 16.157 56.091 17.996 58.279 C 18.224 58.547 18.323 58.902 18.265 59.25 L 18.265 59.25 Z  M 21.167 48.019 C 20.817 49.133 20.466 50.265 20.107 51.451 C 19.983 51.9 19.575 52.212 19.11 52.215 C 18.743 52.223 18.401 52.034 18.211 51.721 C 17.718 50.954 17.265 50.163 16.855 49.349 C 15.491 46.684 14.566 43.817 14.114 40.858 C 13.789 38.845 13.716 36.798 13.899 34.767 C 13.899 34.354 13.98 33.976 14.042 33.59 C 15.273 24.324 22.134 16.8 31.248 14.722 C 31.331 14.713 31.416 14.713 31.499 14.722 C 31.886 14.728 32.236 14.955 32.398 15.306 C 32.585 15.671 32.539 16.111 32.281 16.429 C 31.688 17.184 31.104 18.002 30.484 18.864 C 28.871 21.366 27.559 24.051 26.576 26.86 C 26.535 26.985 26.439 27.085 26.315 27.13 C 23.779 28.071 21.349 29.275 19.065 30.724 L 18.75 30.939 L 18.472 31.101 L 18.292 31.227 L 18.211 31.281 L 18.077 31.371 L 18.005 31.425 L 17.834 31.532 C 17.763 31.584 17.715 31.662 17.699 31.748 C 17.694 31.847 17.694 31.946 17.699 32.045 L 17.699 32.35 Q 17.699 32.656 17.636 32.961 Q 17.582 33.581 17.546 34.21 Q 17.51 34.839 17.546 35.495 C 17.546 35.611 17.546 35.728 17.546 35.836 C 17.546 36.005 17.639 36.16 17.789 36.237 C 17.938 36.315 18.119 36.302 18.256 36.204 C 18.795 35.827 19.343 35.459 19.9 35.081 L 20.134 34.821 C 20.323 34.677 20.511 34.542 20.709 34.416 L 21.023 34.21 C 21.625 33.806 22.299 33.401 23.045 32.988 C 23.5 32.762 24.051 32.873 24.384 33.257 C 24.58 33.513 24.656 33.841 24.59 34.156 C 24.339 35.198 24.132 36.204 23.925 37.175 L 23.818 37.669 C 23.485 39.358 23.108 41.155 22.659 42.88 C 22.209 44.605 21.76 46.06 21.248 47.696 L 21.167 48.019 Z  M 25.165 76.823 L 24.087 76.428 L 23.952 76.347 L 23.863 76.15 C 22.748 73.376 22.077 70.444 21.877 67.462 C 21.809 66.565 21.788 65.665 21.814 64.766 C 21.824 64.194 22.293 63.737 22.865 63.742 C 23.127 63.739 23.381 63.835 23.575 64.012 C 24.473 64.856 25.372 65.656 26.27 66.419 L 26.477 66.608 C 27.699 67.695 28.984 68.863 30.197 70.04 C 31.41 71.217 32.569 72.493 33.871 73.912 C 34.213 74.281 34.563 74.649 34.905 75.027 L 35.003 75.134 C 35.038 75.149 35.077 75.149 35.111 75.134 C 36.499 75.106 37.882 74.983 39.253 74.766 C 39.422 74.742 39.562 74.624 39.615 74.462 C 39.668 74.3 39.626 74.122 39.505 74.002 C 38.606 73.104 37.78 72.205 36.809 71.145 L 36.387 70.759 C 35.327 69.609 34.177 68.378 33 67.219 C 31.823 66.06 30.691 65.036 29.541 64.003 L 28.903 63.428 C 27.528 62.197 26.208 61.047 24.896 59.753 C 24.294 59.196 23.701 58.603 23.099 58.01 C 22.817 57.71 22.702 57.289 22.793 56.887 C 22.982 56.078 23.18 55.279 23.395 54.506 C 23.863 52.763 24.375 51.137 24.815 49.744 L 25.102 48.792 C 25.615 47.13 26.109 45.557 26.513 43.94 C 26.917 42.323 27.331 40.472 27.735 38.549 L 27.897 37.759 C 28.193 36.384 28.526 34.821 28.93 33.204 C 29.101 32.494 29.307 31.694 29.559 30.841 C 29.68 30.438 29.993 30.121 30.394 29.996 C 31.095 29.78 31.751 29.601 32.353 29.43 L 32.739 29.322 C 34.644 28.828 36.432 28.424 38.076 28.055 L 38.741 27.903 C 40.376 27.525 41.912 27.166 43.449 26.744 C 44.985 26.321 46.683 25.764 48.238 25.27 L 48.741 25.109 C 50.367 24.569 52.11 23.994 53.961 23.446 C 55.048 23.141 55.928 22.907 56.746 22.719 C 58.768 22.232 60.826 21.908 62.9 21.748 C 63.655 21.685 64.41 21.649 65.146 21.649 C 65.748 21.649 66.35 21.649 66.943 21.649 C 69.92 21.805 72.852 22.433 75.631 23.509 C 75.754 23.55 75.852 23.642 75.901 23.761 C 77.028 26.531 77.704 29.465 77.904 32.449 C 77.958 33.293 77.976 34.183 77.958 35.144 C 77.964 35.573 77.709 35.961 77.314 36.127 C 76.919 36.293 76.463 36.203 76.161 35.899 C 75.263 35.054 74.365 34.255 73.466 33.491 L 73.017 33.087 C 71.795 31.991 70.636 30.939 69.54 29.879 C 68.444 28.819 67.33 27.588 66.18 26.357 L 65.838 25.989 L 65.102 25.18 L 64.796 24.848 C 64.723 24.78 64.626 24.744 64.527 24.749 C 63.172 24.781 61.821 24.904 60.483 25.117 C 60.317 25.145 60.18 25.262 60.125 25.422 C 60.071 25.581 60.108 25.758 60.223 25.881 C 61.005 26.699 61.759 27.516 62.604 28.406 L 63.296 29.17 C 64.392 30.346 65.524 31.568 66.71 32.763 C 67.896 33.958 69.333 35.243 70.645 36.42 L 71.265 36.959 L 71.75 37.408 C 72.747 38.307 73.781 39.205 74.832 40.247 C 75.434 40.822 76.117 41.505 76.835 42.269 C 76.935 42.382 76.978 42.534 76.952 42.682 C 76.745 43.644 76.512 44.578 76.26 45.476 C 75.766 47.318 75.254 48.971 74.76 50.571 L 74.643 50.948 C 74.104 52.682 73.592 54.326 73.143 56.042 C 72.693 57.758 72.352 59.411 71.93 61.433 L 71.714 62.466 C 71.418 63.85 71.103 65.287 70.735 66.797 Q 70.438 68.037 69.98 69.573 C 69.931 69.714 69.817 69.824 69.675 69.869 C 68.677 70.184 67.743 70.453 66.979 70.669 C 65.075 71.172 63.278 71.568 61.66 71.945 L 61.4 71.999 C 59.72 72.385 57.977 72.78 56.261 73.248 C 54.545 73.715 52.82 74.29 51.122 74.811 L 51.068 74.811 L 50.223 75.089 C 48.795 75.557 47.321 76.042 45.731 76.5 L 45.623 76.5 C 44.994 76.689 44.033 76.958 42.928 77.21 C 40.907 77.689 38.852 78.013 36.782 78.18 C 36.037 78.243 35.273 78.279 34.536 78.279 C 33.934 78.279 33.314 78.279 32.739 78.279 L 31.598 78.198 L 30.592 78.081 L 30.286 78.081 L 29.595 77.947 C 29.538 77.952 29.481 77.952 29.424 77.947 C 29.154 77.947 28.885 77.848 28.633 77.785 C 28.13 77.695 27.627 77.578 27.142 77.452 C 26.657 77.327 25.875 77.048 25.156 76.823 L 25.165 76.823 Z  M 52.02 89.842 C 49.808 90.53 47.508 90.89 45.192 90.911 C 43.268 90.928 41.35 90.696 39.487 90.219 C 35.369 89.11 31.637 86.884 28.705 83.786 C 28.415 83.485 28.334 83.039 28.499 82.654 C 28.665 82.271 29.042 82.021 29.46 82.017 L 29.631 82.017 C 30.61 82.16 31.625 82.268 32.622 82.322 C 33.314 82.322 34.024 82.376 34.734 82.322 C 36.909 82.293 39.079 82.086 41.221 81.702 L 41.4 81.702 C 41.634 81.702 41.861 81.778 42.047 81.918 C 44.284 83.751 46.719 85.327 49.307 86.617 C 50.205 87.03 51.104 87.434 52.065 87.803 C 52.486 87.966 52.759 88.375 52.748 88.827 C 52.753 89.291 52.454 89.703 52.011 89.842 L 52.02 89.842 Z  M 65.919 78.944 C 64.355 81.373 62.417 83.541 60.178 85.368 C 59.994 85.53 59.758 85.619 59.513 85.619 L 59.342 85.619 C 56.479 85.205 53.698 84.341 51.104 83.059 C 50.259 82.645 49.45 82.16 48.696 81.747 C 48.344 81.526 48.153 81.121 48.205 80.708 C 48.257 80.296 48.543 79.951 48.938 79.824 C 49.837 79.546 50.735 79.267 51.634 78.926 L 52.379 78.692 C 54.176 78.108 55.803 77.569 57.474 77.093 C 58.947 76.689 60.457 76.338 62.047 75.988 L 62.685 75.835 C 63.817 75.584 64.967 75.323 66.162 75.036 C 66.245 75.027 66.33 75.027 66.413 75.036 C 66.783 75.031 67.127 75.227 67.312 75.548 C 67.488 75.866 67.488 76.253 67.312 76.572 C 66.871 77.398 66.395 78.198 65.91 78.944 L 65.919 78.944 Z  M 85.964 65.188 C 85.964 65.593 85.883 65.988 85.811 66.374 C 84.587 75.64 77.727 83.166 68.614 85.242 C 68.534 85.251 68.452 85.251 68.372 85.242 C 67.967 85.24 67.599 85.007 67.423 84.642 C 67.247 84.277 67.295 83.844 67.545 83.526 C 68.156 82.762 68.74 81.945 69.297 81.091 C 70.84 78.681 72.111 76.108 73.089 73.418 C 73.217 73.088 73.478 72.827 73.808 72.7 C 76.267 71.769 78.622 70.583 80.833 69.16 L 81.148 68.953 L 81.48 68.737 L 81.66 68.612 L 81.741 68.558 L 81.948 68.414 L 82.145 68.279 C 82.17 68.263 82.192 68.242 82.208 68.216 C 82.23 68.143 82.248 68.068 82.262 67.992 C 82.435 66.681 82.516 65.36 82.505 64.038 C 82.505 63.87 82.412 63.715 82.262 63.637 C 82.113 63.56 81.932 63.572 81.795 63.67 C 80.896 64.272 80.07 64.847 79.099 65.467 C 78.408 65.934 77.617 66.419 76.754 66.896 C 76.604 66.983 76.434 67.029 76.26 67.03 C 75.933 67.037 75.62 66.891 75.416 66.635 C 75.219 66.38 75.144 66.052 75.209 65.737 C 75.434 64.838 75.613 63.94 75.793 63.041 L 75.982 62.215 C 76.287 60.651 76.674 58.8 77.141 56.986 C 77.563 55.377 78.039 53.751 78.56 52.179 L 78.65 51.891 C 79.001 50.777 79.342 49.636 79.692 48.441 C 79.825 47.992 80.239 47.684 80.708 47.687 C 81.068 47.692 81.404 47.873 81.606 48.172 C 82.145 49.07 82.585 49.816 82.954 50.553 C 84.336 53.227 85.279 56.106 85.748 59.079 C 86.08 61.098 86.152 63.151 85.964 65.188 L 85.964 65.188 Z  M 89.845 51.46 C 89.716 51.889 89.329 52.19 88.881 52.208 C 88.433 52.226 88.023 51.958 87.859 51.541 C 87.491 50.643 87.069 49.69 86.619 48.846 C 85.301 46.304 83.707 43.914 81.867 41.721 C 81.644 41.45 81.549 41.096 81.606 40.751 C 82.063 37.933 82.205 35.073 82.028 32.224 C 81.939 31.164 81.831 30.149 81.678 29.232 C 81.628 28.935 81.71 28.63 81.903 28.397 C 82.108 28.159 82.406 28.021 82.72 28.019 C 82.983 28.014 83.237 28.111 83.43 28.289 C 89.884 34.113 92.384 43.146 89.845 51.46 Z " fill="rgb(13,151,255)"/></g><path d=" M 93.942 37.876 C 92.22 31.917 88.523 26.72 83.457 23.141 C 82.155 22.213 80.771 21.404 79.324 20.724 C 79.083 20.603 78.889 20.403 78.776 20.158 C 78.057 18.734 77.225 17.37 76.287 16.079 C 72.614 11.091 67.361 7.494 61.382 5.873 C 59.19 5.309 56.934 5.034 54.67 5.055 C 50.785 5.09 46.951 5.938 43.413 7.544 C 41.939 8.224 40.526 9.03 39.19 9.952 C 39 10.074 38.779 10.14 38.552 10.14 L 38.552 10.14 C 37.851 10.086 37.151 10.068 36.495 10.068 C 35.57 10.075 34.646 10.132 33.728 10.239 C 30.65 10.576 27.651 11.433 24.86 12.773 C 22.105 14.089 19.595 15.867 17.439 18.029 C 11.976 23.671 9.212 31.396 9.856 39.223 C 9.873 39.489 9.803 39.754 9.658 39.978 C 8.776 41.312 8.004 42.715 7.349 44.174 C 2.09 55.841 5.897 69.599 16.405 76.904 C 17.71 77.836 19.096 78.648 20.547 79.33 C 20.784 79.453 20.976 79.648 21.095 79.887 C 21.803 81.316 22.633 82.68 23.575 83.966 C 25.405 86.46 27.648 88.623 30.206 90.363 C 32.727 92.094 35.526 93.383 38.48 94.173 C 40.678 94.739 42.94 95.017 45.21 94.999 C 49.09 94.963 52.919 94.112 56.449 92.501 C 57.923 91.825 59.336 91.022 60.672 90.103 C 60.864 89.985 61.085 89.922 61.31 89.923 C 61.948 89.923 62.631 89.986 63.403 89.986 C 77.245 89.991 88.791 79.409 89.989 65.62 C 90.119 64.026 90.119 62.425 89.989 60.831 C 89.965 60.561 90.035 60.292 90.186 60.067 C 91.07 58.739 91.839 57.339 92.486 55.881 C 94.053 52.325 94.855 48.481 94.84 44.596 C 94.842 42.326 94.54 40.066 93.942 37.876 L 93.942 37.876 Z  M 47.851 10.149 C 50.064 9.465 52.364 9.108 54.679 9.089 C 56.6 9.069 58.515 9.302 60.376 9.781 C 64.493 10.887 68.224 13.111 71.157 16.205 C 71.446 16.51 71.527 16.958 71.364 17.346 C 71.196 17.73 70.821 17.982 70.402 17.993 C 70.349 18.003 70.294 18.003 70.241 17.993 C 69.243 17.847 68.238 17.751 67.231 17.705 C 66.611 17.705 65.937 17.651 65.155 17.705 C 62.962 17.729 60.774 17.933 58.615 18.316 L 58.471 18.316 C 58.23 18.31 57.998 18.228 57.806 18.083 C 55.578 16.248 53.145 14.677 50.556 13.402 C 49.657 12.954 48.736 12.552 47.797 12.198 C 47.376 12.044 47.105 11.631 47.132 11.182 C 47.107 10.714 47.403 10.288 47.851 10.149 Z  M 33.943 21.056 C 35.513 18.625 37.453 16.455 39.693 14.624 C 39.886 14.466 40.127 14.381 40.376 14.381 L 40.538 14.381 C 43.397 14.811 46.172 15.677 48.768 16.951 C 49.513 17.31 50.295 17.741 51.176 18.262 C 51.528 18.48 51.721 18.884 51.67 19.296 C 51.634 19.719 51.341 20.076 50.933 20.194 C 49.891 20.517 48.902 20.841 47.932 21.164 L 47.537 21.299 C 45.452 21.973 43.943 22.449 42.425 22.88 C 40.906 23.312 39.424 23.644 37.824 24.003 L 37.249 24.138 C 36.099 24.39 34.949 24.65 33.746 24.947 C 33.665 24.959 33.583 24.959 33.503 24.947 C 33.134 24.947 32.792 24.752 32.604 24.435 C 32.425 24.114 32.425 23.723 32.604 23.401 C 32.982 22.62 33.449 21.82 33.943 21.056 Z  M 18.265 59.304 C 17.81 62.121 17.672 64.981 17.852 67.83 C 17.915 68.728 18.032 69.762 18.193 70.813 C 18.261 71.131 18.179 71.463 17.969 71.711 C 17.764 71.939 17.475 72.072 17.169 72.08 C 16.902 72.086 16.643 71.986 16.45 71.801 C 9.955 65.976 7.446 56.902 10.026 48.567 C 10.156 48.138 10.541 47.837 10.989 47.815 C 11.436 47.793 11.85 48.054 12.021 48.468 C 12.389 49.367 12.812 50.328 13.261 51.218 C 14.569 53.758 16.157 56.145 17.996 58.333 C 18.224 58.601 18.323 58.956 18.265 59.304 L 18.265 59.304 Z  M 21.167 48.073 C 20.817 49.187 20.466 50.319 20.107 51.505 C 19.983 51.954 19.575 52.266 19.11 52.269 C 18.743 52.277 18.401 52.088 18.211 51.775 C 17.718 51.008 17.265 50.217 16.855 49.403 C 15.506 46.735 14.596 43.869 14.159 40.912 C 13.816 38.901 13.725 36.855 13.89 34.821 C 13.89 34.407 13.971 34.03 14.033 33.644 C 15.264 24.378 22.125 16.853 31.239 14.776 C 31.322 14.766 31.407 14.766 31.49 14.776 C 31.877 14.782 32.227 15.009 32.389 15.36 C 32.576 15.725 32.53 16.165 32.272 16.483 C 31.679 17.238 31.095 18.056 30.475 18.918 C 28.862 21.42 27.55 24.104 26.567 26.914 C 26.526 27.039 26.43 27.139 26.306 27.184 C 23.77 28.125 21.34 29.329 19.056 30.778 C 18.652 31.038 18.265 31.308 17.87 31.577 C 17.649 31.718 17.53 31.974 17.564 32.233 C 17.564 32.512 17.519 32.79 17.493 33.069 C 17.466 33.347 17.43 33.904 17.412 34.318 C 17.394 34.731 17.412 35.216 17.412 35.593 L 17.412 35.944 C 17.411 36.112 17.504 36.267 17.654 36.345 C 17.804 36.423 17.984 36.41 18.121 36.312 C 18.66 35.935 19.209 35.567 19.766 35.189 L 20.089 34.965 C 20.278 34.821 20.466 34.686 20.664 34.56 L 20.979 34.354 C 21.58 33.949 22.254 33.545 23 33.132 C 23.455 32.905 24.006 33.016 24.339 33.401 C 24.535 33.656 24.611 33.984 24.545 34.3 C 24.294 35.342 24.087 36.348 23.881 37.318 L 23.863 37.75 C 23.53 39.439 23.153 41.236 22.704 42.961 C 22.254 44.686 21.805 46.141 21.293 47.776 L 21.167 48.073 Z  M 25.165 76.877 L 24.087 76.482 L 23.952 76.401 L 23.863 76.248 C 22.748 73.475 22.077 70.543 21.877 67.56 C 21.809 66.664 21.788 65.764 21.814 64.865 C 21.824 64.293 22.293 63.836 22.865 63.841 C 23.127 63.837 23.381 63.934 23.575 64.11 C 24.473 64.955 25.372 65.755 26.27 66.518 L 26.477 66.707 C 27.699 67.794 28.984 68.962 30.197 70.139 C 31.41 71.316 32.569 72.592 33.871 74.011 C 34.213 74.38 34.563 74.748 34.905 75.125 L 35.003 75.233 C 35.037 75.252 35.078 75.252 35.111 75.233 C 36.499 75.205 37.882 75.082 39.253 74.865 C 39.422 74.84 39.562 74.723 39.615 74.561 C 39.668 74.399 39.626 74.221 39.505 74.101 C 38.606 73.203 37.78 72.304 36.809 71.244 L 36.387 70.759 C 35.327 69.609 34.177 68.378 33 67.219 C 31.823 66.06 30.691 65.036 29.541 64.003 L 28.903 63.428 C 27.528 62.197 26.208 61.047 24.896 59.753 C 24.294 59.196 23.701 58.603 23.099 58.01 C 22.817 57.71 22.702 57.289 22.793 56.887 C 22.982 56.078 23.18 55.279 23.395 54.506 C 23.863 52.763 24.375 51.137 24.815 49.744 L 25.102 48.792 C 25.659 47.148 26.154 45.602 26.558 43.958 C 26.962 42.314 27.375 40.49 27.78 38.567 L 27.942 37.777 C 28.238 36.402 28.57 34.839 28.975 33.222 C 29.145 32.512 29.352 31.712 29.604 30.859 C 29.725 30.456 30.038 30.139 30.439 30.014 C 31.14 29.789 31.796 29.61 32.398 29.43 L 32.784 29.322 C 34.689 28.828 36.477 28.424 38.121 28.055 L 38.786 27.903 C 40.421 27.525 41.957 27.166 43.494 26.744 C 45.03 26.321 46.728 25.764 48.282 25.27 L 48.786 25.109 C 50.412 24.569 52.155 23.994 54.006 23.446 C 55.093 23.141 55.973 22.907 56.791 22.719 C 58.813 22.232 60.871 21.908 62.945 21.748 C 63.7 21.685 64.455 21.649 65.191 21.649 C 65.793 21.649 66.395 21.649 66.988 21.649 C 69.965 21.805 72.897 22.433 75.676 23.509 C 75.799 23.55 75.897 23.642 75.946 23.761 C 77.073 26.531 77.75 29.464 77.949 32.449 C 78.003 33.293 78.021 34.183 78.003 35.144 C 78.009 35.573 77.754 35.961 77.359 36.127 C 76.964 36.293 76.508 36.203 76.206 35.899 C 75.308 35.054 74.41 34.255 73.511 33.491 L 73.062 33.087 C 71.84 31.991 70.681 30.939 69.585 29.879 C 68.489 28.819 67.375 27.588 66.225 26.357 L 65.883 25.989 L 65.146 25.18 L 64.949 24.938 C 64.876 24.87 64.779 24.834 64.679 24.839 C 63.325 24.871 61.974 24.994 60.636 25.207 C 60.47 25.235 60.332 25.352 60.278 25.511 C 60.223 25.671 60.261 25.847 60.376 25.971 C 61.157 26.789 61.912 27.606 62.757 28.496 L 63.448 29.259 C 64.544 30.436 65.677 31.658 66.862 32.853 C 68.048 34.048 69.486 35.333 70.798 36.51 L 71.418 37.049 L 71.903 37.498 C 72.9 38.397 73.933 39.295 74.985 40.337 C 75.586 40.912 76.269 41.595 76.988 42.359 C 77.088 42.472 77.131 42.624 77.105 42.772 C 76.898 43.733 76.665 44.668 76.413 45.566 C 75.919 47.363 75.407 49.061 74.913 50.661 L 74.796 51.038 C 74.257 52.772 73.745 54.416 73.295 56.132 C 72.846 57.848 72.505 59.501 72.083 61.523 L 71.867 62.556 C 71.57 63.94 71.256 65.377 70.888 66.887 Q 70.591 68.126 70.133 69.663 C 70.083 69.804 69.97 69.914 69.827 69.959 C 68.83 70.274 67.896 70.543 67.132 70.759 C 65.227 71.262 63.43 71.657 61.813 72.035 L 61.553 72.089 C 59.873 72.475 58.13 72.87 56.413 73.337 C 54.697 73.805 52.972 74.38 51.274 74.901 L 51.22 74.946 L 50.376 75.224 C 48.947 75.691 47.474 76.177 45.884 76.635 L 45.776 76.635 C 45.147 76.823 44.186 77.093 43.08 77.345 C 41.06 77.824 39.005 78.148 36.935 78.315 C 36.189 78.378 35.426 78.414 34.689 78.414 C 33.952 78.414 33.467 78.414 32.892 78.414 L 31.751 78.333 L 30.745 78.216 L 30.439 78.171 L 29.595 77.947 C 29.538 77.952 29.481 77.952 29.424 77.947 C 29.154 77.947 28.885 77.848 28.633 77.785 C 28.13 77.695 27.627 77.578 27.142 77.452 C 26.558 77.318 25.875 77.12 25.156 76.877 L 25.165 76.877 Z  M 52.02 89.896 C 49.808 90.583 47.508 90.944 45.192 90.965 C 43.268 90.982 41.35 90.75 39.487 90.273 C 35.369 89.164 31.637 86.937 28.705 83.84 C 28.415 83.539 28.334 83.093 28.499 82.708 C 28.665 82.325 29.042 82.075 29.46 82.07 L 29.631 82.07 C 30.61 82.214 31.625 82.322 32.622 82.376 C 33.314 82.376 34.024 82.43 34.734 82.421 C 36.909 82.392 39.079 82.185 41.221 81.801 L 41.4 81.801 C 41.634 81.801 41.861 81.877 42.047 82.017 C 44.284 83.85 46.719 85.426 49.307 86.715 C 50.205 87.129 51.104 87.533 52.065 87.901 C 52.486 88.064 52.759 88.474 52.748 88.926 C 52.734 89.373 52.438 89.762 52.011 89.896 L 52.02 89.896 Z  M 65.919 78.998 C 64.355 81.427 62.417 83.595 60.178 85.422 C 59.994 85.584 59.758 85.673 59.513 85.673 L 59.342 85.673 C 56.479 85.259 53.698 84.394 51.104 83.113 C 50.259 82.699 49.45 82.214 48.696 81.801 C 48.344 81.58 48.153 81.175 48.205 80.762 C 48.257 80.35 48.543 80.005 48.938 79.878 C 49.837 79.6 50.735 79.321 51.634 79.025 L 52.379 78.791 C 54.176 78.207 55.803 77.668 57.474 77.192 C 58.947 76.788 60.457 76.437 62.047 76.087 L 62.685 75.934 C 63.817 75.682 64.967 75.422 66.162 75.134 C 66.245 75.126 66.33 75.126 66.413 75.134 C 66.783 75.13 67.127 75.326 67.312 75.646 C 67.488 75.965 67.488 76.352 67.312 76.671 C 66.871 77.452 66.395 78.252 65.91 78.998 L 65.919 78.998 Z  M 82.262 68.279 C 82.269 68.207 82.269 68.135 82.262 68.064 C 82.435 66.753 82.516 65.432 82.505 64.11 C 82.505 63.942 82.412 63.787 82.262 63.709 C 82.113 63.632 81.932 63.644 81.795 63.742 C 80.896 64.344 80.07 64.919 79.099 65.539 C 78.408 66.006 77.617 66.491 76.754 66.967 C 76.604 67.055 76.434 67.101 76.26 67.102 C 75.933 67.109 75.62 66.963 75.416 66.707 C 75.219 66.452 75.144 66.124 75.209 65.808 C 75.434 64.91 75.613 64.012 75.793 63.113 L 75.982 62.286 C 76.287 60.723 76.674 58.872 77.141 57.057 C 77.563 55.449 78.039 53.823 78.56 52.251 L 78.65 51.963 C 79.001 50.849 79.342 49.708 79.692 48.513 C 79.825 48.063 80.239 47.756 80.708 47.759 C 81.068 47.764 81.404 47.945 81.606 48.244 C 82.145 49.142 82.585 49.888 82.954 50.625 C 84.298 53.293 85.208 56.16 85.649 59.115 C 85.979 61.128 86.052 63.175 85.865 65.206 C 85.865 65.611 85.784 66.006 85.712 66.392 C 84.488 75.658 77.628 83.184 68.516 85.26 C 68.435 85.269 68.354 85.269 68.273 85.26 C 67.885 85.25 67.536 85.02 67.375 84.667 C 67.185 84.303 67.231 83.861 67.491 83.544 C 68.102 82.78 68.686 81.963 69.288 81.109 C 70.831 78.699 72.102 76.126 73.08 73.436 C 73.208 73.106 73.469 72.845 73.799 72.718 C 76.258 71.787 78.613 70.601 80.824 69.178 L 81.894 68.468 C 82.005 68.416 82.106 68.343 82.19 68.252 L 82.262 68.279 Z  M 89.881 51.514 C 89.752 51.943 89.365 52.244 88.917 52.262 C 88.469 52.28 88.059 52.012 87.895 51.595 C 87.527 50.696 87.105 49.744 86.655 48.9 C 85.337 46.358 83.743 43.968 81.903 41.775 C 81.68 41.504 81.585 41.15 81.642 40.804 C 82.099 37.987 82.24 35.127 82.064 32.278 C 81.974 31.218 81.867 30.203 81.714 29.286 C 81.664 28.988 81.746 28.684 81.939 28.451 C 82.144 28.213 82.442 28.075 82.756 28.073 C 83.019 28.068 83.273 28.165 83.466 28.343 C 89.907 34.175 92.393 43.207 89.845 51.514 L 89.881 51.514 Z " fill="rgb(13,151,255)"/><path d=" M 21.023 34.246 L 20.817 34.39 L 20.134 34.821 C 20.323 34.677 20.511 34.542 20.709 34.416 L 21.023 34.246 Z " fill="rgb(13,151,255)"/></g></svg>