<?xml version="1.0" standalone="no"?><!-- Generator: Gravit.io --><svg xmlns="http://www.w3.org/2000/svg" xmlns:xlink="http://www.w3.org/1999/xlink" style="isolation:isolate" viewBox="0 0 283.465 283.465" width="283.465" height="283.465"><defs><clipPath id="_clipPath_WWtOzXiMioks24vyUtCb5HNHvtTU1IGp"><rect width="283.465" height="283.465"/></clipPath></defs><g clip-path="url(#_clipPath_WWtOzXiMioks24vyUtCb5HNHvtTU1IGp)"><g><path d=" M 14.173 269.291 L 269.291 269.291 L 269.291 14.173 L 14.173 14.173 L 14.173 269.291 Z " fill="rgb(179,30,48)"/><path d=" M 106.12 94.474 L 106.12 107.01 L 108.987 107.01 C 112.606 107.01 114.247 105.25 114.247 100.327 L 114.247 99.555 L 118.459 99.555 L 118.459 119.012 L 114.247 119.012 L 114.247 118.182 C 114.247 113.298 112.606 111.439 108.987 111.439 L 106.12 111.439 L 106.12 125.459 L 118.142 125.459 C 123.62 125.459 125.597 121.84 126.25 114.919 L 130.62 114.919 L 130.62 129.927 L 91.132 129.927 L 91.132 125.459 L 94.474 125.459 C 96.55 125.459 97.657 124.885 97.657 121.267 L 97.657 97.875 C 97.657 95.264 96.471 94.474 93.683 94.474 L 92.457 94.474 C 89.589 94.474 88.225 95.146 87.217 98.132 L 76.321 129.927 L 68.036 129.927 L 61.729 109.205 L 61.61 109.205 L 54.61 129.927 L 46.226 129.927 L 34.916 96.609 C 34.421 94.968 33.571 94.474 31.278 94.474 L 30.447 94.474 L 30.447 90.024 L 47.887 90.024 L 47.887 94.474 L 45.356 94.474 C 44.031 94.474 43.498 95.264 43.498 96.055 C 43.498 96.649 43.715 97.4 44.031 98.231 L 51.585 120.496 L 51.703 120.496 L 58.901 99.555 L 57.893 96.708 C 57.28 94.928 56.073 94.474 54.314 94.474 L 52.89 94.474 L 52.89 90.024 L 70.903 90.024 L 70.903 94.474 L 67.72 94.474 C 66.494 94.474 66.019 95.007 66.019 95.798 C 66.019 96.411 66.316 97.262 66.514 97.835 L 73.118 120.1 L 73.237 120.1 L 80.909 98.349 C 81.146 97.637 81.363 97.044 81.363 96.293 C 81.363 95.344 80.909 94.474 78.793 94.474 L 75.886 94.474 L 75.886 90.024 L 130.619 90.024 L 130.619 103.668 L 126.131 103.668 C 125.221 97.894 124.707 94.474 116.699 94.474 L 106.12 94.474 Z  M 171.709 129.927 L 171.709 114.919 L 167.102 114.919 C 166.489 121.781 165.243 125.459 158.995 125.459 L 149.919 125.459 L 149.919 97.242 C 149.919 95.027 150.828 94.474 153.478 94.474 L 156.859 94.474 L 156.859 90.024 L 134.812 90.024 L 134.812 94.474 L 138.292 94.474 C 140.704 94.474 141.515 95.264 141.515 97.084 L 141.515 122.789 C 141.515 124.885 140.368 125.459 138.667 125.459 L 134.812 125.459 L 134.812 129.927 L 171.709 129.927 Z  M 212.66 129.927 L 212.66 114.919 L 208.033 114.919 C 207.42 121.781 206.135 125.459 199.965 125.459 L 190.87 125.459 L 190.87 97.242 C 190.87 95.027 191.779 94.474 194.429 94.474 L 197.79 94.474 L 197.79 90.024 L 175.723 90.024 L 175.723 94.474 L 179.223 94.474 C 181.655 94.474 182.466 95.264 182.466 97.084 L 182.466 122.789 C 182.466 124.885 181.299 125.459 179.618 125.459 L 175.723 125.459 L 175.723 129.927 L 212.66 129.927 Z  M 243.032 93.03 C 242.656 92.654 238.979 88.838 231.801 88.838 C 224.267 88.838 216.654 92.654 216.654 100.841 C 216.654 108.256 222.566 111.637 229.369 113.1 C 231.623 113.575 232.967 113.832 235.024 114.267 C 240.125 115.354 243.526 116.897 243.526 120.436 C 243.526 123.125 240.679 126.012 235.044 126.012 C 227.174 126.012 222.507 121.623 221.538 114.919 L 216.911 114.919 L 216.911 129.927 L 221.004 129.927 L 222.329 126.348 C 223.298 127.199 227.134 131.114 234.431 131.114 C 243.724 131.114 250.744 126.981 250.744 118.815 C 250.744 110.905 244.199 107.504 236.21 105.903 C 234.787 105.547 233.481 105.329 232.018 104.993 C 227.055 103.925 223.872 102.699 223.872 99.14 C 223.872 96.055 227.134 93.94 232.038 93.94 C 239.414 93.94 242.261 98.626 243.783 103.668 L 248.272 103.668 L 248.272 90.024 L 245.029 90.024 L 243.032 93.03 Z  M 59.89 192.135 L 59.89 187.646 L 56.884 187.646 C 54.096 187.646 53.068 186.816 53.068 184.562 L 53.068 173.686 L 55.539 173.686 C 59.277 173.686 60.898 175.308 60.898 179.539 L 60.898 180.864 L 65.09 180.864 L 65.09 162.494 L 60.898 162.494 L 60.898 163.285 C 60.898 166.39 59.771 169.237 55.895 169.237 L 53.068 169.237 L 53.068 156.661 L 60.918 156.661 C 69.757 156.661 70.686 161.11 71.279 165.836 L 75.59 165.836 L 75.59 152.212 L 37.822 152.212 L 37.822 156.661 L 41.817 156.661 C 43.616 156.661 44.624 157.472 44.624 158.915 L 44.624 184.7 C 44.624 186.381 43.715 187.646 41.579 187.646 L 37.822 187.646 L 37.822 192.135 L 59.89 192.135 Z  M 226.996 151.006 C 213.906 151.006 205.245 160.161 205.245 172.164 C 205.245 184.147 213.906 193.381 226.996 193.381 C 240.046 193.381 248.727 184.147 248.727 172.164 C 248.727 160.161 240.046 151.006 226.996 151.006 Z  M 226.996 155.712 C 236.448 155.712 239.275 163.562 239.275 172.164 C 239.275 180.765 236.448 188.635 226.996 188.635 C 217.485 188.635 214.677 180.765 214.677 172.164 C 214.677 163.562 217.485 155.712 226.996 155.712 Z  M 190.177 155.475 C 189.307 154.704 185.57 151.006 178.195 151.006 C 166.39 151.006 158.975 160.003 158.975 172.164 C 158.975 184.423 166.509 193.381 178.195 193.381 C 185.709 193.381 189.782 189.94 190.711 189.09 L 192.946 192.135 L 197.039 192.135 L 197.039 178.294 C 197.039 175.941 197.909 175.308 200.242 175.308 L 201.349 175.308 L 201.349 170.839 L 182.921 170.839 L 182.921 175.308 L 185.649 175.308 C 187.627 175.308 188.833 176.198 188.833 178.135 L 188.833 180.469 C 188.833 185.036 186.025 188.22 179.915 188.22 C 172.263 188.22 168.427 181.339 168.427 172.164 C 168.427 163.127 172.263 156.207 179.678 156.207 C 187.409 156.207 190.039 163.404 190.929 165.836 L 195.872 165.836 L 195.872 152.212 L 191.66 152.212 L 190.177 155.475 Z  M 156.978 182.762 L 156.978 183.85 C 156.978 190.731 153.695 193.381 148.712 193.381 C 142.879 193.381 140.922 190.573 140.922 185.135 L 140.922 183.059 C 140.922 176.198 137.995 173.429 131.312 173.429 L 128.148 173.429 L 128.148 185.491 C 128.148 187.093 128.88 187.646 130.62 187.646 L 135.009 187.646 L 135.009 192.135 L 95.146 192.135 L 95.146 187.646 L 99.575 187.646 C 100.801 187.646 101.256 187.35 101.256 186.638 C 101.256 186.262 101.137 185.649 100.9 184.997 C 100.682 184.463 98.804 179.322 98.804 179.322 L 84.567 179.322 C 84.567 179.322 82.807 184.067 82.511 184.858 C 82.313 185.452 82.155 185.946 82.155 186.519 C 82.155 187.37 82.867 187.646 84.053 187.646 L 88.285 187.646 L 88.285 192.135 L 69.5 192.135 L 69.5 187.646 C 72.683 187.646 74.7 187.192 75.827 184.404 L 88.561 152.212 L 96.214 152.212 L 109.264 184.404 C 110.352 187.231 112.408 187.646 115.592 187.646 L 117.213 187.646 C 118.934 187.646 119.705 187.093 119.705 185.491 L 119.705 158.836 C 119.705 157.235 119.092 156.661 117.213 156.661 L 113.021 156.661 L 113.021 152.212 L 139.241 152.212 C 147.941 152.212 152.034 156.325 152.034 162.554 C 152.034 170.285 144.343 171.808 140.744 172.006 L 140.744 172.104 C 144.956 172.421 148.515 174.161 148.515 180.31 L 148.515 182.644 C 148.515 186.737 149.385 187.646 150.828 187.646 C 152.252 187.646 153.003 186.519 153.003 183.85 L 153.003 182.762 L 156.978 182.762 Z  M 97.163 174.893 L 91.784 160.359 L 91.607 160.359 L 86.228 174.893 L 97.163 174.893 Z  M 143.65 162.811 C 143.65 159.311 141.139 156.661 135.563 156.661 L 128.148 156.661 L 128.148 168.98 L 135.563 168.98 C 140.704 168.98 143.65 166.667 143.65 162.811 Z " fill="rgb(255,204,2)"/><path d=" M 106.12 94.474 L 106.12 107.01 L 108.987 107.01 C 112.606 107.01 114.247 105.25 114.247 100.327 L 114.247 99.555 L 118.459 99.555 L 118.459 119.012 L 114.247 119.012 L 114.247 118.182 C 114.247 113.298 112.606 111.439 108.987 111.439 L 106.12 111.439 L 106.12 125.459 L 118.142 125.459 C 123.62 125.459 125.597 121.84 126.25 114.919 L 130.62 114.919 L 130.62 129.927 L 91.132 129.927 L 91.132 125.459 L 94.474 125.459 C 96.55 125.459 97.657 124.885 97.657 121.267 L 97.657 97.875 C 97.657 95.264 96.471 94.474 93.683 94.474 L 92.457 94.474 C 89.589 94.474 88.225 95.146 87.217 98.132 L 76.321 129.927 L 68.036 129.927 L 61.729 109.205 L 61.61 109.205 L 54.61 129.927 L 46.226 129.927 L 34.916 96.609 C 34.421 94.968 33.571 94.474 31.278 94.474 L 30.447 94.474 L 30.447 90.024 L 47.887 90.024 L 47.887 94.474 L 45.356 94.474 C 44.031 94.474 43.498 95.264 43.498 96.055 C 43.498 96.649 43.715 97.4 44.031 98.231 L 51.585 120.496 L 51.703 120.496 L 58.901 99.555 L 57.893 96.708 C 57.28 94.928 56.073 94.474 54.314 94.474 L 52.89 94.474 L 52.89 90.024 L 70.903 90.024 L 70.903 94.474 L 67.72 94.474 C 66.494 94.474 66.019 95.007 66.019 95.798 C 66.019 96.411 66.316 97.262 66.514 97.835 L 73.118 120.1 L 73.237 120.1 L 80.909 98.349 C 81.146 97.637 81.363 97.044 81.363 96.293 C 81.363 95.344 80.909 94.474 78.793 94.474 L 75.886 94.474 L 75.886 90.024 L 130.619 90.024 L 130.619 103.668 L 126.131 103.668 C 125.221 97.894 124.707 94.474 116.699 94.474 L 106.12 94.474 Z  M 171.709 129.927 L 171.709 114.919 L 167.102 114.919 C 166.489 121.781 165.243 125.459 158.995 125.459 L 149.919 125.459 L 149.919 97.242 C 149.919 95.027 150.828 94.474 153.478 94.474 L 156.859 94.474 L 156.859 90.024 L 134.812 90.024 L 134.812 94.474 L 138.292 94.474 C 140.704 94.474 141.515 95.264 141.515 97.084 L 141.515 122.789 C 141.515 124.885 140.368 125.459 138.667 125.459 L 134.812 125.459 L 134.812 129.927 L 171.709 129.927 Z  M 212.66 129.927 L 212.66 114.919 L 208.033 114.919 C 207.42 121.781 206.135 125.459 199.965 125.459 L 190.87 125.459 L 190.87 97.242 C 190.87 95.027 191.779 94.474 194.429 94.474 L 197.79 94.474 L 197.79 90.024 L 175.723 90.024 L 175.723 94.474 L 179.223 94.474 C 181.655 94.474 182.466 95.264 182.466 97.084 L 182.466 122.789 C 182.466 124.885 181.299 125.459 179.618 125.459 L 175.723 125.459 L 175.723 129.927 L 212.66 129.927 Z  M 243.032 93.03 C 242.656 92.654 238.979 88.838 231.801 88.838 C 224.267 88.838 216.654 92.654 216.654 100.841 C 216.654 108.256 222.566 111.637 229.369 113.1 C 231.623 113.575 232.967 113.832 235.024 114.267 C 240.125 115.354 243.526 116.897 243.526 120.436 C 243.526 123.125 240.679 126.012 235.044 126.012 C 227.174 126.012 222.507 121.623 221.538 114.919 L 216.911 114.919 L 216.911 129.927 L 221.004 129.927 L 222.329 126.348 C 223.298 127.199 227.134 131.114 234.431 131.114 C 243.724 131.114 250.744 126.981 250.744 118.815 C 250.744 110.905 244.199 107.504 236.21 105.903 C 234.787 105.547 233.481 105.329 232.018 104.993 C 227.055 103.925 223.872 102.699 223.872 99.14 C 223.872 96.055 227.134 93.94 232.038 93.94 C 239.414 93.94 242.261 98.626 243.783 103.668 L 248.272 103.668 L 248.272 90.024 L 245.029 90.024 L 243.032 93.03 Z  M 59.89 192.135 L 59.89 187.646 L 56.884 187.646 C 54.096 187.646 53.068 186.816 53.068 184.562 L 53.068 173.686 L 55.539 173.686 C 59.277 173.686 60.898 175.308 60.898 179.539 L 60.898 180.864 L 65.09 180.864 L 65.09 162.494 L 60.898 162.494 L 60.898 163.285 C 60.898 166.39 59.771 169.237 55.895 169.237 L 53.068 169.237 L 53.068 156.661 L 60.918 156.661 C 69.757 156.661 70.686 161.11 71.279 165.836 L 75.59 165.836 L 75.59 152.212 L 37.822 152.212 L 37.822 156.661 L 41.817 156.661 C 43.616 156.661 44.624 157.472 44.624 158.915 L 44.624 184.7 C 44.624 186.381 43.715 187.646 41.579 187.646 L 37.822 187.646 L 37.822 192.135 L 59.89 192.135 Z  M 226.996 151.006 C 213.906 151.006 205.245 160.161 205.245 172.164 C 205.245 184.147 213.906 193.381 226.996 193.381 C 240.046 193.381 248.727 184.147 248.727 172.164 C 248.727 160.161 240.046 151.006 226.996 151.006 Z  M 226.996 155.712 C 236.448 155.712 239.275 163.562 239.275 172.164 C 239.275 180.765 236.448 188.635 226.996 188.635 C 217.485 188.635 214.677 180.765 214.677 172.164 C 214.677 163.562 217.485 155.712 226.996 155.712 Z  M 190.177 155.475 C 189.307 154.704 185.57 151.006 178.195 151.006 C 166.39 151.006 158.975 160.003 158.975 172.164 C 158.975 184.423 166.509 193.381 178.195 193.381 C 185.709 193.381 189.782 189.94 190.711 189.09 L 192.946 192.135 L 197.039 192.135 L 197.039 178.294 C 197.039 175.941 197.909 175.308 200.242 175.308 L 201.349 175.308 L 201.349 170.839 L 182.921 170.839 L 182.921 175.308 L 185.649 175.308 C 187.627 175.308 188.833 176.198 188.833 178.135 L 188.833 180.469 C 188.833 185.036 186.025 188.22 179.915 188.22 C 172.263 188.22 168.427 181.339 168.427 172.164 C 168.427 163.127 172.263 156.207 179.678 156.207 C 187.409 156.207 190.039 163.404 190.929 165.836 L 195.872 165.836 L 195.872 152.212 L 191.66 152.212 L 190.177 155.475 Z  M 156.978 182.762 L 156.978 183.85 C 156.978 190.731 153.695 193.381 148.712 193.381 C 142.879 193.381 140.922 190.573 140.922 185.135 L 140.922 183.059 C 140.922 176.198 137.995 173.429 131.312 173.429 L 128.148 173.429 L 128.148 185.491 C 128.148 187.093 128.88 187.646 130.62 187.646 L 135.009 187.646 L 135.009 192.135 L 95.146 192.135 L 95.146 187.646 L 99.575 187.646 C 100.801 187.646 101.256 187.35 101.256 186.638 C 101.256 186.262 101.137 185.649 100.9 184.997 C 100.682 184.463 98.804 179.322 98.804 179.322 L 84.567 179.322 C 84.567 179.322 82.807 184.067 82.511 184.858 C 82.313 185.452 82.155 185.946 82.155 186.519 C 82.155 187.37 82.867 187.646 84.053 187.646 L 88.285 187.646 L 88.285 192.135 L 69.5 192.135 L 69.5 187.646 C 72.683 187.646 74.7 187.192 75.827 184.404 L 88.561 152.212 L 96.214 152.212 L 109.264 184.404 C 110.352 187.231 112.408 187.646 115.592 187.646 L 117.213 187.646 C 118.934 187.646 119.705 187.093 119.705 185.491 L 119.705 158.836 C 119.705 157.235 119.092 156.661 117.213 156.661 L 113.021 156.661 L 113.021 152.212 L 139.241 152.212 C 147.941 152.212 152.034 156.325 152.034 162.554 C 152.034 170.285 144.343 171.808 140.744 172.006 L 140.744 172.104 C 144.956 172.421 148.515 174.161 148.515 180.31 L 148.515 182.644 C 148.515 186.737 149.385 187.646 150.828 187.646 C 152.252 187.646 153.003 186.519 153.003 183.85 L 153.003 182.762 L 156.978 182.762 Z  M 97.163 174.893 L 91.784 160.359 L 91.607 160.359 L 86.228 174.893 L 97.163 174.893 Z  M 143.65 162.811 C 143.65 159.311 141.139 156.661 135.563 156.661 L 128.148 156.661 L 128.148 168.98 L 135.563 168.98 C 140.704 168.98 143.65 166.667 143.65 162.811 Z " fill="rgb(255,204,2)"/></g></g></svg>