<?xml version="1.0" standalone="no"?><!-- Generator: Gravit.io --><svg xmlns="http://www.w3.org/2000/svg" xmlns:xlink="http://www.w3.org/1999/xlink" style="isolation:isolate" viewBox="0 0 100 100" width="100" height="100"><defs><clipPath id="_clipPath_fiLWTVJUc5HV6pgCfMzEAemSGkAzGRLG"><rect width="100" height="100"/></clipPath></defs><g clip-path="url(#_clipPath_fiLWTVJUc5HV6pgCfMzEAemSGkAzGRLG)"><path d=" M 69.724 46.245 C 69.518 43.163 68.696 40.081 67.053 37.41 L 53.081 12.959 C 52.053 11.109 51.231 9.055 50.82 7 L 50.204 8.027 C 46.711 13.986 46.711 21.589 50.204 27.547 L 61.505 47.067 C 64.998 53.026 64.998 60.628 61.505 66.587 L 60.889 67.614 C 60.478 65.56 59.656 63.505 58.628 61.656 L 48.355 43.78 L 41.78 32.273 C 40.752 30.424 39.93 28.369 39.519 26.314 L 38.903 27.342 C 35.41 33.3 35.41 40.697 38.903 46.862 L 38.903 46.862 L 50.204 66.382 C 53.697 72.34 53.697 79.943 50.204 85.901 L 49.588 86.929 C 49.177 84.874 48.355 82.819 47.327 80.97 L 33.15 56.519 C 31.3 53.231 30.479 49.533 30.479 45.834 C 15.479 49.738 5 58.163 5 67.82 C 5 81.381 25.136 92.271 49.998 92.271 C 74.861 92.271 94.997 81.381 94.997 67.82 C 95.202 58.574 84.929 50.149 69.724 46.245 Z " fill="rgb(234,29,37)"/></g></svg>