<?xml version="1.0" standalone="no"?><!-- Generator: Gravit.io --><svg xmlns="http://www.w3.org/2000/svg" xmlns:xlink="http://www.w3.org/1999/xlink" style="isolation:isolate" viewBox="0 0 100 100" width="100" height="100"><defs><clipPath id="_clipPath_y0wFN4rJ1OICJguNdEtcYLZBKY2BuyZd"><rect width="100" height="100"/></clipPath></defs><g clip-path="url(#_clipPath_y0wFN4rJ1OICJguNdEtcYLZBKY2BuyZd)"><g><path d=" M 0 37 L 0.016 56.403 L 16.453 62 L 32.906 56.403 L 32.906 37 L 0 37 Z " fill="rgb(220,30,44)"/></g><g><path d=" M 16.437 55.794 L 11.402 55.794 L 11.402 54.062 L 11.353 54.062 C 10.375 55.425 8.98 56.147 6.911 56.147 C 4.458 56.147 2.229 54.656 2.229 51.513 L 2.229 42.148 L 7.441 42.148 L 7.441 49.3 C 7.441 50.887 7.617 51.978 9.157 51.978 C 10.055 51.978 11.241 51.529 11.241 49.348 L 11.241 42.131 L 16.437 42.131 L 16.437 55.794 Z " fill="rgb(255,255,255)"/><path d=" M 26.155 46.108 C 26.123 45.659 25.898 45.323 25.545 45.082 C 25.225 44.826 24.808 44.681 24.391 44.681 C 23.653 44.681 22.803 44.842 22.803 45.74 C 22.803 46.14 23.124 46.317 23.412 46.445 C 24.278 46.814 26.251 46.926 27.999 47.504 C 29.731 48.065 31.254 49.091 31.254 51.32 C 31.254 55.105 27.614 56.131 24.31 56.131 C 21.103 56.131 17.575 54.848 17.495 51.32 L 22.466 51.32 C 22.498 51.801 22.707 52.186 23.092 52.539 C 23.348 52.779 23.861 52.94 24.487 52.94 C 25.176 52.94 26.251 52.683 26.251 51.881 C 26.251 51.096 25.802 50.855 23.38 50.438 C 19.403 49.749 17.8 48.498 17.8 46.14 C 17.8 42.693 21.504 41.795 24.246 41.795 C 27.197 41.795 30.741 42.613 30.885 46.108 L 26.155 46.108 Z " fill="rgb(255,255,255)"/><path d=" M 34.766 37 L 39.978 37 L 39.978 43.639 L 40.026 43.639 C 40.811 42.484 42.207 41.795 43.762 41.795 C 48.348 41.795 49.583 45.691 49.583 48.899 C 49.583 52.314 47.707 56.131 43.842 56.131 C 41.292 56.131 40.507 55.153 39.849 54.287 L 39.801 54.287 L 39.801 55.794 L 34.766 55.794 L 34.766 37 L 34.766 37 Z  M 42.078 45.579 C 40.202 45.579 39.785 47.343 39.785 48.947 C 39.785 50.582 40.202 52.346 42.078 52.346 C 43.954 52.346 44.371 50.582 44.371 48.947 C 44.371 47.343 43.938 45.579 42.078 45.579 Z " fill="rgb(12,32,116)"/><path d=" M 64.112 52.747 C 64.112 53.774 64.16 54.928 64.737 55.794 L 59.413 55.794 C 59.285 55.425 59.205 54.864 59.221 54.511 L 59.173 54.511 C 58.066 55.778 56.462 56.147 54.779 56.147 C 52.149 56.147 49.968 54.88 49.968 52.01 C 49.968 47.696 55.019 47.856 57.681 47.343 C 58.387 47.215 59.108 47.006 59.108 46.124 C 59.108 45.21 58.242 44.858 57.393 44.858 C 55.789 44.858 55.468 45.675 55.436 46.253 L 50.593 46.253 C 50.754 42.404 54.378 41.779 57.617 41.779 C 64.144 41.779 64.096 44.489 64.096 47.119 L 64.096 52.747 L 64.112 52.747 Z  M 59.108 49.668 C 58.483 49.989 57.761 50.165 57.056 50.326 C 55.901 50.582 55.292 50.871 55.292 51.801 C 55.292 52.427 55.981 53.068 56.928 53.068 C 58.114 53.068 59.028 52.362 59.108 50.935 L 59.108 49.668 Z " fill="rgb(12,32,116)"/><path d=" M 65.972 42.131 L 71.007 42.131 L 71.007 43.863 L 71.055 43.863 C 72.033 42.5 73.428 41.779 75.497 41.779 C 77.951 41.779 80.18 43.286 80.18 46.413 L 80.18 55.778 L 74.968 55.778 L 74.968 48.626 C 74.968 47.038 74.792 45.948 73.252 45.948 C 72.354 45.948 71.167 46.397 71.167 48.578 L 71.167 55.794 L 65.956 55.794 L 65.956 42.131 L 65.972 42.131 Z " fill="rgb(12,32,116)"/><path d=" M 82.04 37 L 87.251 37 L 87.251 46.092 L 90.571 42.131 L 96.456 42.131 L 91.597 47.295 L 97.226 55.794 L 90.956 55.794 L 88.165 50.855 L 87.251 51.849 L 87.251 55.794 L 82.04 55.794 L 82.04 37 Z " fill="rgb(12,32,116)"/><path d=" M 99.535 53.934 C 99.727 54.126 99.824 54.367 99.824 54.656 C 99.824 54.944 99.727 55.185 99.535 55.377 C 99.343 55.57 99.102 55.682 98.813 55.682 C 98.525 55.682 98.284 55.586 98.092 55.377 C 97.899 55.185 97.803 54.928 97.803 54.656 C 97.803 54.383 97.899 54.142 98.092 53.934 C 98.284 53.742 98.525 53.629 98.813 53.629 C 99.102 53.645 99.343 53.742 99.535 53.934 Z  M 99.663 53.822 C 99.439 53.597 99.15 53.485 98.829 53.485 C 98.509 53.485 98.236 53.597 97.996 53.822 C 97.771 54.046 97.643 54.335 97.643 54.656 C 97.643 54.976 97.755 55.265 97.979 55.489 C 98.204 55.714 98.493 55.842 98.813 55.842 C 99.134 55.842 99.423 55.73 99.647 55.489 C 99.872 55.265 100 54.976 100 54.656 C 100 54.335 99.888 54.046 99.663 53.822 Z  M 98.99 54.607 C 98.942 54.623 98.877 54.64 98.765 54.64 L 98.557 54.64 L 98.557 54.174 L 98.749 54.174 C 98.877 54.174 98.974 54.191 99.022 54.223 C 99.086 54.255 99.102 54.319 99.102 54.415 C 99.134 54.495 99.086 54.559 98.99 54.607 Z  M 98.348 55.297 L 98.573 55.297 L 98.573 54.784 L 98.749 54.784 C 98.861 54.784 98.958 54.8 99.006 54.832 C 99.086 54.88 99.134 54.976 99.134 55.121 L 99.134 55.217 L 99.134 55.265 C 99.134 55.265 99.134 55.281 99.134 55.281 C 99.134 55.281 99.134 55.297 99.134 55.297 L 99.343 55.297 L 99.326 55.281 C 99.326 55.265 99.31 55.249 99.31 55.217 C 99.31 55.185 99.31 55.153 99.31 55.121 L 99.31 55.024 C 99.31 54.96 99.278 54.896 99.246 54.816 C 99.198 54.752 99.118 54.704 99.022 54.688 C 99.102 54.672 99.166 54.656 99.214 54.623 C 99.294 54.575 99.343 54.479 99.343 54.367 C 99.343 54.207 99.278 54.094 99.15 54.046 C 99.07 54.014 98.958 53.998 98.797 53.998 L 98.348 53.998 L 98.348 55.297 L 98.348 55.297 Z " fill="rgb(12,32,116)"/></g></g></svg>