<?xml version="1.0" standalone="no"?><!-- Generator: Gravit.io --><svg xmlns="http://www.w3.org/2000/svg" xmlns:xlink="http://www.w3.org/1999/xlink" style="isolation:isolate" viewBox="0 0 100 100" width="100" height="100"><defs><clipPath id="_clipPath_smJ97TjtXlMtA3nFeKAog2eUF3rvWVWr"><rect width="100" height="100"/></clipPath></defs><g clip-path="url(#_clipPath_smJ97TjtXlMtA3nFeKAog2eUF3rvWVWr)"><g><g><path d=" M 10.258 70.694 C 10.258 70.694 10.258 85.334 10.258 85.413 C 10.258 93.635 15.374 95 19.66 95 C 25.995 95 28.931 90.891 28.931 85.334 L 28.931 70.694 L 24.737 70.694 L 24.737 85.829 C 24.737 87.737 24.102 91.307 19.66 91.234 C 15.619 91.168 14.877 87.523 14.877 85.18 L 14.877 70.694 L 10.258 70.694 Z " fill="rgb(26,50,88)"/></g><g><path d=" M 46.448 71.66 C 46.448 71.66 43.771 70.356 40.732 70.356 C 36.941 70.356 32.181 72.262 32.181 77.481 C 32.181 81.099 34.893 82.806 36.742 83.69 C 37.723 84.157 38.917 84.682 39.9 85.201 C 40.407 85.472 42.421 86.138 42.421 88.278 C 42.421 90.572 39.868 91.35 38.721 91.35 C 34.633 91.35 31.849 89.523 31.849 89.523 L 32.278 94.115 C 32.278 94.115 33.95 94.946 38.949 94.958 C 43.717 94.942 47.157 91.934 47.157 87.792 C 47.157 84.603 44.94 82.716 43.049 81.812 C 41.559 81.099 40.697 80.707 39.402 80.107 C 38.107 79.513 36.771 78.478 36.771 76.877 C 36.771 75.158 38.373 73.924 40.732 73.924 C 44.204 73.924 45.599 75.465 46.448 75.945 L 46.448 71.66 Z " fill="rgb(26,50,88)"/></g><g><path d=" M 80.566 70.659 L 75.538 70.659 L 76.341 72.65 L 68.529 93.113 L 60.47 70.659 L 55.436 70.659 L 56.233 72.65 L 47.911 94.466 L 52.456 94.466 L 53.909 90.311 L 62.518 90.311 L 63.967 94.466 L 72.558 94.466 L 74.017 90.311 L 82.625 90.311 L 84.074 94.466 L 89.113 94.466 L 80.566 70.659 Z  M 55.044 87.087 L 58.388 77.765 L 61.369 87.087 L 55.044 87.087 Z  M 75.152 87.087 L 78.484 77.765 L 81.473 87.087 L 75.152 87.087 Z " fill="rgb(26,50,88)"/></g><g><path d=" M 10 43.915 L 10.215 51.354 C 10.215 51.354 12.074 50.004 14.156 50.004 C 16.241 50.004 18.591 51.477 18.591 51.477 L 37.237 62.172 L 38.816 55.452 L 18.591 43.85 C 18.591 43.85 16.248 42.39 14.156 42.39 C 12.064 42.39 10 43.915 10 43.915 Z " fill="rgb(26,50,88)"/></g><g><path d=" M 10 34.188 L 10.215 41.628 C 10.215 41.628 12.074 40.279 14.156 40.279 C 16.241 40.279 18.591 41.751 18.591 41.751 L 39.25 53.6 L 40.82 46.876 L 18.591 34.123 C 18.591 34.123 16.248 32.661 14.156 32.661 C 12.064 32.661 10 34.188 10 34.188 Z " fill="rgb(26,50,88)"/></g><g><path d=" M 10 24.464 L 10.215 31.906 C 10.215 31.906 12.074 30.553 14.156 30.553 C 16.241 30.553 18.591 32.025 18.591 32.025 L 41.264 45.029 L 42.836 38.309 L 18.591 24.399 C 18.591 24.399 16.248 22.94 14.156 22.94 C 12.064 22.94 10 24.464 10 24.464 Z " fill="rgb(26,50,88)"/></g><g><path d=" M 48.861 12.627 L 50.938 21.404 L 79.333 37.684 C 79.333 37.684 81.565 39.151 83.758 39.151 C 85.951 39.151 87.919 37.619 87.919 37.619 L 87.703 30.181 C 87.703 30.181 85.923 31.53 83.758 31.53 C 81.592 31.53 79.333 30.061 79.333 30.061 L 57.364 17.462 L 55.848 11.811 C 55.848 11.572 56.064 11.461 56.146 11.444 L 59.865 10.301 C 60.366 10.301 60.655 10.723 60.655 11.079 L 60.849 11.485 C 60.987 11.553 61.547 11.285 61.586 11.263 L 61.586 9.039 C 61.599 7.559 60.396 6.251 58.761 6.251 C 57.718 6.251 55.04 6.251 55.04 6.251 C 55.04 6.251 54.5 5 52.921 5 C 51.789 5 47.724 5 45.861 5 C 43.999 5 43.552 6.724 43.552 6.724 L 38.649 26.184 L 18.59 14.678 C 18.59 14.678 16.42 13.207 14.155 13.207 C 11.895 13.207 10 14.735 10 14.735 L 10.216 22.18 C 10.216 22.18 11.889 20.829 14.155 20.829 C 16.422 20.829 18.59 22.304 18.59 22.304 L 43.268 36.451 L 48.861 12.627 Z " fill="rgb(26,50,88)"/></g><g><path d=" M 51.494 23.815 L 53.565 32.634 L 79.333 47.406 C 79.333 47.406 81.64 48.876 83.758 48.876 C 85.878 48.876 87.919 47.344 87.919 47.344 L 87.705 39.905 C 87.705 39.905 86.056 41.254 83.758 41.254 C 81.461 41.254 79.333 39.787 79.333 39.787 L 51.494 23.815 Z " fill="rgb(26,50,88)"/></g><g><path d=" M 54.135 35.053 L 56.212 43.874 L 79.333 57.129 C 79.333 57.129 81.64 58.6 83.758 58.6 C 85.878 58.6 87.919 57.066 87.919 57.066 L 87.703 49.626 C 87.703 49.626 86.057 50.979 83.758 50.979 C 81.461 50.979 79.333 49.512 79.333 49.512 L 54.135 35.053 Z " fill="rgb(26,50,88)"/></g><g><path d=" M 56.779 46.303 L 58.848 55.11 L 79.333 66.855 C 79.333 66.855 81.638 68.325 83.758 68.325 C 85.876 68.325 87.919 66.793 87.919 66.793 L 87.703 59.358 C 87.703 59.358 86.056 60.705 83.758 60.705 C 81.461 60.705 79.333 59.236 79.333 59.236 L 56.779 46.303 Z " fill="rgb(26,50,88)"/></g></g></g></svg>