<?xml version="1.0" standalone="no"?><!-- Generator: Gravit.io --><svg xmlns="http://www.w3.org/2000/svg" xmlns:xlink="http://www.w3.org/1999/xlink" style="isolation:isolate" viewBox="0 0 100 100" width="100" height="100"><defs><clipPath id="_clipPath_zcJZksVShAg1NvYTHpR6NHEyuiLbxnQX"><rect width="100" height="100"/></clipPath></defs><g clip-path="url(#_clipPath_zcJZksVShAg1NvYTHpR6NHEyuiLbxnQX)"><path d=" M 31.82 53.885 C 30.776 53.897 29.769 53.59 28.922 52.988 L 27.338 54.486 C 27.927 55.235 28.259 56.144 28.283 57.089 C 28.283 59.705 26.159 61.829 23.544 61.829 C 20.929 61.829 18.805 59.705 18.805 57.089 C 18.792 56.156 19.099 55.235 19.652 54.486 L 18.068 52.988 C 17.245 53.529 16.3 53.848 15.318 53.885 C 14.065 53.909 12.862 53.443 11.966 52.571 C 11.082 51.662 10.578 50.435 10.578 49.17 C 10.578 46.555 12.702 44.431 15.318 44.431 C 16.349 44.455 17.356 44.811 18.166 45.45 L 19.75 43.927 C 19.185 43.092 18.891 42.098 18.903 41.091 C 18.903 38.476 21.027 36.352 23.642 36.352 C 24.907 36.339 26.122 36.843 27.019 37.739 C 27.891 38.623 28.382 39.826 28.369 41.079 C 28.345 42.098 28.013 43.092 27.424 43.915 L 29.008 45.437 C 29.818 44.75 30.85 44.394 31.905 44.443 C 34.508 44.185 36.829 46.076 37.099 48.691 C 37.369 51.306 35.466 53.615 32.851 53.885 C 32.532 53.922 32.225 53.922 31.905 53.885 M 95.113 43.362 L 45.706 43.362 C 44.933 41.889 43.889 40.588 42.612 39.519 C 40.697 37.862 38.143 37.162 35.663 37.604 L 35.233 37.702 L 35.282 37.248 C 35.577 34.67 34.717 32.091 32.912 30.213 C 28.357 25.056 20.487 24.565 15.33 29.12 C 14.949 29.464 14.581 29.82 14.237 30.213 C 12.518 32.128 11.683 34.682 11.917 37.248 L 11.99 37.702 L 11.548 37.604 C 9.007 37.174 6.416 37.874 4.439 39.519 C -0.791 43.878 -1.503 51.662 2.855 56.893 C 3.334 57.47 3.862 57.998 4.439 58.477 C 6.416 60.134 9.007 60.834 11.548 60.392 L 11.99 60.306 L 11.929 60.761 C 11.696 63.327 12.531 65.868 14.25 67.796 C 18.805 72.953 26.687 73.432 31.844 68.876 C 32.225 68.545 32.581 68.177 32.925 67.796 C 34.729 65.93 35.589 63.351 35.294 60.761 L 35.233 60.306 L 35.675 60.392 C 38.155 60.834 40.709 60.122 42.624 58.477 C 44.159 57.053 45.325 55.285 46.025 53.308 L 71.208 53.308 C 72.632 53.234 73.86 54.327 73.934 55.751 C 73.934 55.788 73.934 55.825 73.934 55.862 C 73.934 57.347 72.718 58.538 71.245 58.538 C 71.232 58.538 71.22 58.538 71.208 58.538 L 68.912 58.538 L 68.912 71.97 L 78.931 71.97 L 78.931 61.252 C 78.931 59.778 80.122 58.587 81.595 58.575 C 81.62 58.575 81.632 58.575 81.656 58.575 C 83.191 58.526 84.493 59.705 84.591 61.239 L 84.591 72.02 L 94.499 72.02 L 94.499 58.6 L 92.289 58.6 C 90.816 58.636 89.6 57.482 89.551 56.009 C 89.551 55.984 89.551 55.972 89.551 55.948 C 89.564 54.511 90.742 53.345 92.179 53.357 C 92.216 53.357 92.253 53.357 92.289 53.357 L 95.027 53.357 C 97.753 53.369 99.988 51.171 100 48.433 C 100 48.421 100 48.421 100 48.409 C 100 45.658 97.778 43.424 95.027 43.412" fill="rgb(204,0,0)"/></g></svg>