<?xml version="1.0" standalone="no"?><!-- Generator: Gravit.io --><svg xmlns="http://www.w3.org/2000/svg" xmlns:xlink="http://www.w3.org/1999/xlink" style="isolation:isolate" viewBox="0 0 100 100" width="100" height="100"><defs><clipPath id="_clipPath_DjcYyIKQybd8AodAo2LPe9r1OUW2nHuO"><rect width="100" height="100"/></clipPath></defs><g clip-path="url(#_clipPath_DjcYyIKQybd8AodAo2LPe9r1OUW2nHuO)"><path d=" M 47.994 32.896 L 47.994 5 L 37.896 10.854 L 37.896 38.75 L 47.994 32.896 Z  M 51.78 67.104 L 51.78 95 L 61.951 89.146 L 61.951 61.25 L 51.78 67.104 Z  M 37.896 59.018 L 37.896 89.146 L 47.994 95 L 47.994 65.091 L 65.72 54.848 L 65.72 86.896 L 75.89 81.116 L 75.89 18.866 L 65.72 13.085 L 65.72 42.921 L 37.896 59.018 Z  M 34.037 13.085 L 23.939 18.939 L 23.939 81.116 L 34.037 86.896 L 34.037 57.079 L 61.933 40.982 L 61.933 10.854 L 51.762 5 L 51.762 34.909 L 34.037 45.152 L 34.037 13.085 Z  M 20.171 21.098 L 11.555 26.073 C 10.732 26.585 10 27.628 10 28.524 L 10 71.494 C 10 72.317 10.677 73.415 11.555 73.945 L 20.171 78.921 L 20.171 21.098 Z  M 79.677 78.902 L 88.293 73.927 C 89.116 73.415 89.848 72.372 89.848 71.476 L 89.848 28.524 C 89.848 27.701 89.171 26.604 88.293 26.073 L 79.677 21.098 L 79.677 78.902 Z " fill="rgb(102,189,41)"/></g></svg>