<?xml version="1.0" standalone="no"?><!-- Generator: Gravit.io --><svg xmlns="http://www.w3.org/2000/svg" xmlns:xlink="http://www.w3.org/1999/xlink" style="isolation:isolate" viewBox="0 0 100 100" width="100" height="100"><defs><clipPath id="_clipPath_IwSQItSqzmnldQb22754UaKcPqAdSdas"><rect width="100" height="100"/></clipPath></defs><g clip-path="url(#_clipPath_IwSQItSqzmnldQb22754UaKcPqAdSdas)"><path d=" M 67.867 57.961 C 67.862 57.966 67.856 57.966 67.856 57.972 C 63.596 60.987 58.553 64.153 53.126 67.478 L 52.912 67.602 C 52.839 67.653 52.822 67.754 52.873 67.827 C 52.923 67.901 53.025 67.918 53.098 67.867 L 53.278 67.771 C 57.882 65.371 63.168 62.519 68.487 59.595 C 68.515 59.578 68.543 59.561 68.572 59.55 C 68.279 59.065 68.036 58.535 67.867 57.961 L 67.867 57.961 Z  M 95.817 35.336 C 89.105 27.932 45.913 34.592 27.549 38.605 L 27.121 38.695 C 27.031 38.712 26.974 38.796 26.991 38.881 C 27.008 38.971 27.093 39.027 27.177 39.01 L 27.6 38.926 C 42.814 36.215 74.46 32.462 81.267 39.213 C 83.346 41.275 82.851 43.924 80.439 47.057 C 81.735 47.891 82.659 49.204 83.076 50.844 C 92.486 44.6 98.803 38.633 95.817 35.336 L 95.817 35.336 Z " fill="rgb(208,48,39)"/><g><path d=" M 70.583 56.017 C 70.668 58.62 72.319 60.756 74.466 60.756 C 78.63 60.756 80.405 55.639 80.281 52.224 C 80.191 49.615 78.5 47.485 76.353 47.485 C 72.775 47.48 70.459 52.574 70.583 56.017 Z  M 68.386 55.876 C 68.234 51.43 71.716 46.882 76.776 46.882 C 80.157 46.882 82.372 49.136 82.496 52.59 C 82.659 57.279 79.402 61.584 74.111 61.584 C 70.719 61.584 68.504 59.336 68.386 55.876 L 68.386 55.876 Z " fill="rgb(0,73,119)"/><path d=" M 20.462 54.704 C 20.282 54.771 20.051 54.839 19.758 54.901 C 19.47 54.968 18.941 55.059 18.174 55.183 C 17.645 55.267 17.278 55.374 17.07 55.526 C 16.873 55.673 16.754 55.847 16.72 56.067 C 16.681 56.298 16.754 56.479 16.951 56.625 C 17.154 56.766 17.492 56.839 17.971 56.839 C 18.332 56.839 18.681 56.783 19.019 56.67 C 19.363 56.557 19.656 56.405 19.876 56.214 C 20.039 56.073 20.158 55.893 20.248 55.673 C 20.304 55.526 20.378 55.205 20.462 54.704 Z  M 24.857 51.971 C 24.84 52.376 24.767 52.737 24.66 53.362 L 23.916 57.538 C 23.854 57.91 23.99 58.197 24.333 58.4 L 24.311 58.564 L 20.051 58.558 L 20.011 57.499 C 19.391 57.87 18.642 58.186 17.966 58.372 C 17.29 58.547 16.743 58.62 15.926 58.62 C 14.551 58.62 13.762 58.479 13.215 58 C 12.663 57.51 12.393 57.183 12.421 56.507 C 12.444 56.118 12.646 55.616 12.934 55.267 C 13.227 54.912 13.632 54.681 14.066 54.473 C 14.506 54.264 15.024 54.112 15.774 53.994 C 16.529 53.87 17.577 53.751 18.98 53.633 C 19.718 53.571 20.169 53.402 20.378 53.317 C 20.671 53.205 20.789 53.075 20.828 52.838 C 20.907 52.41 20.772 52.162 20.197 52.05 C 18.664 51.745 15.785 52.247 14.303 52.613 L 15.109 50.438 C 17.064 50.151 18.896 49.97 20.828 49.97 C 23.911 49.97 24.891 50.844 24.857 51.971 Z " fill="rgb(0,73,119)"/><path d=" M 37.209 58.558 L 38.685 50.213 L 42.765 50.213 L 41.289 58.558 L 37.209 58.558 Z  M 38.911 48.28 C 39.035 47.592 40.117 47.04 41.323 47.04 C 42.534 47.04 43.419 47.598 43.301 48.28 C 43.171 48.967 42.095 49.525 40.877 49.525 C 39.672 49.525 38.793 48.967 38.911 48.28 L 38.911 48.28 Z " fill="rgb(0,73,119)"/><path d=" M 57.251 54.72 C 57.065 54.782 56.828 54.85 56.541 54.918 C 56.254 54.985 55.724 55.07 54.958 55.194 C 54.434 55.278 54.062 55.385 53.859 55.538 C 53.662 55.678 53.549 55.859 53.504 56.073 C 53.459 56.304 53.543 56.49 53.735 56.631 C 53.943 56.772 54.281 56.839 54.76 56.839 C 55.115 56.839 55.465 56.789 55.808 56.681 C 56.158 56.563 56.445 56.417 56.671 56.225 C 56.828 56.084 56.947 55.898 57.031 55.684 C 57.088 55.543 57.161 55.222 57.251 54.72 L 57.251 54.72 Z  M 61.646 51.982 C 61.629 52.393 61.556 52.754 61.443 53.374 L 60.705 57.555 C 60.643 57.921 60.778 58.214 61.122 58.417 L 61.1 58.564 L 56.84 58.569 L 56.806 57.504 C 56.186 57.882 55.431 58.197 54.76 58.378 C 54.084 58.558 53.538 58.631 52.709 58.631 C 51.334 58.631 50.551 58.496 50.004 58.011 C 49.447 57.515 49.182 57.194 49.21 56.518 C 49.227 56.124 49.43 55.622 49.723 55.278 C 50.016 54.918 50.421 54.692 50.861 54.484 C 51.3 54.275 51.819 54.123 52.563 53.999 C 53.318 53.881 54.372 53.757 55.775 53.639 C 56.507 53.577 56.958 53.413 57.166 53.329 C 57.465 53.216 57.578 53.086 57.623 52.844 C 57.696 52.421 57.567 52.173 56.997 52.055 C 55.453 51.751 52.585 52.252 51.103 52.619 L 51.903 50.444 C 53.864 50.156 55.69 49.976 57.623 49.976 C 60.694 49.981 61.674 50.861 61.646 51.982 L 61.646 51.982 Z " fill="rgb(0,73,119)"/><path d=" M 11.869 55.56 C 10.539 55.825 9.795 55.926 8.482 55.926 C 6.532 55.926 4.983 54.957 5.067 53.182 C 5.129 51.999 6.527 49.508 10.082 49.508 C 11.204 49.508 12.077 49.705 13.255 50.376 L 13.773 47.48 C 12.173 46.877 11.114 46.786 9.739 46.798 C 5.073 46.848 0.599 48.967 0.041 53.278 C -0.523 57.656 4.825 58.755 7.197 58.744 C 8.567 58.738 9.992 58.682 11.322 58.547 L 11.869 55.56 Z " fill="rgb(0,73,119)"/><path d=" M 45.014 50.167 L 45.307 48.466 L 49.572 47.536 L 49.116 50.162 L 51.206 50.162 L 50.812 51.841 L 48.783 51.835 L 47.549 58.547 C 47.549 58.547 43.441 58.518 43.424 58.547 L 44.653 51.852 L 43.109 51.852 L 43.424 50.162 L 45.014 50.162 L 45.014 50.167 Z " fill="rgb(0,73,119)"/><path d=" M 67.773 47.029 L 65.79 58.552 L 61.637 58.558 L 63.727 46.916 L 67.773 47.029 Z " fill="rgb(0,73,119)"/><path d=" M 31.811 52.168 C 31.276 52.168 30.791 52.331 30.363 52.652 C 29.934 52.979 29.664 53.453 29.557 54.078 C 29.427 54.805 29.506 55.329 29.794 55.65 C 30.087 55.971 30.504 56.135 31.056 56.135 C 31.428 56.135 31.811 56.067 32.093 55.926 C 32.442 55.74 32.684 55.549 32.893 55.239 C 33.118 54.918 33.265 54.557 33.344 54.14 C 33.462 53.481 33.36 52.991 33.056 52.664 C 32.758 52.337 32.346 52.168 31.811 52.168 Z  M 24.384 61.437 L 26.373 50.258 L 29.957 50.258 L 29.681 51.683 C 29.991 51.255 30.487 50.906 31.174 50.624 C 31.867 50.342 32.645 50.134 33.49 50.134 C 34.425 50.134 35 50.184 35.699 50.545 C 36.392 50.911 36.882 51.441 37.142 52.128 C 37.412 52.805 37.468 53.571 37.322 54.399 C 37.08 55.78 36.409 56.862 35.305 57.662 C 34.211 58.462 33.225 58.671 31.822 58.676 C 31.326 58.676 30.909 58.626 30.566 58.541 C 30.227 58.451 29.957 58.344 29.754 58.214 C 29.557 58.085 29.348 57.899 29.084 57.606 L 28.419 61.437 L 24.384 61.437 Z " fill="rgb(0,73,119)"/><path d=" M 98.437 53.193 C 98.414 52.523 98.076 52.066 97.383 52.066 C 95.71 52.066 93.929 55.346 93.625 56.665 C 96.369 56.67 98.505 55.036 98.437 53.193 Z  M 98.798 58.332 L 99.119 58.552 C 98.302 60.215 96.639 61.55 94.69 61.55 C 93.095 61.55 91.782 60.485 91.714 58.49 C 91.585 54.912 94.938 51.593 97.682 51.593 C 98.86 51.593 99.953 52.106 99.998 53.374 C 100.099 56.219 96.104 57.087 93.472 57.149 C 93.388 57.448 93.354 57.746 93.371 58.197 C 93.416 59.375 94.126 60.367 95.602 60.367 C 96.876 60.367 98.149 59.341 98.798 58.332 L 98.798 58.332 Z " fill="rgb(0,73,119)"/><path d=" M 82.434 53.103 C 82.715 53.064 83.172 53.013 83.369 53.013 C 83.668 53.013 83.949 53.069 83.966 53.368 C 83.972 53.543 83.656 54.811 83.589 55.104 L 82.952 57.91 C 82.693 59.059 82.417 60.26 82.169 61.212 L 83.803 61.212 L 84.721 56.766 C 87.522 53.847 88.604 52.895 89.263 52.895 C 89.562 52.895 89.765 53.053 89.782 53.408 C 89.798 53.92 89.477 55.087 89.37 55.425 L 88.435 58.665 C 88.221 59.392 88.063 60.051 88.08 60.519 C 88.108 61.229 88.536 61.544 89.179 61.544 C 90.373 61.544 91.241 60.299 91.996 59.076 L 91.776 58.676 C 91.472 59.166 90.762 60.243 90.204 60.243 C 90.03 60.243 89.86 60.124 89.855 59.831 C 89.838 59.454 89.996 58.885 90.108 58.507 L 91.151 54.709 C 91.433 53.661 91.562 52.991 91.557 52.63 C 91.528 51.92 91.117 51.587 90.48 51.587 C 89.404 51.587 87.978 52.376 84.952 55.853 L 84.907 55.853 L 85.291 54.157 C 85.499 53.227 85.702 52.258 85.893 51.587 C 84.845 51.965 83.346 52.388 82.422 52.568 L 82.434 53.103 Z " fill="rgb(0,73,119)"/></g></g></svg>