<?xml version="1.0" standalone="no"?><!-- Generator: Gravit.io --><svg xmlns="http://www.w3.org/2000/svg" xmlns:xlink="http://www.w3.org/1999/xlink" style="isolation:isolate" viewBox="0 0 100 100" width="100" height="100"><defs><clipPath id="_clipPath_pFVI1tSmLW9I4ecWwdcjzHOMTRJBx6CC"><rect width="100" height="100"/></clipPath></defs><g clip-path="url(#_clipPath_pFVI1tSmLW9I4ecWwdcjzHOMTRJBx6CC)"><g><path d=" M 30.449 70.043 L 30.27 70.216 C 27.387 73.154 24.05 74.711 20.612 74.711 C 13.434 74.711 8.224 69.326 8.224 61.897 C 8.224 54.481 13.434 49.089 20.612 49.089 C 24.05 49.089 27.387 50.652 30.27 53.597 L 30.449 53.776 L 35.065 48.194 L 34.942 48.043 C 31.103 43.506 26.497 41.298 20.835 41.298 C 15.152 41.298 9.958 43.21 6.215 46.659 C 2.147 50.394 0 55.66 0 61.897 C 0 68.13 2.147 73.41 6.215 77.146 C 9.958 80.61 15.152 82.512 20.835 82.512 C 26.497 82.512 31.103 80.305 34.942 75.767 L 35.065 75.626 L 30.449 70.043 Z " fill="rgb(0,59,112)"/><path d=" M 39.73 81.752 L 47.884 81.752 L 47.884 41.945 L 39.73 41.945 L 39.73 81.752 L 39.73 81.752 Z " fill="rgb(0,59,112)"/><path d=" M 79.826 73.097 C 77.65 74.421 75.626 75.087 73.808 75.087 C 71.173 75.087 69.982 73.697 69.982 70.599 L 69.982 49.477 L 78.287 49.477 L 78.287 41.981 L 69.982 41.981 L 69.982 29.595 L 61.99 33.872 L 61.99 41.981 L 55.095 41.981 L 55.095 49.477 L 61.99 49.477 L 61.99 71.947 C 61.99 78.069 65.616 82.251 71.029 82.359 C 74.705 82.431 76.921 81.336 78.266 80.536 L 78.345 80.477 L 80.308 72.802 L 79.826 73.097 L 79.826 73.097 Z " fill="rgb(0,59,112)"/><path d=" M 86.58 81.752 L 94.74 81.752 L 94.74 41.945 L 86.58 41.945 L 86.58 81.752 L 86.58 81.752 Z " fill="rgb(0,59,112)"/><path d=" M 99.624 34.882 C 92.159 24.308 79.763 18 67.15 18 C 54.543 18 42.144 24.308 34.691 34.882 L 34.309 35.426 L 43.708 35.426 L 43.812 35.313 C 50.21 28.71 58.56 25.218 67.15 25.218 C 75.741 25.218 84.09 28.71 90.5 35.313 L 90.604 35.426 L 100 35.426 L 99.624 34.882 Z " fill-rule="evenodd" fill="rgb(217,38,28)"/></g></g></svg>