<?xml version="1.0" standalone="no"?><!-- Generator: Gravit.io --><svg xmlns="http://www.w3.org/2000/svg" xmlns:xlink="http://www.w3.org/1999/xlink" style="isolation:isolate" viewBox="0 0 100 100" width="100" height="100"><defs><clipPath id="_clipPath_5j3l7sr716ySZrvGdGGgd932hzquc48B"><rect width="100" height="100"/></clipPath></defs><g clip-path="url(#_clipPath_5j3l7sr716ySZrvGdGGgd932hzquc48B)"><rect x="0.192" y="8" width="97.727" height="81.818" transform="matrix(1,0,0,1,0,0)" fill="rgb(255,255,255)"/><path d=" M 0 92.091 L 100 92.091 L 100 8 L 0 8 L 0 92.091 Z  M 65.643 73.9 L 42.348 73.9 L 42.348 34.434 L 54.05 34.434 L 54.05 66.918 L 65.3 66.918 C 73.068 66.918 76.334 61.841 76.334 48.823 C 76.334 35.705 72.618 31.895 64.741 31.895 L 39.084 31.895 L 39.084 73.9 L 27.491 73.9 L 27.491 31.895 L 10.498 31.895 L 10.498 24.907 L 68.339 24.907 C 82.295 24.907 88.934 31.677 88.934 48.718 C 88.934 71.148 79.03 73.9 65.643 73.9 Z " fill="rgb(84,184,72)"/></g></svg>