<?xml version="1.0" standalone="no"?><!-- Generator: Gravit.io --><svg xmlns="http://www.w3.org/2000/svg" xmlns:xlink="http://www.w3.org/1999/xlink" style="isolation:isolate" viewBox="0 0 100 100" width="100" height="100"><defs><clipPath id="_clipPath_lhVneIVMNB2kqtZSvjZuDbNB4vGgd1aM"><rect width="100" height="100"/></clipPath></defs><g clip-path="url(#_clipPath_lhVneIVMNB2kqtZSvjZuDbNB4vGgd1aM)"><g><g><g><path d=" M 37.193 5 C 35.438 5 34.016 6.422 34.016 8.176 L 34.016 30.447 L 92.847 30.447 L 66.056 5.002 L 37.193 5 Z " fill="rgb(17,122,202)"/><path d=" M 95 37.185 C 95 35.428 93.588 34.012 91.822 34.012 L 69.557 34.012 L 69.557 92.845 L 94.99 66.041 L 95 37.185 Z " fill="rgb(17,122,202)"/><path d=" M 62.811 94.975 C 64.562 94.975 65.984 93.551 65.984 91.794 L 65.984 69.53 L 7.15 69.53 L 33.946 94.971 L 62.811 94.975 Z " fill="rgb(17,122,202)"/><path d=" M 5 62.794 C 5 64.55 6.422 65.98 8.182 65.98 L 30.443 65.98 L 30.443 7.142 L 5.004 33.938 L 5 62.794 Z " fill="rgb(17,122,202)"/></g></g></g></g></svg>