<?xml version="1.0" standalone="no"?><!-- Generator: Gravit.io --><svg xmlns="http://www.w3.org/2000/svg" xmlns:xlink="http://www.w3.org/1999/xlink" style="isolation:isolate" viewBox="0 0 100 100" width="100" height="100"><defs><clipPath id="_clipPath_ZqkDWWPfBmoMM3hzqtYdrsTzyrZtKoYs"><rect width="100" height="100"/></clipPath></defs><g clip-path="url(#_clipPath_ZqkDWWPfBmoMM3hzqtYdrsTzyrZtKoYs)"><path d=" M 92.872 92.872 C 95.681 90.062 95.738 85.449 92.872 82.602 L 76.091 65.822 L 87.746 65.936 C 92.302 66.05 94.941 62.861 94.941 58.855 C 94.941 54.755 91.733 51.547 87.746 51.547 L 73.244 51.547 C 70.055 51.547 67.473 53.521 66.486 56.103 C 64.664 60.848 60.924 64.607 56.103 66.486 C 53.502 67.511 51.547 70.055 51.547 73.244 L 51.547 87.746 C 51.547 91.733 54.736 94.941 58.855 94.941 C 62.842 94.941 66.05 92.302 65.936 87.746 L 65.822 76.091 L 82.602 92.872 C 85.449 95.719 90.062 95.662 92.872 92.872 Z " fill="rgb(0,150,94)"/><path d=" M 92.872 7.128 C 90.081 4.319 85.449 4.262 82.602 7.128 L 65.822 23.909 L 65.936 12.254 C 66.05 7.698 62.842 5.059 58.855 5.059 C 54.755 5.059 51.547 8.267 51.547 12.254 L 51.547 26.756 C 51.547 29.945 53.521 32.527 56.103 33.514 C 60.848 35.336 64.588 39.076 66.486 43.897 C 67.511 46.498 70.055 48.453 73.244 48.453 L 87.746 48.453 C 91.733 48.453 94.941 45.264 94.941 41.145 C 94.941 37.158 92.302 33.95 87.746 34.064 L 76.091 34.178 L 92.872 17.398 C 95.719 14.551 95.662 9.919 92.872 7.128 Z " fill="rgb(0,150,94)"/><path d=" M 7.128 7.128 C 4.319 9.938 4.281 14.551 7.128 17.398 L 23.909 34.178 L 12.254 34.064 C 7.698 33.95 5.059 37.139 5.059 41.145 C 5.059 45.245 8.267 48.453 12.254 48.453 L 26.756 48.453 C 29.945 48.453 32.527 46.479 33.514 43.897 C 35.336 39.152 39.076 35.393 43.897 33.514 C 46.498 32.489 48.453 29.945 48.453 26.756 L 48.453 12.254 C 48.453 8.267 45.264 5.059 41.145 5.059 C 37.158 5.059 33.95 7.698 34.064 12.254 L 34.178 23.909 L 17.398 7.128 C 14.551 4.262 9.919 4.319 7.128 7.128 Z " fill="rgb(0,150,94)"/><path d=" M 7.128 92.872 C 9.919 95.681 14.551 95.738 17.398 92.872 L 34.178 76.091 L 34.064 87.746 C 33.95 92.302 37.139 94.941 41.145 94.941 C 45.245 94.941 48.453 91.733 48.453 87.746 L 48.453 73.244 C 48.453 70.055 46.479 67.473 43.897 66.486 C 39.152 64.664 35.412 60.924 33.514 56.103 C 32.489 53.502 29.945 51.547 26.756 51.547 L 12.254 51.547 C 8.267 51.547 5.059 54.736 5.059 58.855 C 5.059 62.842 7.698 66.05 12.254 65.936 L 23.909 65.822 L 7.128 82.602 C 4.262 85.449 4.319 90.062 7.128 92.872 Z " fill="rgb(0,150,94)"/></g></svg>