<?xml version="1.0" standalone="no"?><!-- Generator: Gravit.io --><svg xmlns="http://www.w3.org/2000/svg" xmlns:xlink="http://www.w3.org/1999/xlink" style="isolation:isolate" viewBox="0 0 145 84" width="145" height="84"><defs><clipPath id="_clipPath_I9Onyy5BcmwufIXYUuBY06tWMot1WkJa"><rect width="145" height="84"/></clipPath></defs><g clip-path="url(#_clipPath_I9Onyy5BcmwufIXYUuBY06tWMot1WkJa)"><rect width="145" height="84" style="fill:rgb(227,24,54)"/><g id="Group"><g id="Group"><g id="Group"><g id="Group"><g id="Group"><path d=" M 58.423 25.653 C 62.147 27.123 65.827 28.703 69.462 30.384 C 57.887 35.085 46.707 40.649 36.042 47.022 C 32.432 45.13 28.769 43.342 25.055 41.664 C 35.705 35.462 46.858 30.099 58.423 25.653 Z " fill-rule="evenodd" fill="rgb(255,255,255)"/><path d=" M 44.641 20.786 C 32.62 24.592 21.053 29.571 10.091 35.611 C 13.587 36.876 17.051 38.222 20.465 39.663 C 31.088 33.412 42.315 28.152 53.997 23.972 C 50.907 22.836 47.783 21.775 44.641 20.786 Z " fill-rule="evenodd" fill="rgb(255,255,255)"/><path d=" M 83.511 25.184 C 74.069 20.617 64.267 16.771 54.188 13.701 C 50.642 14.723 47.128 15.836 43.644 17.049 C 54.024 20.121 64.113 24.011 73.831 28.666 C 77.025 27.441 80.255 26.275 83.511 25.184 Z " fill-rule="evenodd" fill="rgb(255,255,255)"/><path d=" M 98.917 20.592 C 89.256 16.377 79.264 12.851 69.055 10.044 C 65.802 10.716 62.571 11.467 59.363 12.29 C 69.502 15.249 79.36 19 88.869 23.466 C 92.195 22.437 95.545 21.477 98.917 20.592 Z " fill-rule="evenodd" fill="rgb(255,255,255)"/><path d=" M 123.653 28.901 C 99.415 37.071 76.707 48.708 56.164 63.276 C 61.302 66.43 66.303 69.777 71.193 73.303 C 90.556 57.945 112.051 45.15 135.186 35.43 C 131.412 33.141 127.553 30.967 123.653 28.901 Z " fill-rule="evenodd" fill="rgb(255,255,255)"/><path d=" M 106.985 20.981 C 81.785 27.647 58.093 38.4 36.734 52.564 C 41.547 54.932 46.273 57.459 50.902 60.149 C 71.835 45.658 95.063 34.376 119.839 26.935 C 115.614 24.817 111.327 22.824 106.985 20.981 Z " fill-rule="evenodd" fill="rgb(255,255,255)"/></g></g></g></g></g></g></svg>