<?xml version="1.0" standalone="no"?><!-- Generator: Gravit.io --><svg xmlns="http://www.w3.org/2000/svg" xmlns:xlink="http://www.w3.org/1999/xlink" style="isolation:isolate" viewBox="0 0 100 100" width="100" height="100"><defs><clipPath id="_clipPath_yWSu5SYRq7okawNHHNcD8wVfI1BKuo69"><rect width="100" height="100"/></clipPath></defs><g clip-path="url(#_clipPath_yWSu5SYRq7okawNHHNcD8wVfI1BKuo69)"><path d=" M 37.215 51.323 C 38.371 52.069 39.527 52.816 40.684 53.562 C 41.803 51.622 42.921 49.683 44.04 47.743 C 42.566 47.164 41.093 46.585 39.619 46.006 C 39.47 45.947 39.446 45.886 39.385 46.034 C 39.268 46.319 39.151 46.604 39.034 46.889 C 38.644 47.84 38.254 48.792 37.863 49.743 C 37.647 50.27 37.431 50.796 37.215 51.323 Z " fill="rgb(255,255,255)"/><path d=" M 48.217 58.425 C 49.816 59.457 51.415 60.489 53.013 61.521 C 52.336 58.89 51.66 56.259 50.983 53.628 C 50.061 55.227 49.139 56.826 48.217 58.425 Z " fill="rgb(255,255,255)"/><path d=" M 93.985 76.234 C 93.507 75.405 93.029 74.577 92.551 73.748 C 91.283 71.548 90.014 69.349 88.746 67.149 C 86.935 64.008 85.124 60.868 83.313 57.727 C 81.207 54.075 79.101 50.423 76.995 46.771 C 74.842 43.037 72.689 39.304 70.536 35.57 C 68.584 32.184 66.631 28.799 64.679 25.413 C 63.175 22.805 61.671 20.197 60.168 17.59 C 59.361 16.19 58.553 14.79 57.746 13.389 C 57.262 12.55 56.75 11.73 56.134 10.978 C 54.452 8.928 51.998 7.348 49.25 7.682 C 45.896 8.091 43.708 10.888 42.132 13.621 C 41.24 15.168 40.348 16.715 39.455 18.263 C 37.892 20.973 36.33 23.682 34.767 26.392 C 32.782 29.834 30.797 33.277 28.812 36.719 C 26.652 40.464 24.493 44.21 22.333 47.955 C 20.246 51.574 18.16 55.192 16.073 58.811 C 14.307 61.873 12.542 64.935 10.776 67.997 C 9.579 70.073 8.382 72.149 7.185 74.224 C 6.475 75.455 5.697 76.684 5.147 77.997 C 4.2 80.258 3.834 82.924 4.978 85.186 C 6.092 87.389 8.375 88.189 10.721 88.653 C 12.337 88.972 13.989 88.489 15.627 88.489 C 17.956 88.489 20.285 88.489 22.614 88.489 C 26.107 88.489 29.6 88.489 33.093 88.489 C 37.253 88.489 41.412 88.489 45.572 88.489 C 49.901 88.489 54.229 88.489 58.558 88.489 C 62.558 88.489 66.559 88.489 70.559 88.489 C 73.734 88.489 76.908 88.489 80.083 88.489 C 81.935 88.489 83.786 88.489 85.638 88.489 C 88.448 88.489 91.416 88.603 93.595 86.634 C 94.905 85.45 95.644 84.01 95.739 82.254 C 95.858 80.058 95.068 78.11 93.985 76.234 Z  M 48.619 38.129 C 48.801 35.048 51.819 32.821 54.818 33.55 C 57.804 34.276 59.459 37.637 58.219 40.448 C 57.249 42.648 54.772 43.866 52.437 43.298 C 50.111 42.733 48.478 40.516 48.619 38.129 C 48.782 35.363 48.456 40.895 48.619 38.129 Z  M 73.178 76.84 C 72.066 77.38 70.763 77.609 69.541 77.686 C 66.421 77.883 63.378 76.836 60.83 75.071 C 61.677 73.849 62.523 72.627 63.37 71.406 C 62.013 70.53 60.655 69.654 59.298 68.777 C 58.998 68.583 58.697 68.389 58.397 68.195 C 58.33 68.152 58.264 68.109 58.197 68.066 C 58.191 68.062 58.178 68.05 58.17 68.049 C 57.935 68.18 57.682 68.278 57.419 68.334 C 55.947 68.647 54.597 67.684 54.233 66.269 C 54.176 66.047 54.119 65.824 54.062 65.602 C 54.047 65.545 54.039 65.382 53.985 65.347 C 53.838 65.252 53.691 65.158 53.545 65.063 C 52.825 64.598 52.105 64.133 51.385 63.669 C 49.921 62.724 48.457 61.779 46.993 60.834 C 46.953 60.808 46.913 60.782 46.873 60.757 C 46.496 61.411 46.118 62.066 45.741 62.72 C 45.711 62.773 45.895 62.966 45.926 63.01 C 46.127 63.289 46.328 63.567 46.529 63.846 C 47.633 65.376 48.737 66.905 49.841 68.435 C 50.334 69.118 50.69 69.834 50.572 70.712 C 50.493 71.298 50.189 71.794 49.917 72.305 C 49.001 74.028 48.086 75.75 47.17 77.473 C 46.817 78.138 46.463 78.802 46.11 79.467 C 45.664 80.307 45.026 80.971 44.043 81.143 C 42.43 81.424 40.912 80.149 40.897 78.518 C 40.89 77.769 41.247 77.168 41.584 76.535 C 42.489 74.832 43.395 73.128 44.3 71.425 C 44.43 71.181 44.559 70.937 44.689 70.693 C 44.747 70.585 44.767 70.588 44.697 70.492 C 44.266 69.895 43.835 69.298 43.405 68.701 C 42.8 67.863 42.195 67.024 41.589 66.186 C 41.386 65.905 41.183 65.624 40.98 65.343 C 40.933 65.279 40.887 65.214 40.84 65.15 C 40.796 65.089 40.331 64.986 40.329 64.99 C 39.854 65.814 39.379 66.638 38.903 67.462 C 36.92 70.9 34.938 74.338 32.955 77.776 C 32.654 78.297 32.354 78.818 32.053 79.339 C 31.82 79.743 31.604 80.143 31.247 80.46 C 29.967 81.592 27.89 81.216 27.092 79.703 C 26.638 78.843 26.709 77.852 27.187 77.022 C 28.678 74.436 30.169 71.851 31.66 69.265 C 33.48 66.109 35.301 62.952 37.121 59.796 C 37.591 58.98 38.035 58.153 38.506 57.337 C 38.743 56.926 38.98 56.516 39.216 56.105 C 39.337 55.895 39.369 55.918 39.171 55.79 C 38.393 55.288 37.614 54.785 36.836 54.283 C 36.495 54.063 36.154 53.843 35.813 53.622 C 35.751 53.582 35.689 53.542 35.626 53.502 C 35.598 53.484 35.249 53.657 35.196 53.674 C 34.938 53.755 34.667 53.797 34.397 53.797 C 32.773 53.797 31.494 52.301 31.743 50.7 C 31.824 50.181 32.084 49.675 32.282 49.192 C 32.631 48.341 32.98 47.49 33.329 46.638 C 34.004 44.992 34.679 43.346 35.354 41.7 C 35.71 40.831 36.301 40.131 37.243 39.876 C 37.923 39.691 38.564 39.824 39.198 40.073 C 42.521 41.379 45.844 42.685 49.167 43.991 C 50.478 44.506 51.789 45.021 53.099 45.536 C 53.824 45.821 54.441 46.271 54.776 47.002 C 54.921 47.318 54.993 47.664 55.079 48 C 55.977 51.49 56.874 54.981 57.772 58.471 C 58.213 60.185 58.653 61.898 59.094 63.612 C 59.203 64.037 59.312 64.461 59.422 64.886 C 59.455 65.015 59.49 65.144 59.511 65.276 C 59.533 65.412 59.467 65.694 59.59 65.773 C 59.674 65.827 59.757 65.881 59.841 65.935 C 61.096 66.745 62.352 67.556 63.607 68.366 C 64.022 68.634 64.438 68.902 64.853 69.171 C 64.958 69.239 64.989 69.071 65.046 68.989 C 65.287 68.641 65.529 68.292 65.77 67.944 C 66.241 67.265 66.712 66.585 67.182 65.906 C 69.628 67.601 71.66 69.933 72.621 72.78 C 73.047 74.041 73.314 75.449 73.181 76.787 C 73.182 76.801 73.18 76.82 73.178 76.84 Z " fill="rgb(255,255,255)"/></g></svg>