<?xml version="1.0" standalone="no"?><!-- Generator: Gravit.io --><svg xmlns="http://www.w3.org/2000/svg" xmlns:xlink="http://www.w3.org/1999/xlink" style="isolation:isolate" viewBox="0 0 145 84" width="145" height="84"><defs><clipPath id="_clipPath_oZgHOArp2kFLKf6nJVrNqcv7cZTFwIhr"><rect width="145" height="84"/></clipPath></defs><g clip-path="url(#_clipPath_oZgHOArp2kFLKf6nJVrNqcv7cZTFwIhr)"><rect width="145" height="84" style="fill:rgb(17,122,202)"/><g id="logotype"><g id="g17202"><g id="logo"><path d=" M 63.511 10.275 C 62.255 10.275 61.237 11.293 61.237 12.547 L 61.237 28.486 L 103.339 28.486 L 84.166 10.276 L 63.511 10.275 Z " fill="rgb(255,255,255)"/><path d=" M 104.88 33.308 C 104.88 32.05 103.869 31.037 102.606 31.037 L 86.672 31.037 L 86.672 73.14 L 104.872 53.958 L 104.88 33.308 Z " fill="rgb(255,255,255)"/><path d=" M 81.844 74.665 C 83.097 74.665 84.115 73.645 84.115 72.388 L 84.115 56.455 L 42.011 56.455 L 61.187 74.662 L 81.844 74.665 Z " fill="rgb(255,255,255)"/><path d=" M 40.472 51.635 C 40.472 52.891 41.49 53.914 42.749 53.914 L 58.681 53.914 L 58.681 11.808 L 40.475 30.984 L 40.472 51.635 Z " fill="rgb(255,255,255)"/></g></g></g></g></svg>