<?xml version="1.0" standalone="no"?><!-- Generator: Gravit.io --><svg xmlns="http://www.w3.org/2000/svg" xmlns:xlink="http://www.w3.org/1999/xlink" style="isolation:isolate" viewBox="0 0 145 84" width="145" height="84"><defs><clipPath id="_clipPath_m4eOXjCNL1XGz01u59XbGnmoFt7ie8o5"><rect width="145" height="84"/></clipPath></defs><g clip-path="url(#_clipPath_m4eOXjCNL1XGz01u59XbGnmoFt7ie8o5)"><rect width="145" height="84" style="fill:rgb(118,169,35)"/><g id="g18835"><g id="g18837"><clipPath id="_clipPath_6kzFeeqBB7omIUUUXjC2r2eLlfRvWjxR"><path d=" M -183.805 -282.63 L 5462.857 -282.63 L 5462.857 7024.815 L -183.805 7024.815 L -183.805 -282.63 Z " fill="rgb(255,255,255)"/></clipPath><g clip-path="url(#_clipPath_6kzFeeqBB7omIUUUXjC2r2eLlfRvWjxR)"><g id="g18839"><g id="g18845"><clipPath id="_clipPath_FhqRaIsBZWyzh8PsbxHwFNGIz0Keumog"><path d=" M -17.727 267.504 L 1027.902 267.504 L 1027.902 -19.562 L -17.727 -19.562 L -17.727 267.504 Z " fill="rgb(255,255,255)"/></clipPath><g clip-path="url(#_clipPath_FhqRaIsBZWyzh8PsbxHwFNGIz0Keumog)"><g id="g18847"><g id="g18853"><path d=" M 72.285 71.68 C 88.256 71.68 101.196 58.735 101.196 42.767 C 101.196 26.801 88.256 13.859 72.285 13.859 C 56.319 13.859 43.377 26.801 43.377 42.767 C 43.377 58.735 56.319 71.68 72.285 71.68 Z " fill="rgb(118,169,35)"/></g><path d=" M 67.841 47.587 L 78.482 47.587 L 81.59 49.602 L 67.372 49.602 L 60.991 69.326 C 53.941 66.592 47.417 60.259 44.68 53.14 C 41.763 46.242 41.763 37.575 44.744 30.648 C 47.539 23.527 54.252 17.095 61.397 14.454 C 67.019 12.125 74.543 11.879 80.505 13.711 C 87.348 15.671 93.808 20.575 97.564 26.977 C 101.765 33.997 102.945 42.919 100.391 50.931 C 98.778 56.249 95.455 61.341 90.88 64.982 L 83.027 51.897 L 93.959 57.994 C 94.02 57.994 94.052 57.925 94.02 57.861 L 79.702 45.5 L 98.221 48.324 C 98.285 48.324 98.312 48.295 98.312 48.263 L 98.19 48.17 L 80.728 42.047 L 98.874 37.665 C 98.935 37.665 98.935 37.607 98.903 37.575 L 80.288 38.787 L 94.864 27.752 C 94.896 27.691 94.768 27.661 94.739 27.725 L 78.365 36.026 L 87.403 20.079 C 87.403 20.055 87.403 19.989 87.348 20.021 L 75.538 33.881 L 77.805 15.671 C 77.805 15.637 77.739 15.605 77.678 15.637 L 72.246 33.318 L 67.491 15.106 C 67.459 15.077 67.396 15.045 67.361 15.106 L 68.671 33.997 L 57.455 19.4 C 57.421 19.366 57.392 19.4 57.36 19.429 L 65.844 35.583 L 49.807 26.821 C 49.778 26.821 49.714 26.855 49.714 26.884 L 63.977 38.596 L 45.77 36.673 C 45.706 36.708 45.706 36.764 45.77 36.793 L 63.423 41.956 L 45.866 47.115 C 45.831 47.141 45.831 47.205 45.866 47.234 L 63.977 45.123 L 49.746 57.211 C 49.714 57.211 49.685 57.272 49.746 57.307 L 49.937 57.246 L 61.333 51.279 L 64.009 47.022 L 67.051 47.022 L 64.942 45.531 L 71.992 34.215 L 67.833 47.579 L 67.841 47.587" fill="rgb(255,255,255)"/></g></g></g></g></g></g></g></g></svg>